M48
; DRILL file {KiCad 7.0.9} date Tue 23 Jan 2024 06:46:13 PM PST
; FORMAT={-:-/ absolute / inch / decimal}
; #@! TF.CreationDate,2024-01-23T18:46:13-08:00
; #@! TF.GenerationSoftware,Kicad,Pcbnew,7.0.9
; #@! TF.FileFunction,Plated,1,2,PTH
FMAT,2
INCH
; #@! TA.AperFunction,Plated,PTH,ComponentDrill
T1C0.0295
; #@! TA.AperFunction,Plated,PTH,ComponentDrill
T2C0.0315
; #@! TA.AperFunction,Plated,PTH,ComponentDrill
T3C0.0374
; #@! TA.AperFunction,Plated,PTH,ComponentDrill
T4C0.0402
%
G90
G05
T1
X2.15Y-1.14
X2.15Y-1.34
X2.15Y-1.54
X2.15Y-1.74
X2.15Y-1.94
X2.15Y-2.14
X2.15Y-2.34
X2.2Y-1.14
X2.2Y-1.34
X2.2Y-1.54
X2.2Y-1.74
X2.2Y-1.94
X2.2Y-2.14
X2.2Y-2.34
X2.25Y-1.14
X2.25Y-1.34
X2.25Y-1.54
X2.25Y-1.74
X2.25Y-1.94
X2.25Y-2.14
X2.25Y-2.34
T2
X2.4Y-1.24
X2.4Y-1.44
X2.4Y-1.64
X2.4Y-1.84
X2.4Y-2.04
X2.4Y-2.24
X2.4Y-2.44
X2.8Y-1.24
X2.8Y-1.44
X2.8Y-1.64
X2.8Y-1.84
X2.8Y-2.04
X2.8Y-2.24
X2.8Y-2.44
T3
X0.7047Y-0.7193
X0.7047Y-1.1193
X0.7047Y-1.5193
X0.7047Y-1.9193
X0.8Y-2.3193
X0.8031Y-0.7193
X0.8031Y-1.1193
X0.8031Y-1.5193
X0.8031Y-1.9193
X0.8984Y-2.3193
X0.9016Y-0.7193
X0.9016Y-1.1193
X0.9016Y-1.5193
X0.9016Y-1.9193
X0.9969Y-2.3193
X1.0Y-0.7193
X1.0Y-1.1193
X1.0Y-1.5193
X1.0Y-1.9193
X1.5047Y-0.7193
X1.5047Y-1.1193
X1.5047Y-1.5193
X1.5047Y-1.9193
X1.5047Y-2.3193
X1.6031Y-0.7193
X1.6031Y-1.1193
X1.6031Y-1.5193
X1.6031Y-1.9193
X1.6031Y-2.3193
X1.7016Y-0.7193
X1.7016Y-1.1193
X1.7016Y-1.5193
X1.7016Y-1.9193
X1.7016Y-2.3193
X1.8Y-0.7193
X1.8Y-1.1193
X1.8Y-1.5193
X1.8Y-1.9193
X1.8Y-2.3193
T4
X3.1Y-0.59
X3.1Y-0.69
X3.1Y-0.79
X3.1Y-0.89
X3.1Y-0.99
X3.1Y-1.09
X3.1Y-1.19
X3.1Y-1.29
X3.1Y-1.39
X3.1Y-1.49
X3.1Y-1.59
X3.1Y-1.69
X3.1Y-1.79
X3.1Y-1.89
X3.1Y-1.99
X3.1Y-2.09
X3.1Y-2.19
X3.1Y-2.29
X3.1Y-2.39
X3.1Y-2.49
X3.35Y-2.4809
X3.45Y-2.4809
X3.55Y-2.4809
X3.8Y-0.59
X3.8Y-0.69
X3.8Y-0.79
X3.8Y-0.89
X3.8Y-0.99
X3.8Y-1.09
X3.8Y-1.19
X3.8Y-1.29
X3.8Y-1.39
X3.8Y-1.49
X3.8Y-1.59
X3.8Y-1.69
X3.8Y-1.79
X3.8Y-1.89
X3.8Y-1.99
X3.8Y-2.09
X3.8Y-2.19
X3.8Y-2.29
X3.8Y-2.39
X3.8Y-2.49
T0
M30
