%TF.GenerationSoftware,KiCad,Pcbnew,7.0.9*%
%TF.CreationDate,2024-01-23T18:46:06-08:00*%
%TF.ProjectId,sdvx,73647678-2e6b-4696-9361-645f70636258,rev?*%
%TF.SameCoordinates,Original*%
%TF.FileFunction,Copper,L2,Bot*%
%TF.FilePolarity,Positive*%
%FSLAX46Y46*%
G04 Gerber Fmt 4.6, Leading zero omitted, Abs format (unit mm)*
G04 Created by KiCad (PCBNEW 7.0.9) date 2024-01-23 18:46:06*
%MOMM*%
%LPD*%
G01*
G04 APERTURE LIST*
G04 Aperture macros list*
%AMRoundRect*
0 Rectangle with rounded corners*
0 $1 Rounding radius*
0 $2 $3 $4 $5 $6 $7 $8 $9 X,Y pos of 4 corners*
0 Add a 4 corners polygon primitive as box body*
4,1,4,$2,$3,$4,$5,$6,$7,$8,$9,$2,$3,0*
0 Add four circle primitives for the rounded corners*
1,1,$1+$1,$2,$3*
1,1,$1+$1,$4,$5*
1,1,$1+$1,$6,$7*
1,1,$1+$1,$8,$9*
0 Add four rect primitives between the rounded corners*
20,1,$1+$1,$2,$3,$4,$5,0*
20,1,$1+$1,$4,$5,$6,$7,0*
20,1,$1+$1,$6,$7,$8,$9,0*
20,1,$1+$1,$8,$9,$2,$3,0*%
G04 Aperture macros list end*
%TA.AperFunction,ComponentPad*%
%ADD10R,1.050000X1.500000*%
%TD*%
%TA.AperFunction,ComponentPad*%
%ADD11O,1.050000X1.500000*%
%TD*%
%TA.AperFunction,ComponentPad*%
%ADD12O,1.700000X1.950000*%
%TD*%
%TA.AperFunction,ComponentPad*%
%ADD13RoundRect,0.250000X-0.600000X-0.725000X0.600000X-0.725000X0.600000X0.725000X-0.600000X0.725000X0*%
%TD*%
%TA.AperFunction,ComponentPad*%
%ADD14C,1.600000*%
%TD*%
%TA.AperFunction,ComponentPad*%
%ADD15O,1.600000X1.600000*%
%TD*%
%TA.AperFunction,ComponentPad*%
%ADD16O,1.700000X1.700000*%
%TD*%
%TA.AperFunction,ComponentPad*%
%ADD17R,1.700000X1.700000*%
%TD*%
%TA.AperFunction,Conductor*%
%ADD18C,0.500000*%
%TD*%
G04 APERTURE END LIST*
D10*
%TO.P,Q7,1,E*%
%TO.N,GND*%
X54610000Y-59436000D03*
D11*
%TO.P,Q7,2,B*%
%TO.N,Net-(Q7-B)*%
X55880000Y-59436000D03*
%TO.P,Q7,3,C*%
%TO.N,Net-(Q7-C)*%
X57150000Y-59436000D03*
%TD*%
D12*
%TO.P,BT-D1,4,Pin_4*%
%TO.N,GND*%
X45720000Y-38591000D03*
%TO.P,BT-D1,3,Pin_3*%
%TO.N,+5V*%
X43220000Y-38591000D03*
%TO.P,BT-D1,2,Pin_2*%
%TO.N,Net-(BT-D1-Pin_2)*%
X40720000Y-38591000D03*
D13*
%TO.P,BT-D1,1,Pin_1*%
%TO.N,/GPIO10*%
X38220000Y-38591000D03*
%TD*%
D12*
%TO.P,START1,4,Pin_4*%
%TO.N,GND*%
X45720000Y-58911000D03*
%TO.P,START1,3,Pin_3*%
%TO.N,+5V*%
X43220000Y-58911000D03*
%TO.P,START1,2,Pin_2*%
%TO.N,Net-(Q7-C)*%
X40720000Y-58911000D03*
D13*
%TO.P,START1,1,Pin_1*%
%TO.N,/GPIO19*%
X38220000Y-58911000D03*
%TD*%
D12*
%TO.P,BT-B1,4,Pin_4*%
%TO.N,GND*%
X45720000Y-28431000D03*
%TO.P,BT-B1,3,Pin_3*%
%TO.N,+5V*%
X43220000Y-28431000D03*
%TO.P,BT-B1,2,Pin_2*%
%TO.N,Net-(BT-B1-Pin_2)*%
X40720000Y-28431000D03*
D13*
%TO.P,BT-B1,1,Pin_1*%
%TO.N,/GPIO6*%
X38220000Y-28431000D03*
%TD*%
D10*
%TO.P,Q5,1,E*%
%TO.N,GND*%
X54610000Y-49276000D03*
D11*
%TO.P,Q5,2,B*%
%TO.N,Net-(Q5-B)*%
X55880000Y-49276000D03*
%TO.P,Q5,3,C*%
%TO.N,Net-(FX-L1-Pin_2)*%
X57150000Y-49276000D03*
%TD*%
D10*
%TO.P,Q6,1,E*%
%TO.N,GND*%
X54610000Y-54356000D03*
D11*
%TO.P,Q6,2,B*%
%TO.N,Net-(Q6-B)*%
X55880000Y-54356000D03*
%TO.P,Q6,3,C*%
%TO.N,Net-(FX-R1-Pin_2)*%
X57150000Y-54356000D03*
%TD*%
D10*
%TO.P,Q3,1,E*%
%TO.N,GND*%
X54610000Y-39116000D03*
D11*
%TO.P,Q3,2,B*%
%TO.N,Net-(Q3-B)*%
X55880000Y-39116000D03*
%TO.P,Q3,3,C*%
%TO.N,Net-(BT-C1-Pin_2)*%
X57150000Y-39116000D03*
%TD*%
D12*
%TO.P,VOL-R1,4,Pin_4*%
%TO.N,GND*%
X45720000Y-18271000D03*
%TO.P,VOL-R1,3,Pin_3*%
%TO.N,+5V*%
X43220000Y-18271000D03*
%TO.P,VOL-R1,2,Pin_2*%
%TO.N,/GPIO3*%
X40720000Y-18271000D03*
D13*
%TO.P,VOL-R1,1,Pin_1*%
%TO.N,/GPIO2*%
X38220000Y-18271000D03*
%TD*%
D14*
%TO.P,R4,1*%
%TO.N,/GPIO11*%
X71120000Y-46736000D03*
D15*
%TO.P,R4,2*%
%TO.N,Net-(Q4-B)*%
X60960000Y-46736000D03*
%TD*%
D10*
%TO.P,Q1,1,E*%
%TO.N,GND*%
X54610000Y-28956000D03*
D11*
%TO.P,Q1,2,B*%
%TO.N,Net-(Q1-B)*%
X55880000Y-28956000D03*
%TO.P,Q1,3,C*%
%TO.N,Net-(BT-A1-Pin_2)*%
X57150000Y-28956000D03*
%TD*%
D14*
%TO.P,R5,1*%
%TO.N,/GPIO13*%
X71120000Y-51816000D03*
D15*
%TO.P,R5,2*%
%TO.N,Net-(Q5-B)*%
X60960000Y-51816000D03*
%TD*%
D12*
%TO.P,FX-L1,4,Pin_4*%
%TO.N,GND*%
X25400000Y-48751000D03*
%TO.P,FX-L1,3,Pin_3*%
%TO.N,+5V*%
X22900000Y-48751000D03*
%TO.P,FX-L1,2,Pin_2*%
%TO.N,Net-(FX-L1-Pin_2)*%
X20400000Y-48751000D03*
D13*
%TO.P,FX-L1,1,Pin_1*%
%TO.N,/GPIO12*%
X17900000Y-48751000D03*
%TD*%
D12*
%TO.P,BT-A1,4,Pin_4*%
%TO.N,GND*%
X25400000Y-28431000D03*
%TO.P,BT-A1,3,Pin_3*%
%TO.N,+5V*%
X22900000Y-28431000D03*
%TO.P,BT-A1,2,Pin_2*%
%TO.N,Net-(BT-A1-Pin_2)*%
X20400000Y-28431000D03*
D13*
%TO.P,BT-A1,1,Pin_1*%
%TO.N,/GPIO4*%
X17900000Y-28431000D03*
%TD*%
D14*
%TO.P,R2,1*%
%TO.N,/GPIO7*%
X71120000Y-36576000D03*
D15*
%TO.P,R2,2*%
%TO.N,Net-(Q2-B)*%
X60960000Y-36576000D03*
%TD*%
D14*
%TO.P,R6,1*%
%TO.N,/GPIO15*%
X71120000Y-56896000D03*
D15*
%TO.P,R6,2*%
%TO.N,Net-(Q6-B)*%
X60960000Y-56896000D03*
%TD*%
D14*
%TO.P,R3,1*%
%TO.N,/GPIO9*%
X71120000Y-41656000D03*
D15*
%TO.P,R3,2*%
%TO.N,Net-(Q3-B)*%
X60960000Y-41656000D03*
%TD*%
D14*
%TO.P,R1,1*%
%TO.N,/GPIO5*%
X71120000Y-31496000D03*
D15*
%TO.P,R1,2*%
%TO.N,Net-(Q1-B)*%
X60960000Y-31496000D03*
%TD*%
D12*
%TO.P,RGB1,3,Pin_3*%
%TO.N,GND*%
X25320000Y-58911000D03*
%TO.P,RGB1,2,Pin_2*%
%TO.N,+5V*%
X22820000Y-58911000D03*
D13*
%TO.P,RGB1,1,Pin_1*%
%TO.N,/GPIO17*%
X20320000Y-58911000D03*
%TD*%
D12*
%TO.P,FX-R1,4,Pin_4*%
%TO.N,GND*%
X45720000Y-48751000D03*
%TO.P,FX-R1,3,Pin_3*%
%TO.N,+5V*%
X43220000Y-48751000D03*
%TO.P,FX-R1,2,Pin_2*%
%TO.N,Net-(FX-R1-Pin_2)*%
X40720000Y-48751000D03*
D13*
%TO.P,FX-R1,1,Pin_1*%
%TO.N,/GPIO14*%
X38220000Y-48751000D03*
%TD*%
D10*
%TO.P,Q4,1,E*%
%TO.N,GND*%
X54610000Y-44196000D03*
D11*
%TO.P,Q4,2,B*%
%TO.N,Net-(Q4-B)*%
X55880000Y-44196000D03*
%TO.P,Q4,3,C*%
%TO.N,Net-(BT-D1-Pin_2)*%
X57150000Y-44196000D03*
%TD*%
D12*
%TO.P,BT-C1,4,Pin_4*%
%TO.N,GND*%
X25400000Y-38591000D03*
%TO.P,BT-C1,3,Pin_3*%
%TO.N,+5V*%
X22900000Y-38591000D03*
%TO.P,BT-C1,2,Pin_2*%
%TO.N,Net-(BT-C1-Pin_2)*%
X20400000Y-38591000D03*
D13*
%TO.P,BT-C1,1,Pin_1*%
%TO.N,/GPIO8*%
X17900000Y-38591000D03*
%TD*%
D10*
%TO.P,Q2,1,E*%
%TO.N,GND*%
X54610000Y-34036000D03*
D11*
%TO.P,Q2,2,B*%
%TO.N,Net-(Q2-B)*%
X55880000Y-34036000D03*
%TO.P,Q2,3,C*%
%TO.N,Net-(BT-B1-Pin_2)*%
X57150000Y-34036000D03*
%TD*%
D12*
%TO.P,VOL-L1,4,Pin_4*%
%TO.N,GND*%
X25400000Y-18271000D03*
%TO.P,VOL-L1,3,Pin_3*%
%TO.N,+5V*%
X22900000Y-18271000D03*
%TO.P,VOL-L1,2,Pin_2*%
%TO.N,/GPIO1*%
X20400000Y-18271000D03*
D13*
%TO.P,VOL-L1,1,Pin_1*%
%TO.N,/GPIO0*%
X17900000Y-18271000D03*
%TD*%
D14*
%TO.P,R7,1*%
%TO.N,/GPIO18*%
X71120000Y-61976000D03*
D15*
%TO.P,R7,2*%
%TO.N,Net-(Q7-B)*%
X60960000Y-61976000D03*
%TD*%
D16*
%TO.P,U1,1,GPIO0*%
%TO.N,/GPIO0*%
X78740000Y-14986000D03*
%TO.P,U1,2,GPIO1*%
%TO.N,/GPIO1*%
X78740000Y-17526000D03*
D17*
%TO.P,U1,3,GND*%
%TO.N,GND*%
X78740000Y-20066000D03*
D16*
%TO.P,U1,4,GPIO2*%
%TO.N,/GPIO2*%
X78740000Y-22606000D03*
%TO.P,U1,5,GPIO3*%
%TO.N,/GPIO3*%
X78740000Y-25146000D03*
%TO.P,U1,6,GPIO4*%
%TO.N,/GPIO4*%
X78740000Y-27686000D03*
%TO.P,U1,7,GPIO5*%
%TO.N,/GPIO5*%
X78740000Y-30226000D03*
D17*
%TO.P,U1,8,GND*%
%TO.N,GND*%
X78740000Y-32766000D03*
D16*
%TO.P,U1,9,GPIO6*%
%TO.N,/GPIO6*%
X78740000Y-35306000D03*
%TO.P,U1,10,GPIO7*%
%TO.N,/GPIO7*%
X78740000Y-37846000D03*
%TO.P,U1,11,GPIO8*%
%TO.N,/GPIO8*%
X78740000Y-40386000D03*
%TO.P,U1,12,GPIO9*%
%TO.N,/GPIO9*%
X78740000Y-42926000D03*
D17*
%TO.P,U1,13,GND*%
%TO.N,GND*%
X78740000Y-45466000D03*
D16*
%TO.P,U1,14,GPIO10*%
%TO.N,/GPIO10*%
X78740000Y-48006000D03*
%TO.P,U1,15,GPIO11*%
%TO.N,/GPIO11*%
X78740000Y-50546000D03*
%TO.P,U1,16,GPIO12*%
%TO.N,/GPIO12*%
X78740000Y-53086000D03*
%TO.P,U1,17,GPIO13*%
%TO.N,/GPIO13*%
X78740000Y-55626000D03*
D17*
%TO.P,U1,18,GND*%
%TO.N,GND*%
X78740000Y-58166000D03*
D16*
%TO.P,U1,19,GPIO14*%
%TO.N,/GPIO14*%
X78740000Y-60706000D03*
%TO.P,U1,20,GPIO15*%
%TO.N,/GPIO15*%
X78740000Y-63246000D03*
%TO.P,U1,21,GPIO16*%
%TO.N,/GPIO16*%
X96520000Y-63246000D03*
%TO.P,U1,22,GPIO17*%
%TO.N,/GPIO17*%
X96520000Y-60706000D03*
D17*
%TO.P,U1,23,GND*%
%TO.N,GND*%
X96520000Y-58166000D03*
D16*
%TO.P,U1,24,GPIO18*%
%TO.N,/GPIO18*%
X96520000Y-55626000D03*
%TO.P,U1,25,GPIO19*%
%TO.N,/GPIO19*%
X96520000Y-53086000D03*
%TO.P,U1,26,GPIO20*%
%TO.N,/GPIO20*%
X96520000Y-50546000D03*
%TO.P,U1,27,GPIO21*%
%TO.N,/GPIO21*%
X96520000Y-48006000D03*
D17*
%TO.P,U1,28,GND*%
%TO.N,GND*%
X96520000Y-45466000D03*
D16*
%TO.P,U1,29,GPIO22*%
%TO.N,/GPIO22*%
X96520000Y-42926000D03*
%TO.P,U1,30,RUN*%
%TO.N,unconnected-(U1-RUN-Pad30)*%
X96520000Y-40386000D03*
%TO.P,U1,31,GPIO26_ADC0*%
%TO.N,/GPIO26*%
X96520000Y-37846000D03*
%TO.P,U1,32,GPIO27_ADC1*%
%TO.N,/GPIO27*%
X96520000Y-35306000D03*
D17*
%TO.P,U1,33,AGND*%
%TO.N,GND*%
X96520000Y-32766000D03*
D16*
%TO.P,U1,34,GPIO28_ADC2*%
%TO.N,/GPIO28*%
X96520000Y-30226000D03*
%TO.P,U1,35,ADC_VREF*%
%TO.N,unconnected-(U1-ADC_VREF-Pad35)*%
X96520000Y-27686000D03*
%TO.P,U1,36,3V3*%
%TO.N,unconnected-(U1-3V3-Pad36)*%
X96520000Y-25146000D03*
%TO.P,U1,37,3V3_EN*%
%TO.N,unconnected-(U1-3V3_EN-Pad37)*%
X96520000Y-22606000D03*
D17*
%TO.P,U1,38,GND*%
%TO.N,GND*%
X96520000Y-20066000D03*
D16*
%TO.P,U1,39,VSYS*%
%TO.N,+5V*%
X96520000Y-17526000D03*
%TO.P,U1,40,VBUS*%
X96520000Y-14986000D03*
%TO.P,U1,41,SWCLK*%
%TO.N,unconnected-(U1-SWCLK-Pad41)*%
X85090000Y-63016000D03*
D17*
%TO.P,U1,42,GND*%
%TO.N,GND*%
X87630000Y-63016000D03*
D16*
%TO.P,U1,43,SWDIO*%
%TO.N,unconnected-(U1-SWDIO-Pad43)*%
X90170000Y-63016000D03*
%TD*%
D18*
%TO.N,+5V*%
X22900000Y-58831000D02*
X22820000Y-58911000D01*
%TD*%
%TA.AperFunction,Conductor*%
%TO.N,GND*%
G36*
X104082539Y-12720185D02*
G01*
X104128294Y-12772989D01*
X104139500Y-12824500D01*
X104139500Y-68201500D01*
X104119815Y-68268539D01*
X104067011Y-68314294D01*
X104015500Y-68325500D01*
X12824500Y-68325500D01*
X12757461Y-68305815D01*
X12711706Y-68253011D01*
X12700500Y-68201500D01*
X12700500Y-61976001D01*
X59654532Y-61976001D01*
X59674364Y-62202686D01*
X59674366Y-62202697D01*
X59733258Y-62422488D01*
X59733261Y-62422497D01*
X59829431Y-62628732D01*
X59829432Y-62628734D01*
X59959954Y-62815141D01*
X60120858Y-62976045D01*
X60120861Y-62976047D01*
X60307266Y-63106568D01*
X60513504Y-63202739D01*
X60733308Y-63261635D01*
X60895230Y-63275801D01*
X60959998Y-63281468D01*
X60960000Y-63281468D01*
X60960002Y-63281468D01*
X61016673Y-63276509D01*
X61186692Y-63261635D01*
X61406496Y-63202739D01*
X61612734Y-63106568D01*
X61799139Y-62976047D01*
X61960047Y-62815139D01*
X62090568Y-62628734D01*
X62186739Y-62422496D01*
X62245635Y-62202692D01*
X62265468Y-61976001D01*
X69814532Y-61976001D01*
X69834364Y-62202686D01*
X69834366Y-62202697D01*
X69893258Y-62422488D01*
X69893261Y-62422497D01*
X69989431Y-62628732D01*
X69989432Y-62628734D01*
X70119954Y-62815141D01*
X70280858Y-62976045D01*
X70280861Y-62976047D01*
X70467266Y-63106568D01*
X70673504Y-63202739D01*
X70893308Y-63261635D01*
X71055230Y-63275801D01*
X71119998Y-63281468D01*
X71120000Y-63281468D01*
X71120002Y-63281468D01*
X71176673Y-63276509D01*
X71346692Y-63261635D01*
X71405043Y-63246000D01*
X77384341Y-63246000D01*
X77404936Y-63481403D01*
X77404938Y-63481413D01*
X77466094Y-63709655D01*
X77466096Y-63709659D01*
X77466097Y-63709663D01*
X77548975Y-63887395D01*
X77565965Y-63923830D01*
X77565967Y-63923834D01*
X77602865Y-63976529D01*
X77701505Y-64117401D01*
X77868599Y-64284495D01*
X77963665Y-64351061D01*
X78062165Y-64420032D01*
X78062167Y-64420033D01*
X78062170Y-64420035D01*
X78276337Y-64519903D01*
X78504592Y-64581063D01*
X78692918Y-64597539D01*
X78739999Y-64601659D01*
X78740000Y-64601659D01*
X78740001Y-64601659D01*
X78779234Y-64598226D01*
X78975408Y-64581063D01*
X79203663Y-64519903D01*
X79417830Y-64420035D01*
X79611401Y-64284495D01*
X79778495Y-64117401D01*
X79914035Y-63923830D01*
X80013903Y-63709663D01*
X80075063Y-63481408D01*
X80095659Y-63246000D01*
X80075536Y-63016000D01*
X83734341Y-63016000D01*
X83754936Y-63251403D01*
X83754938Y-63251413D01*
X83816094Y-63479655D01*
X83816096Y-63479659D01*
X83816097Y-63479663D01*
X83915965Y-63693830D01*
X83915967Y-63693834D01*
X84024281Y-63848521D01*
X84051505Y-63887401D01*
X84218599Y-64054495D01*
X84295135Y-64108086D01*
X84412165Y-64190032D01*
X84412167Y-64190033D01*
X84412170Y-64190035D01*
X84626337Y-64289903D01*
X84854592Y-64351063D01*
X85025319Y-64366000D01*
X85089999Y-64371659D01*
X85090000Y-64371659D01*
X85090001Y-64371659D01*
X85154681Y-64366000D01*
X85325408Y-64351063D01*
X85553663Y-64289903D01*
X85767830Y-64190035D01*
X85961401Y-64054495D01*
X86083717Y-63932178D01*
X86145036Y-63898696D01*
X86214728Y-63903680D01*
X86270662Y-63945551D01*
X86287577Y-63976528D01*
X86336646Y-64108088D01*
X86336649Y-64108093D01*
X86422809Y-64223187D01*
X86422812Y-64223190D01*
X86537906Y-64309350D01*
X86537913Y-64309354D01*
X86672620Y-64359596D01*
X86672627Y-64359598D01*
X86732155Y-64365999D01*
X86732172Y-64366000D01*
X87380000Y-64366000D01*
X87380000Y-63462494D01*
X87484839Y-63510373D01*
X87593527Y-63526000D01*
X87666473Y-63526000D01*
X87775161Y-63510373D01*
X87880000Y-63462494D01*
X87880000Y-64366000D01*
X88527828Y-64366000D01*
X88527844Y-64365999D01*
X88587372Y-64359598D01*
X88587379Y-64359596D01*
X88722086Y-64309354D01*
X88722093Y-64309350D01*
X88837187Y-64223190D01*
X88837190Y-64223187D01*
X88923350Y-64108093D01*
X88923354Y-64108086D01*
X88972422Y-63976529D01*
X89014293Y-63920595D01*
X89079757Y-63896178D01*
X89148030Y-63911030D01*
X89176285Y-63932181D01*
X89298599Y-64054495D01*
X89375135Y-64108086D01*
X89492165Y-64190032D01*
X89492167Y-64190033D01*
X89492170Y-64190035D01*
X89706337Y-64289903D01*
X89934592Y-64351063D01*
X90105319Y-64366000D01*
X90169999Y-64371659D01*
X90170000Y-64371659D01*
X90170001Y-64371659D01*
X90234681Y-64366000D01*
X90405408Y-64351063D01*
X90633663Y-64289903D01*
X90847830Y-64190035D01*
X91041401Y-64054495D01*
X91208495Y-63887401D01*
X91344035Y-63693830D01*
X91443903Y-63479663D01*
X91505063Y-63251408D01*
X91505536Y-63246000D01*
X95164341Y-63246000D01*
X95184936Y-63481403D01*
X95184938Y-63481413D01*
X95246094Y-63709655D01*
X95246096Y-63709659D01*
X95246097Y-63709663D01*
X95328975Y-63887395D01*
X95345965Y-63923830D01*
X95345967Y-63923834D01*
X95382865Y-63976529D01*
X95481505Y-64117401D01*
X95648599Y-64284495D01*
X95743665Y-64351061D01*
X95842165Y-64420032D01*
X95842167Y-64420033D01*
X95842170Y-64420035D01*
X96056337Y-64519903D01*
X96284592Y-64581063D01*
X96472918Y-64597539D01*
X96519999Y-64601659D01*
X96520000Y-64601659D01*
X96520001Y-64601659D01*
X96559234Y-64598226D01*
X96755408Y-64581063D01*
X96983663Y-64519903D01*
X97197830Y-64420035D01*
X97391401Y-64284495D01*
X97558495Y-64117401D01*
X97694035Y-63923830D01*
X97793903Y-63709663D01*
X97855063Y-63481408D01*
X97875659Y-63246000D01*
X97855063Y-63010592D01*
X97793903Y-62782337D01*
X97694035Y-62568171D01*
X97592034Y-62422497D01*
X97558494Y-62374597D01*
X97391402Y-62207506D01*
X97391396Y-62207501D01*
X97205842Y-62077575D01*
X97162217Y-62022998D01*
X97155023Y-61953500D01*
X97186546Y-61891145D01*
X97205842Y-61874425D01*
X97252197Y-61841967D01*
X97391401Y-61744495D01*
X97558495Y-61577401D01*
X97694035Y-61383830D01*
X97793903Y-61169663D01*
X97855063Y-60941408D01*
X97875659Y-60706000D01*
X97855063Y-60470592D01*
X97808626Y-60297285D01*
X97793905Y-60242344D01*
X97793904Y-60242343D01*
X97793903Y-60242337D01*
X97694035Y-60028171D01*
X97643034Y-59955334D01*
X97558496Y-59834600D01*
X97512692Y-59788796D01*
X97436179Y-59712283D01*
X97402696Y-59650963D01*
X97407680Y-59581271D01*
X97449551Y-59525337D01*
X97480529Y-59508422D01*
X97612086Y-59459354D01*
X97612093Y-59459350D01*
X97727187Y-59373190D01*
X97727190Y-59373187D01*
X97813350Y-59258093D01*
X97813354Y-59258086D01*
X97863596Y-59123379D01*
X97863598Y-59123372D01*
X97869999Y-59063844D01*
X97870000Y-59063827D01*
X97870000Y-58416000D01*
X96965572Y-58416000D01*
X96988682Y-58380040D01*
X97030000Y-58239327D01*
X97030000Y-58092673D01*
X96988682Y-57951960D01*
X96965572Y-57916000D01*
X97870000Y-57916000D01*
X97870000Y-57268172D01*
X97869999Y-57268155D01*
X97863598Y-57208627D01*
X97863596Y-57208620D01*
X97813354Y-57073913D01*
X97813350Y-57073906D01*
X97727190Y-56958812D01*
X97727187Y-56958809D01*
X97612093Y-56872649D01*
X97612088Y-56872646D01*
X97480528Y-56823577D01*
X97424595Y-56781705D01*
X97400178Y-56716241D01*
X97415030Y-56647968D01*
X97436175Y-56619720D01*
X97558495Y-56497401D01*
X97694035Y-56303830D01*
X97793903Y-56089663D01*
X97855063Y-55861408D01*
X97875659Y-55626000D01*
X97855063Y-55390592D01*
X97808626Y-55217285D01*
X97793905Y-55162344D01*
X97793904Y-55162343D01*
X97793903Y-55162337D01*
X97694035Y-54948171D01*
X97577705Y-54782033D01*
X97558494Y-54754597D01*
X97391402Y-54587506D01*
X97391396Y-54587501D01*
X97205842Y-54457575D01*
X97162217Y-54402998D01*
X97155023Y-54333500D01*
X97186546Y-54271145D01*
X97205842Y-54254425D01*
X97357748Y-54148059D01*
X97391401Y-54124495D01*
X97558495Y-53957401D01*
X97694035Y-53763830D01*
X97793903Y-53549663D01*
X97855063Y-53321408D01*
X97875659Y-53086000D01*
X97855063Y-52850592D01*
X97793903Y-52622337D01*
X97694035Y-52408171D01*
X97592034Y-52262497D01*
X97558494Y-52214597D01*
X97391402Y-52047506D01*
X97391396Y-52047501D01*
X97205842Y-51917575D01*
X97162217Y-51862998D01*
X97155023Y-51793500D01*
X97186546Y-51731145D01*
X97205842Y-51714425D01*
X97384527Y-51589308D01*
X97391401Y-51584495D01*
X97558495Y-51417401D01*
X97694035Y-51223830D01*
X97793903Y-51009663D01*
X97855063Y-50781408D01*
X97875659Y-50546000D01*
X97855063Y-50310592D01*
X97808626Y-50137285D01*
X97793905Y-50082344D01*
X97793904Y-50082343D01*
X97793903Y-50082337D01*
X97694035Y-49868171D01*
X97643035Y-49795334D01*
X97558494Y-49674597D01*
X97391402Y-49507506D01*
X97391396Y-49507501D01*
X97205842Y-49377575D01*
X97162217Y-49322998D01*
X97155023Y-49253500D01*
X97186546Y-49191145D01*
X97205842Y-49174425D01*
X97295839Y-49111408D01*
X97391401Y-49044495D01*
X97558495Y-48877401D01*
X97694035Y-48683830D01*
X97793903Y-48469663D01*
X97855063Y-48241408D01*
X97875659Y-48006000D01*
X97873033Y-47975991D01*
X97870621Y-47948420D01*
X97855063Y-47770592D01*
X97793903Y-47542337D01*
X97694035Y-47328171D01*
X97671063Y-47295364D01*
X97558496Y-47134600D01*
X97558495Y-47134599D01*
X97436179Y-47012283D01*
X97402696Y-46950963D01*
X97407680Y-46881271D01*
X97449551Y-46825337D01*
X97480529Y-46808422D01*
X97612086Y-46759354D01*
X97612093Y-46759350D01*
X97727187Y-46673190D01*
X97727190Y-46673187D01*
X97813350Y-46558093D01*
X97813354Y-46558086D01*
X97863596Y-46423379D01*
X97863598Y-46423372D01*
X97869999Y-46363844D01*
X97870000Y-46363827D01*
X97870000Y-45716000D01*
X96965572Y-45716000D01*
X96988682Y-45680040D01*
X97030000Y-45539327D01*
X97030000Y-45392673D01*
X96988682Y-45251960D01*
X96965572Y-45216000D01*
X97870000Y-45216000D01*
X97870000Y-44568172D01*
X97869999Y-44568155D01*
X97863598Y-44508627D01*
X97863596Y-44508620D01*
X97813354Y-44373913D01*
X97813350Y-44373906D01*
X97727190Y-44258812D01*
X97727187Y-44258809D01*
X97612093Y-44172649D01*
X97612088Y-44172646D01*
X97480528Y-44123577D01*
X97424595Y-44081705D01*
X97400178Y-44016241D01*
X97415030Y-43947968D01*
X97436175Y-43919720D01*
X97558495Y-43797401D01*
X97694035Y-43603830D01*
X97793903Y-43389663D01*
X97855063Y-43161408D01*
X97875659Y-42926000D01*
X97855063Y-42690592D01*
X97793903Y-42462337D01*
X97694035Y-42248171D01*
X97592034Y-42102497D01*
X97558494Y-42054597D01*
X97391402Y-41887506D01*
X97391396Y-41887501D01*
X97205842Y-41757575D01*
X97162217Y-41702998D01*
X97155023Y-41633500D01*
X97186546Y-41571145D01*
X97205842Y-41554425D01*
X97384527Y-41429308D01*
X97391401Y-41424495D01*
X97558495Y-41257401D01*
X97694035Y-41063830D01*
X97793903Y-40849663D01*
X97855063Y-40621408D01*
X97875659Y-40386000D01*
X97855063Y-40150592D01*
X97808626Y-39977285D01*
X97793905Y-39922344D01*
X97793904Y-39922343D01*
X97793903Y-39922337D01*
X97694035Y-39708171D01*
X97643035Y-39635334D01*
X97558494Y-39514597D01*
X97391402Y-39347506D01*
X97391396Y-39347501D01*
X97205842Y-39217575D01*
X97162217Y-39162998D01*
X97155023Y-39093500D01*
X97186546Y-39031145D01*
X97205842Y-39014425D01*
X97295839Y-38951408D01*
X97391401Y-38884495D01*
X97558495Y-38717401D01*
X97694035Y-38523830D01*
X97793903Y-38309663D01*
X97855063Y-38081408D01*
X97875659Y-37846000D01*
X97873033Y-37815991D01*
X97870621Y-37788420D01*
X97855063Y-37610592D01*
X97793903Y-37382337D01*
X97694035Y-37168171D01*
X97671064Y-37135364D01*
X97558494Y-36974597D01*
X97391402Y-36807506D01*
X97391396Y-36807501D01*
X97205842Y-36677575D01*
X97162217Y-36622998D01*
X97155023Y-36553500D01*
X97186546Y-36491145D01*
X97205842Y-36474425D01*
X97384527Y-36349308D01*
X97391401Y-36344495D01*
X97558495Y-36177401D01*
X97694035Y-35983830D01*
X97793903Y-35769663D01*
X97855063Y-35541408D01*
X97875659Y-35306000D01*
X97855063Y-35070592D01*
X97808626Y-34897285D01*
X97793905Y-34842344D01*
X97793904Y-34842343D01*
X97793903Y-34842337D01*
X97694035Y-34628171D01*
X97577704Y-34462033D01*
X97558496Y-34434600D01*
X97519482Y-34395586D01*
X97436179Y-34312283D01*
X97402696Y-34250963D01*
X97407680Y-34181271D01*
X97449551Y-34125337D01*
X97480529Y-34108422D01*
X97612086Y-34059354D01*
X97612093Y-34059350D01*
X97727187Y-33973190D01*
X97727190Y-33973187D01*
X97813350Y-33858093D01*
X97813354Y-33858086D01*
X97863596Y-33723379D01*
X97863598Y-33723372D01*
X97869999Y-33663844D01*
X97870000Y-33663827D01*
X97870000Y-33016000D01*
X96965572Y-33016000D01*
X96988682Y-32980040D01*
X97030000Y-32839327D01*
X97030000Y-32692673D01*
X96988682Y-32551960D01*
X96965572Y-32516000D01*
X97870000Y-32516000D01*
X97870000Y-31868172D01*
X97869999Y-31868155D01*
X97863598Y-31808627D01*
X97863596Y-31808620D01*
X97813354Y-31673913D01*
X97813350Y-31673906D01*
X97727190Y-31558812D01*
X97727187Y-31558809D01*
X97612093Y-31472649D01*
X97612088Y-31472646D01*
X97480528Y-31423577D01*
X97424595Y-31381705D01*
X97400178Y-31316241D01*
X97415030Y-31247968D01*
X97436175Y-31219720D01*
X97558495Y-31097401D01*
X97694035Y-30903830D01*
X97793903Y-30689663D01*
X97855063Y-30461408D01*
X97875659Y-30226000D01*
X97855063Y-29990592D01*
X97808626Y-29817285D01*
X97793905Y-29762344D01*
X97793904Y-29762343D01*
X97793903Y-29762337D01*
X97694035Y-29548171D01*
X97643035Y-29475334D01*
X97558494Y-29354597D01*
X97391402Y-29187506D01*
X97391396Y-29187501D01*
X97205842Y-29057575D01*
X97162217Y-29002998D01*
X97155023Y-28933500D01*
X97186546Y-28871145D01*
X97205842Y-28854425D01*
X97295839Y-28791408D01*
X97391401Y-28724495D01*
X97558495Y-28557401D01*
X97694035Y-28363830D01*
X97793903Y-28149663D01*
X97855063Y-27921408D01*
X97875659Y-27686000D01*
X97873033Y-27655991D01*
X97870621Y-27628420D01*
X97855063Y-27450592D01*
X97793903Y-27222337D01*
X97694035Y-27008171D01*
X97671064Y-26975364D01*
X97558494Y-26814597D01*
X97391402Y-26647506D01*
X97391396Y-26647501D01*
X97205842Y-26517575D01*
X97162217Y-26462998D01*
X97155023Y-26393500D01*
X97186546Y-26331145D01*
X97205842Y-26314425D01*
X97228026Y-26298891D01*
X97391401Y-26184495D01*
X97558495Y-26017401D01*
X97694035Y-25823830D01*
X97793903Y-25609663D01*
X97855063Y-25381408D01*
X97875659Y-25146000D01*
X97855063Y-24910592D01*
X97793903Y-24682337D01*
X97694035Y-24468171D01*
X97558495Y-24274599D01*
X97558494Y-24274597D01*
X97391402Y-24107506D01*
X97391396Y-24107501D01*
X97205842Y-23977575D01*
X97162217Y-23922998D01*
X97155023Y-23853500D01*
X97186546Y-23791145D01*
X97205842Y-23774425D01*
X97228026Y-23758891D01*
X97391401Y-23644495D01*
X97558495Y-23477401D01*
X97694035Y-23283830D01*
X97793903Y-23069663D01*
X97855063Y-22841408D01*
X97875659Y-22606000D01*
X97855063Y-22370592D01*
X97793903Y-22142337D01*
X97694035Y-21928171D01*
X97558495Y-21734599D01*
X97436179Y-21612283D01*
X97402696Y-21550963D01*
X97407680Y-21481271D01*
X97449551Y-21425337D01*
X97480529Y-21408422D01*
X97612086Y-21359354D01*
X97612093Y-21359350D01*
X97727187Y-21273190D01*
X97727190Y-21273187D01*
X97813350Y-21158093D01*
X97813354Y-21158086D01*
X97863596Y-21023379D01*
X97863598Y-21023372D01*
X97869999Y-20963844D01*
X97870000Y-20963827D01*
X97870000Y-20316000D01*
X96965572Y-20316000D01*
X96988682Y-20280040D01*
X97030000Y-20139327D01*
X97030000Y-19992673D01*
X96988682Y-19851960D01*
X96965572Y-19816000D01*
X97870000Y-19816000D01*
X97870000Y-19168172D01*
X97869999Y-19168155D01*
X97863598Y-19108627D01*
X97863596Y-19108620D01*
X97813354Y-18973913D01*
X97813350Y-18973906D01*
X97727190Y-18858812D01*
X97727187Y-18858809D01*
X97612093Y-18772649D01*
X97612088Y-18772646D01*
X97480528Y-18723577D01*
X97424595Y-18681705D01*
X97400178Y-18616241D01*
X97415030Y-18547968D01*
X97436175Y-18519720D01*
X97558495Y-18397401D01*
X97694035Y-18203830D01*
X97793903Y-17989663D01*
X97855063Y-17761408D01*
X97875659Y-17526000D01*
X97873033Y-17495991D01*
X97870621Y-17468420D01*
X97855063Y-17290592D01*
X97803155Y-17096868D01*
X97793905Y-17062344D01*
X97793904Y-17062343D01*
X97793903Y-17062337D01*
X97694035Y-16848171D01*
X97671064Y-16815364D01*
X97558494Y-16654597D01*
X97391402Y-16487506D01*
X97391396Y-16487501D01*
X97205842Y-16357575D01*
X97162217Y-16302998D01*
X97155023Y-16233500D01*
X97186546Y-16171145D01*
X97205842Y-16154425D01*
X97239650Y-16130752D01*
X97391401Y-16024495D01*
X97558495Y-15857401D01*
X97694035Y-15663830D01*
X97793903Y-15449663D01*
X97855063Y-15221408D01*
X97875659Y-14986000D01*
X97855063Y-14750592D01*
X97793903Y-14522337D01*
X97694035Y-14308171D01*
X97674456Y-14280208D01*
X97558494Y-14114597D01*
X97391402Y-13947506D01*
X97391395Y-13947501D01*
X97388297Y-13945332D01*
X97350040Y-13918544D01*
X97197834Y-13811967D01*
X97197830Y-13811965D01*
X97196908Y-13811535D01*
X96983663Y-13712097D01*
X96983659Y-13712096D01*
X96983655Y-13712094D01*
X96755413Y-13650938D01*
X96755403Y-13650936D01*
X96520001Y-13630341D01*
X96519999Y-13630341D01*
X96284596Y-13650936D01*
X96284586Y-13650938D01*
X96056344Y-13712094D01*
X96056335Y-13712098D01*
X95842171Y-13811964D01*
X95842169Y-13811965D01*
X95648597Y-13947505D01*
X95481505Y-14114597D01*
X95345965Y-14308169D01*
X95345964Y-14308171D01*
X95246098Y-14522335D01*
X95246094Y-14522344D01*
X95184938Y-14750586D01*
X95184936Y-14750596D01*
X95164341Y-14985999D01*
X95164341Y-14986000D01*
X95184936Y-15221403D01*
X95184938Y-15221413D01*
X95246094Y-15449655D01*
X95246096Y-15449659D01*
X95246097Y-15449663D01*
X95293328Y-15550949D01*
X95345965Y-15663830D01*
X95345967Y-15663834D01*
X95481501Y-15857395D01*
X95481506Y-15857402D01*
X95648597Y-16024493D01*
X95648603Y-16024498D01*
X95834158Y-16154425D01*
X95877783Y-16209002D01*
X95884977Y-16278500D01*
X95853454Y-16340855D01*
X95834158Y-16357575D01*
X95648597Y-16487505D01*
X95481505Y-16654597D01*
X95345965Y-16848169D01*
X95345964Y-16848171D01*
X95246098Y-17062335D01*
X95246094Y-17062344D01*
X95184938Y-17290586D01*
X95184936Y-17290596D01*
X95164341Y-17525999D01*
X95164341Y-17526000D01*
X95184936Y-17761403D01*
X95184938Y-17761413D01*
X95246094Y-17989655D01*
X95246096Y-17989659D01*
X95246097Y-17989663D01*
X95333295Y-18176660D01*
X95345965Y-18203830D01*
X95345967Y-18203834D01*
X95401422Y-18283031D01*
X95481501Y-18397396D01*
X95481506Y-18397402D01*
X95603818Y-18519714D01*
X95637303Y-18581037D01*
X95632319Y-18650729D01*
X95590447Y-18706662D01*
X95559471Y-18723577D01*
X95427912Y-18772646D01*
X95427906Y-18772649D01*
X95312812Y-18858809D01*
X95312809Y-18858812D01*
X95226649Y-18973906D01*
X95226645Y-18973913D01*
X95176403Y-19108620D01*
X95176401Y-19108627D01*
X95170000Y-19168155D01*
X95170000Y-19816000D01*
X96074428Y-19816000D01*
X96051318Y-19851960D01*
X96010000Y-19992673D01*
X96010000Y-20139327D01*
X96051318Y-20280040D01*
X96074428Y-20316000D01*
X95170000Y-20316000D01*
X95170000Y-20963844D01*
X95176401Y-21023372D01*
X95176403Y-21023379D01*
X95226645Y-21158086D01*
X95226649Y-21158093D01*
X95312809Y-21273187D01*
X95312812Y-21273190D01*
X95427906Y-21359350D01*
X95427913Y-21359354D01*
X95559470Y-21408421D01*
X95615403Y-21450292D01*
X95639821Y-21515756D01*
X95624970Y-21584029D01*
X95603819Y-21612284D01*
X95481503Y-21734600D01*
X95345965Y-21928169D01*
X95345964Y-21928171D01*
X95246098Y-22142335D01*
X95246094Y-22142344D01*
X95184938Y-22370586D01*
X95184936Y-22370596D01*
X95164341Y-22605999D01*
X95164341Y-22606000D01*
X95184936Y-22841403D01*
X95184938Y-22841413D01*
X95246094Y-23069655D01*
X95246096Y-23069659D01*
X95246097Y-23069663D01*
X95345965Y-23283830D01*
X95345967Y-23283834D01*
X95481501Y-23477395D01*
X95481506Y-23477402D01*
X95648597Y-23644493D01*
X95648603Y-23644498D01*
X95834158Y-23774425D01*
X95877783Y-23829002D01*
X95884977Y-23898500D01*
X95853454Y-23960855D01*
X95834158Y-23977575D01*
X95648597Y-24107505D01*
X95481505Y-24274597D01*
X95345965Y-24468169D01*
X95345964Y-24468171D01*
X95246098Y-24682335D01*
X95246094Y-24682344D01*
X95184938Y-24910586D01*
X95184936Y-24910596D01*
X95164341Y-25145999D01*
X95164341Y-25146000D01*
X95184936Y-25381403D01*
X95184938Y-25381413D01*
X95246094Y-25609655D01*
X95246096Y-25609659D01*
X95246097Y-25609663D01*
X95345965Y-25823830D01*
X95345967Y-25823834D01*
X95481501Y-26017395D01*
X95481506Y-26017402D01*
X95648597Y-26184493D01*
X95648603Y-26184498D01*
X95834158Y-26314425D01*
X95877783Y-26369002D01*
X95884977Y-26438500D01*
X95853454Y-26500855D01*
X95834158Y-26517575D01*
X95648597Y-26647505D01*
X95481505Y-26814597D01*
X95345965Y-27008169D01*
X95345964Y-27008171D01*
X95246098Y-27222335D01*
X95246094Y-27222344D01*
X95184938Y-27450586D01*
X95184936Y-27450596D01*
X95164341Y-27685999D01*
X95164341Y-27686000D01*
X95184936Y-27921403D01*
X95184938Y-27921413D01*
X95246094Y-28149655D01*
X95246096Y-28149659D01*
X95246097Y-28149663D01*
X95250057Y-28158155D01*
X95345965Y-28363830D01*
X95345967Y-28363834D01*
X95440819Y-28499295D01*
X95462295Y-28529967D01*
X95481501Y-28557395D01*
X95481506Y-28557402D01*
X95648597Y-28724493D01*
X95648603Y-28724498D01*
X95834158Y-28854425D01*
X95877783Y-28909002D01*
X95884977Y-28978500D01*
X95853454Y-29040855D01*
X95834158Y-29057575D01*
X95648597Y-29187505D01*
X95481505Y-29354597D01*
X95345965Y-29548169D01*
X95345964Y-29548171D01*
X95246098Y-29762335D01*
X95246094Y-29762344D01*
X95184938Y-29990586D01*
X95184936Y-29990596D01*
X95164341Y-30225999D01*
X95164341Y-30226000D01*
X95184936Y-30461403D01*
X95184938Y-30461413D01*
X95246094Y-30689655D01*
X95246096Y-30689659D01*
X95246097Y-30689663D01*
X95317724Y-30843267D01*
X95345965Y-30903830D01*
X95345967Y-30903834D01*
X95447966Y-31049502D01*
X95481501Y-31097396D01*
X95481506Y-31097402D01*
X95603818Y-31219714D01*
X95637303Y-31281037D01*
X95632319Y-31350729D01*
X95590447Y-31406662D01*
X95559471Y-31423577D01*
X95427912Y-31472646D01*
X95427906Y-31472649D01*
X95312812Y-31558809D01*
X95312809Y-31558812D01*
X95226649Y-31673906D01*
X95226645Y-31673913D01*
X95176403Y-31808620D01*
X95176401Y-31808627D01*
X95170000Y-31868155D01*
X95170000Y-32516000D01*
X96074428Y-32516000D01*
X96051318Y-32551960D01*
X96010000Y-32692673D01*
X96010000Y-32839327D01*
X96051318Y-32980040D01*
X96074428Y-33016000D01*
X95170000Y-33016000D01*
X95170000Y-33663844D01*
X95176401Y-33723372D01*
X95176403Y-33723379D01*
X95226645Y-33858086D01*
X95226649Y-33858093D01*
X95312809Y-33973187D01*
X95312812Y-33973190D01*
X95427906Y-34059350D01*
X95427913Y-34059354D01*
X95559470Y-34108421D01*
X95615403Y-34150292D01*
X95639821Y-34215756D01*
X95624970Y-34284029D01*
X95603819Y-34312284D01*
X95481503Y-34434600D01*
X95345965Y-34628169D01*
X95345964Y-34628171D01*
X95246098Y-34842335D01*
X95246094Y-34842344D01*
X95184938Y-35070586D01*
X95184936Y-35070596D01*
X95164341Y-35305999D01*
X95164341Y-35306000D01*
X95184936Y-35541403D01*
X95184938Y-35541413D01*
X95246094Y-35769655D01*
X95246096Y-35769659D01*
X95246097Y-35769663D01*
X95317724Y-35923267D01*
X95345965Y-35983830D01*
X95345967Y-35983834D01*
X95481501Y-36177395D01*
X95481506Y-36177402D01*
X95648597Y-36344493D01*
X95648603Y-36344498D01*
X95834158Y-36474425D01*
X95877783Y-36529002D01*
X95884977Y-36598500D01*
X95853454Y-36660855D01*
X95834158Y-36677575D01*
X95648597Y-36807505D01*
X95481505Y-36974597D01*
X95345965Y-37168169D01*
X95345964Y-37168171D01*
X95246098Y-37382335D01*
X95246094Y-37382344D01*
X95184938Y-37610586D01*
X95184936Y-37610596D01*
X95164341Y-37845999D01*
X95164341Y-37846000D01*
X95184936Y-38081403D01*
X95184938Y-38081413D01*
X95246094Y-38309655D01*
X95246096Y-38309659D01*
X95246097Y-38309663D01*
X95250057Y-38318155D01*
X95345965Y-38523830D01*
X95345967Y-38523834D01*
X95440819Y-38659295D01*
X95462295Y-38689967D01*
X95481501Y-38717395D01*
X95481506Y-38717402D01*
X95648597Y-38884493D01*
X95648603Y-38884498D01*
X95834158Y-39014425D01*
X95877783Y-39069002D01*
X95884977Y-39138500D01*
X95853454Y-39200855D01*
X95834158Y-39217575D01*
X95648597Y-39347505D01*
X95481505Y-39514597D01*
X95345965Y-39708169D01*
X95345964Y-39708171D01*
X95246098Y-39922335D01*
X95246094Y-39922344D01*
X95184938Y-40150586D01*
X95184936Y-40150596D01*
X95164341Y-40385999D01*
X95164341Y-40386000D01*
X95184936Y-40621403D01*
X95184938Y-40621413D01*
X95246094Y-40849655D01*
X95246096Y-40849659D01*
X95246097Y-40849663D01*
X95317724Y-41003267D01*
X95345965Y-41063830D01*
X95345967Y-41063834D01*
X95481501Y-41257395D01*
X95481506Y-41257402D01*
X95648597Y-41424493D01*
X95648603Y-41424498D01*
X95834158Y-41554425D01*
X95877783Y-41609002D01*
X95884977Y-41678500D01*
X95853454Y-41740855D01*
X95834158Y-41757575D01*
X95648597Y-41887505D01*
X95481505Y-42054597D01*
X95345965Y-42248169D01*
X95345964Y-42248171D01*
X95246098Y-42462335D01*
X95246094Y-42462344D01*
X95184938Y-42690586D01*
X95184936Y-42690596D01*
X95164341Y-42925999D01*
X95164341Y-42926000D01*
X95184936Y-43161403D01*
X95184938Y-43161413D01*
X95246094Y-43389655D01*
X95246096Y-43389659D01*
X95246097Y-43389663D01*
X95250057Y-43398155D01*
X95345965Y-43603830D01*
X95345967Y-43603834D01*
X95454281Y-43758521D01*
X95481501Y-43797396D01*
X95481506Y-43797402D01*
X95603818Y-43919714D01*
X95637303Y-43981037D01*
X95632319Y-44050729D01*
X95590447Y-44106662D01*
X95559471Y-44123577D01*
X95427912Y-44172646D01*
X95427906Y-44172649D01*
X95312812Y-44258809D01*
X95312809Y-44258812D01*
X95226649Y-44373906D01*
X95226645Y-44373913D01*
X95176403Y-44508620D01*
X95176401Y-44508627D01*
X95170000Y-44568155D01*
X95170000Y-45216000D01*
X96074428Y-45216000D01*
X96051318Y-45251960D01*
X96010000Y-45392673D01*
X96010000Y-45539327D01*
X96051318Y-45680040D01*
X96074428Y-45716000D01*
X95170000Y-45716000D01*
X95170000Y-46363844D01*
X95176401Y-46423372D01*
X95176403Y-46423379D01*
X95226645Y-46558086D01*
X95226649Y-46558093D01*
X95312809Y-46673187D01*
X95312812Y-46673190D01*
X95427906Y-46759350D01*
X95427913Y-46759354D01*
X95559470Y-46808421D01*
X95615403Y-46850292D01*
X95639821Y-46915756D01*
X95624970Y-46984029D01*
X95603819Y-47012284D01*
X95481503Y-47134600D01*
X95345965Y-47328169D01*
X95345964Y-47328171D01*
X95246098Y-47542335D01*
X95246094Y-47542344D01*
X95184938Y-47770586D01*
X95184936Y-47770596D01*
X95164341Y-48005999D01*
X95164341Y-48006000D01*
X95184936Y-48241403D01*
X95184938Y-48241413D01*
X95246094Y-48469655D01*
X95246096Y-48469659D01*
X95246097Y-48469663D01*
X95250057Y-48478155D01*
X95345965Y-48683830D01*
X95345967Y-48683834D01*
X95440819Y-48819295D01*
X95462295Y-48849967D01*
X95481501Y-48877395D01*
X95481506Y-48877402D01*
X95648597Y-49044493D01*
X95648603Y-49044498D01*
X95834158Y-49174425D01*
X95877783Y-49229002D01*
X95884977Y-49298500D01*
X95853454Y-49360855D01*
X95834158Y-49377575D01*
X95648597Y-49507505D01*
X95481505Y-49674597D01*
X95345965Y-49868169D01*
X95345964Y-49868171D01*
X95246098Y-50082335D01*
X95246094Y-50082344D01*
X95184938Y-50310586D01*
X95184936Y-50310596D01*
X95164341Y-50545999D01*
X95164341Y-50546000D01*
X95184936Y-50781403D01*
X95184938Y-50781413D01*
X95246094Y-51009655D01*
X95246096Y-51009659D01*
X95246097Y-51009663D01*
X95317724Y-51163267D01*
X95345965Y-51223830D01*
X95345967Y-51223834D01*
X95481501Y-51417395D01*
X95481506Y-51417402D01*
X95648597Y-51584493D01*
X95648603Y-51584498D01*
X95834158Y-51714425D01*
X95877783Y-51769002D01*
X95884977Y-51838500D01*
X95853454Y-51900855D01*
X95834158Y-51917575D01*
X95648597Y-52047505D01*
X95481505Y-52214597D01*
X95345965Y-52408169D01*
X95345964Y-52408171D01*
X95246098Y-52622335D01*
X95246094Y-52622344D01*
X95184938Y-52850586D01*
X95184936Y-52850596D01*
X95164341Y-53085999D01*
X95164341Y-53086000D01*
X95184936Y-53321403D01*
X95184938Y-53321413D01*
X95246094Y-53549655D01*
X95246096Y-53549659D01*
X95246097Y-53549663D01*
X95250057Y-53558155D01*
X95345965Y-53763830D01*
X95345967Y-53763834D01*
X95454281Y-53918521D01*
X95462295Y-53929967D01*
X95481501Y-53957395D01*
X95481506Y-53957402D01*
X95648597Y-54124493D01*
X95648603Y-54124498D01*
X95834158Y-54254425D01*
X95877783Y-54309002D01*
X95884977Y-54378500D01*
X95853454Y-54440855D01*
X95834158Y-54457575D01*
X95648597Y-54587505D01*
X95481505Y-54754597D01*
X95345965Y-54948169D01*
X95345964Y-54948171D01*
X95246098Y-55162335D01*
X95246094Y-55162344D01*
X95184938Y-55390586D01*
X95184936Y-55390596D01*
X95164341Y-55625999D01*
X95164341Y-55626000D01*
X95184936Y-55861403D01*
X95184938Y-55861413D01*
X95246094Y-56089655D01*
X95246096Y-56089659D01*
X95246097Y-56089663D01*
X95317724Y-56243267D01*
X95345965Y-56303830D01*
X95345967Y-56303834D01*
X95447966Y-56449502D01*
X95481501Y-56497396D01*
X95481506Y-56497402D01*
X95603818Y-56619714D01*
X95637303Y-56681037D01*
X95632319Y-56750729D01*
X95590447Y-56806662D01*
X95559471Y-56823577D01*
X95427912Y-56872646D01*
X95427906Y-56872649D01*
X95312812Y-56958809D01*
X95312809Y-56958812D01*
X95226649Y-57073906D01*
X95226645Y-57073913D01*
X95176403Y-57208620D01*
X95176401Y-57208627D01*
X95170000Y-57268155D01*
X95170000Y-57916000D01*
X96074428Y-57916000D01*
X96051318Y-57951960D01*
X96010000Y-58092673D01*
X96010000Y-58239327D01*
X96051318Y-58380040D01*
X96074428Y-58416000D01*
X95170000Y-58416000D01*
X95170000Y-59063844D01*
X95176401Y-59123372D01*
X95176403Y-59123379D01*
X95226645Y-59258086D01*
X95226649Y-59258093D01*
X95312809Y-59373187D01*
X95312812Y-59373190D01*
X95427906Y-59459350D01*
X95427913Y-59459354D01*
X95559470Y-59508421D01*
X95615403Y-59550292D01*
X95639821Y-59615756D01*
X95624970Y-59684029D01*
X95603819Y-59712284D01*
X95481503Y-59834600D01*
X95345965Y-60028169D01*
X95345964Y-60028171D01*
X95246098Y-60242335D01*
X95246094Y-60242344D01*
X95184938Y-60470586D01*
X95184936Y-60470596D01*
X95164341Y-60705999D01*
X95164341Y-60706000D01*
X95184936Y-60941403D01*
X95184938Y-60941413D01*
X95246094Y-61169655D01*
X95246096Y-61169659D01*
X95246097Y-61169663D01*
X95317724Y-61323267D01*
X95345965Y-61383830D01*
X95345967Y-61383834D01*
X95481501Y-61577395D01*
X95481506Y-61577402D01*
X95648597Y-61744493D01*
X95648603Y-61744498D01*
X95834158Y-61874425D01*
X95877783Y-61929002D01*
X95884977Y-61998500D01*
X95853454Y-62060855D01*
X95834158Y-62077575D01*
X95648597Y-62207505D01*
X95481505Y-62374597D01*
X95345965Y-62568169D01*
X95345964Y-62568171D01*
X95246098Y-62782335D01*
X95246094Y-62782344D01*
X95184938Y-63010586D01*
X95184936Y-63010596D01*
X95164341Y-63245999D01*
X95164341Y-63246000D01*
X91505536Y-63246000D01*
X91525659Y-63016000D01*
X91505063Y-62780592D01*
X91443903Y-62552337D01*
X91344035Y-62338171D01*
X91252540Y-62207501D01*
X91208494Y-62144597D01*
X91041402Y-61977506D01*
X91041395Y-61977501D01*
X91039251Y-61976000D01*
X90964854Y-61923906D01*
X90847834Y-61841967D01*
X90847830Y-61841965D01*
X90776727Y-61808809D01*
X90633663Y-61742097D01*
X90633659Y-61742096D01*
X90633655Y-61742094D01*
X90405413Y-61680938D01*
X90405403Y-61680936D01*
X90170001Y-61660341D01*
X90169999Y-61660341D01*
X89934596Y-61680936D01*
X89934586Y-61680938D01*
X89706344Y-61742094D01*
X89706335Y-61742098D01*
X89492171Y-61841964D01*
X89492169Y-61841965D01*
X89298600Y-61977503D01*
X89176284Y-62099819D01*
X89114961Y-62133303D01*
X89045269Y-62128319D01*
X88989336Y-62086447D01*
X88972421Y-62055470D01*
X88923354Y-61923913D01*
X88923350Y-61923906D01*
X88837190Y-61808812D01*
X88837187Y-61808809D01*
X88722093Y-61722649D01*
X88722086Y-61722645D01*
X88587379Y-61672403D01*
X88587372Y-61672401D01*
X88527844Y-61666000D01*
X87880000Y-61666000D01*
X87880000Y-62569505D01*
X87775161Y-62521627D01*
X87666473Y-62506000D01*
X87593527Y-62506000D01*
X87484839Y-62521627D01*
X87380000Y-62569505D01*
X87380000Y-61666000D01*
X86732155Y-61666000D01*
X86672627Y-61672401D01*
X86672620Y-61672403D01*
X86537913Y-61722645D01*
X86537906Y-61722649D01*
X86422812Y-61808809D01*
X86422809Y-61808812D01*
X86336649Y-61923906D01*
X86336645Y-61923913D01*
X86287578Y-62055470D01*
X86245707Y-62111404D01*
X86180242Y-62135821D01*
X86111969Y-62120969D01*
X86083715Y-62099819D01*
X86039366Y-62055470D01*
X85961401Y-61977505D01*
X85961397Y-61977502D01*
X85961396Y-61977501D01*
X85767834Y-61841967D01*
X85767830Y-61841965D01*
X85696727Y-61808809D01*
X85553663Y-61742097D01*
X85553659Y-61742096D01*
X85553655Y-61742094D01*
X85325413Y-61680938D01*
X85325403Y-61680936D01*
X85090001Y-61660341D01*
X85089999Y-61660341D01*
X84854596Y-61680936D01*
X84854586Y-61680938D01*
X84626344Y-61742094D01*
X84626335Y-61742098D01*
X84412171Y-61841964D01*
X84412169Y-61841965D01*
X84218597Y-61977505D01*
X84051505Y-62144597D01*
X83915965Y-62338169D01*
X83915964Y-62338171D01*
X83816098Y-62552335D01*
X83816094Y-62552344D01*
X83754938Y-62780586D01*
X83754936Y-62780596D01*
X83734341Y-63015999D01*
X83734341Y-63016000D01*
X80075536Y-63016000D01*
X80075063Y-63010592D01*
X80013903Y-62782337D01*
X79914035Y-62568171D01*
X79812034Y-62422497D01*
X79778494Y-62374597D01*
X79611402Y-62207506D01*
X79611396Y-62207501D01*
X79425842Y-62077575D01*
X79382217Y-62022998D01*
X79375023Y-61953500D01*
X79406546Y-61891145D01*
X79425842Y-61874425D01*
X79472197Y-61841967D01*
X79611401Y-61744495D01*
X79778495Y-61577401D01*
X79914035Y-61383830D01*
X80013903Y-61169663D01*
X80075063Y-60941408D01*
X80095659Y-60706000D01*
X80075063Y-60470592D01*
X80028626Y-60297285D01*
X80013905Y-60242344D01*
X80013904Y-60242343D01*
X80013903Y-60242337D01*
X79914035Y-60028171D01*
X79863034Y-59955334D01*
X79778496Y-59834600D01*
X79732692Y-59788796D01*
X79656179Y-59712283D01*
X79622696Y-59650963D01*
X79627680Y-59581271D01*
X79669551Y-59525337D01*
X79700529Y-59508422D01*
X79832086Y-59459354D01*
X79832093Y-59459350D01*
X79947187Y-59373190D01*
X79947190Y-59373187D01*
X80033350Y-59258093D01*
X80033354Y-59258086D01*
X80083596Y-59123379D01*
X80083598Y-59123372D01*
X80089999Y-59063844D01*
X80090000Y-59063827D01*
X80090000Y-58416000D01*
X79185572Y-58416000D01*
X79208682Y-58380040D01*
X79250000Y-58239327D01*
X79250000Y-58092673D01*
X79208682Y-57951960D01*
X79185572Y-57916000D01*
X80090000Y-57916000D01*
X80090000Y-57268172D01*
X80089999Y-57268155D01*
X80083598Y-57208627D01*
X80083596Y-57208620D01*
X80033354Y-57073913D01*
X80033350Y-57073906D01*
X79947190Y-56958812D01*
X79947187Y-56958809D01*
X79832093Y-56872649D01*
X79832088Y-56872646D01*
X79700528Y-56823577D01*
X79644595Y-56781705D01*
X79620178Y-56716241D01*
X79635030Y-56647968D01*
X79656175Y-56619720D01*
X79778495Y-56497401D01*
X79914035Y-56303830D01*
X80013903Y-56089663D01*
X80075063Y-55861408D01*
X80095659Y-55626000D01*
X80075063Y-55390592D01*
X80028626Y-55217285D01*
X80013905Y-55162344D01*
X80013904Y-55162343D01*
X80013903Y-55162337D01*
X79914035Y-54948171D01*
X79797705Y-54782033D01*
X79778494Y-54754597D01*
X79611402Y-54587506D01*
X79611396Y-54587501D01*
X79425842Y-54457575D01*
X79382217Y-54402998D01*
X79375023Y-54333500D01*
X79406546Y-54271145D01*
X79425842Y-54254425D01*
X79577748Y-54148059D01*
X79611401Y-54124495D01*
X79778495Y-53957401D01*
X79914035Y-53763830D01*
X80013903Y-53549663D01*
X80075063Y-53321408D01*
X80095659Y-53086000D01*
X80075063Y-52850592D01*
X80013903Y-52622337D01*
X79914035Y-52408171D01*
X79812034Y-52262497D01*
X79778494Y-52214597D01*
X79611402Y-52047506D01*
X79611396Y-52047501D01*
X79425842Y-51917575D01*
X79382217Y-51862998D01*
X79375023Y-51793500D01*
X79406546Y-51731145D01*
X79425842Y-51714425D01*
X79604527Y-51589308D01*
X79611401Y-51584495D01*
X79778495Y-51417401D01*
X79914035Y-51223830D01*
X80013903Y-51009663D01*
X80075063Y-50781408D01*
X80095659Y-50546000D01*
X80075063Y-50310592D01*
X80028626Y-50137285D01*
X80013905Y-50082344D01*
X80013904Y-50082343D01*
X80013903Y-50082337D01*
X79914035Y-49868171D01*
X79863035Y-49795334D01*
X79778494Y-49674597D01*
X79611402Y-49507506D01*
X79611396Y-49507501D01*
X79425842Y-49377575D01*
X79382217Y-49322998D01*
X79375023Y-49253500D01*
X79406546Y-49191145D01*
X79425842Y-49174425D01*
X79515839Y-49111408D01*
X79611401Y-49044495D01*
X79778495Y-48877401D01*
X79914035Y-48683830D01*
X80013903Y-48469663D01*
X80075063Y-48241408D01*
X80095659Y-48006000D01*
X80093033Y-47975991D01*
X80090621Y-47948420D01*
X80075063Y-47770592D01*
X80013903Y-47542337D01*
X79914035Y-47328171D01*
X79891063Y-47295364D01*
X79778496Y-47134600D01*
X79778495Y-47134599D01*
X79656179Y-47012283D01*
X79622696Y-46950963D01*
X79627680Y-46881271D01*
X79669551Y-46825337D01*
X79700529Y-46808422D01*
X79832086Y-46759354D01*
X79832093Y-46759350D01*
X79947187Y-46673190D01*
X79947190Y-46673187D01*
X80033350Y-46558093D01*
X80033354Y-46558086D01*
X80083596Y-46423379D01*
X80083598Y-46423372D01*
X80089999Y-46363844D01*
X80090000Y-46363827D01*
X80090000Y-45716000D01*
X79185572Y-45716000D01*
X79208682Y-45680040D01*
X79250000Y-45539327D01*
X79250000Y-45392673D01*
X79208682Y-45251960D01*
X79185572Y-45216000D01*
X80090000Y-45216000D01*
X80090000Y-44568172D01*
X80089999Y-44568155D01*
X80083598Y-44508627D01*
X80083596Y-44508620D01*
X80033354Y-44373913D01*
X80033350Y-44373906D01*
X79947190Y-44258812D01*
X79947187Y-44258809D01*
X79832093Y-44172649D01*
X79832088Y-44172646D01*
X79700528Y-44123577D01*
X79644595Y-44081705D01*
X79620178Y-44016241D01*
X79635030Y-43947968D01*
X79656175Y-43919720D01*
X79778495Y-43797401D01*
X79914035Y-43603830D01*
X80013903Y-43389663D01*
X80075063Y-43161408D01*
X80095659Y-42926000D01*
X80075063Y-42690592D01*
X80013903Y-42462337D01*
X79914035Y-42248171D01*
X79812034Y-42102497D01*
X79778494Y-42054597D01*
X79611402Y-41887506D01*
X79611396Y-41887501D01*
X79425842Y-41757575D01*
X79382217Y-41702998D01*
X79375023Y-41633500D01*
X79406546Y-41571145D01*
X79425842Y-41554425D01*
X79604527Y-41429308D01*
X79611401Y-41424495D01*
X79778495Y-41257401D01*
X79914035Y-41063830D01*
X80013903Y-40849663D01*
X80075063Y-40621408D01*
X80095659Y-40386000D01*
X80075063Y-40150592D01*
X80028626Y-39977285D01*
X80013905Y-39922344D01*
X80013904Y-39922343D01*
X80013903Y-39922337D01*
X79914035Y-39708171D01*
X79863035Y-39635334D01*
X79778494Y-39514597D01*
X79611402Y-39347506D01*
X79611396Y-39347501D01*
X79425842Y-39217575D01*
X79382217Y-39162998D01*
X79375023Y-39093500D01*
X79406546Y-39031145D01*
X79425842Y-39014425D01*
X79515839Y-38951408D01*
X79611401Y-38884495D01*
X79778495Y-38717401D01*
X79914035Y-38523830D01*
X80013903Y-38309663D01*
X80075063Y-38081408D01*
X80095659Y-37846000D01*
X80093033Y-37815991D01*
X80090621Y-37788420D01*
X80075063Y-37610592D01*
X80013903Y-37382337D01*
X79914035Y-37168171D01*
X79891064Y-37135364D01*
X79778494Y-36974597D01*
X79611402Y-36807506D01*
X79611396Y-36807501D01*
X79425842Y-36677575D01*
X79382217Y-36622998D01*
X79375023Y-36553500D01*
X79406546Y-36491145D01*
X79425842Y-36474425D01*
X79604527Y-36349308D01*
X79611401Y-36344495D01*
X79778495Y-36177401D01*
X79914035Y-35983830D01*
X80013903Y-35769663D01*
X80075063Y-35541408D01*
X80095659Y-35306000D01*
X80075063Y-35070592D01*
X80028626Y-34897285D01*
X80013905Y-34842344D01*
X80013904Y-34842343D01*
X80013903Y-34842337D01*
X79914035Y-34628171D01*
X79797704Y-34462033D01*
X79778496Y-34434600D01*
X79739482Y-34395586D01*
X79656179Y-34312283D01*
X79622696Y-34250963D01*
X79627680Y-34181271D01*
X79669551Y-34125337D01*
X79700529Y-34108422D01*
X79832086Y-34059354D01*
X79832093Y-34059350D01*
X79947187Y-33973190D01*
X79947190Y-33973187D01*
X80033350Y-33858093D01*
X80033354Y-33858086D01*
X80083596Y-33723379D01*
X80083598Y-33723372D01*
X80089999Y-33663844D01*
X80090000Y-33663827D01*
X80090000Y-33016000D01*
X79185572Y-33016000D01*
X79208682Y-32980040D01*
X79250000Y-32839327D01*
X79250000Y-32692673D01*
X79208682Y-32551960D01*
X79185572Y-32516000D01*
X80090000Y-32516000D01*
X80090000Y-31868172D01*
X80089999Y-31868155D01*
X80083598Y-31808627D01*
X80083596Y-31808620D01*
X80033354Y-31673913D01*
X80033350Y-31673906D01*
X79947190Y-31558812D01*
X79947187Y-31558809D01*
X79832093Y-31472649D01*
X79832088Y-31472646D01*
X79700528Y-31423577D01*
X79644595Y-31381705D01*
X79620178Y-31316241D01*
X79635030Y-31247968D01*
X79656175Y-31219720D01*
X79778495Y-31097401D01*
X79914035Y-30903830D01*
X80013903Y-30689663D01*
X80075063Y-30461408D01*
X80095659Y-30226000D01*
X80075063Y-29990592D01*
X80028626Y-29817285D01*
X80013905Y-29762344D01*
X80013904Y-29762343D01*
X80013903Y-29762337D01*
X79914035Y-29548171D01*
X79863035Y-29475334D01*
X79778494Y-29354597D01*
X79611402Y-29187506D01*
X79611396Y-29187501D01*
X79425842Y-29057575D01*
X79382217Y-29002998D01*
X79375023Y-28933500D01*
X79406546Y-28871145D01*
X79425842Y-28854425D01*
X79515839Y-28791408D01*
X79611401Y-28724495D01*
X79778495Y-28557401D01*
X79914035Y-28363830D01*
X80013903Y-28149663D01*
X80075063Y-27921408D01*
X80095659Y-27686000D01*
X80093033Y-27655991D01*
X80090621Y-27628420D01*
X80075063Y-27450592D01*
X80013903Y-27222337D01*
X79914035Y-27008171D01*
X79891064Y-26975364D01*
X79778494Y-26814597D01*
X79611402Y-26647506D01*
X79611396Y-26647501D01*
X79425842Y-26517575D01*
X79382217Y-26462998D01*
X79375023Y-26393500D01*
X79406546Y-26331145D01*
X79425842Y-26314425D01*
X79448026Y-26298891D01*
X79611401Y-26184495D01*
X79778495Y-26017401D01*
X79914035Y-25823830D01*
X80013903Y-25609663D01*
X80075063Y-25381408D01*
X80095659Y-25146000D01*
X80075063Y-24910592D01*
X80013903Y-24682337D01*
X79914035Y-24468171D01*
X79778495Y-24274599D01*
X79778494Y-24274597D01*
X79611402Y-24107506D01*
X79611396Y-24107501D01*
X79425842Y-23977575D01*
X79382217Y-23922998D01*
X79375023Y-23853500D01*
X79406546Y-23791145D01*
X79425842Y-23774425D01*
X79448026Y-23758891D01*
X79611401Y-23644495D01*
X79778495Y-23477401D01*
X79914035Y-23283830D01*
X80013903Y-23069663D01*
X80075063Y-22841408D01*
X80095659Y-22606000D01*
X80075063Y-22370592D01*
X80013903Y-22142337D01*
X79914035Y-21928171D01*
X79778495Y-21734599D01*
X79656179Y-21612283D01*
X79622696Y-21550963D01*
X79627680Y-21481271D01*
X79669551Y-21425337D01*
X79700529Y-21408422D01*
X79832086Y-21359354D01*
X79832093Y-21359350D01*
X79947187Y-21273190D01*
X79947190Y-21273187D01*
X80033350Y-21158093D01*
X80033354Y-21158086D01*
X80083596Y-21023379D01*
X80083598Y-21023372D01*
X80089999Y-20963844D01*
X80090000Y-20963827D01*
X80090000Y-20316000D01*
X79185572Y-20316000D01*
X79208682Y-20280040D01*
X79250000Y-20139327D01*
X79250000Y-19992673D01*
X79208682Y-19851960D01*
X79185572Y-19816000D01*
X80090000Y-19816000D01*
X80090000Y-19168172D01*
X80089999Y-19168155D01*
X80083598Y-19108627D01*
X80083596Y-19108620D01*
X80033354Y-18973913D01*
X80033350Y-18973906D01*
X79947190Y-18858812D01*
X79947187Y-18858809D01*
X79832093Y-18772649D01*
X79832088Y-18772646D01*
X79700528Y-18723577D01*
X79644595Y-18681705D01*
X79620178Y-18616241D01*
X79635030Y-18547968D01*
X79656175Y-18519720D01*
X79778495Y-18397401D01*
X79914035Y-18203830D01*
X79941000Y-18146003D01*
X83949723Y-18146003D01*
X83951688Y-18168470D01*
X83951862Y-18176660D01*
X83950709Y-18202324D01*
X83950710Y-18202328D01*
X83961641Y-18283031D01*
X83961966Y-18285949D01*
X83968792Y-18363972D01*
X83968795Y-18363987D01*
X83975482Y-18388941D01*
X83977034Y-18396670D01*
X83980924Y-18425381D01*
X83980926Y-18425392D01*
X84005075Y-18499713D01*
X84005997Y-18502825D01*
X84025423Y-18575324D01*
X84025427Y-18575336D01*
X84037736Y-18601732D01*
X84040512Y-18608779D01*
X84050483Y-18639464D01*
X84085970Y-18705411D01*
X84087558Y-18708576D01*
X84117898Y-18773639D01*
X84136288Y-18799903D01*
X84136490Y-18800191D01*
X84140303Y-18806378D01*
X84157146Y-18837678D01*
X84157152Y-18837687D01*
X84201792Y-18893663D01*
X84204106Y-18896758D01*
X84230510Y-18934465D01*
X84243402Y-18952877D01*
X84243405Y-18952880D01*
X84268646Y-18978121D01*
X84273283Y-18983309D01*
X84297492Y-19013666D01*
X84348959Y-19058632D01*
X84352008Y-19061483D01*
X84398116Y-19107592D01*
X84398122Y-19107597D01*
X84398123Y-19107598D01*
X84402129Y-19110403D01*
X84430055Y-19129957D01*
X84435290Y-19134057D01*
X84467004Y-19161765D01*
X84467013Y-19161771D01*
X84522849Y-19195131D01*
X84526613Y-19197568D01*
X84577359Y-19233101D01*
X84577364Y-19233104D01*
X84599917Y-19243620D01*
X84615677Y-19250969D01*
X84621271Y-19253935D01*
X84658349Y-19276088D01*
X84660236Y-19277215D01*
X84667055Y-19279774D01*
X84718083Y-19298925D01*
X84722503Y-19300782D01*
X84775670Y-19325575D01*
X84775674Y-19325577D01*
X84806069Y-19333720D01*
X84819677Y-19337366D01*
X84825413Y-19339207D01*
X84842264Y-19345531D01*
X84870976Y-19356307D01*
X84928545Y-19366754D01*
X84933511Y-19367868D01*
X84987023Y-19382207D01*
X85035689Y-19386464D01*
X85041306Y-19387218D01*
X85092453Y-19396500D01*
X85147691Y-19396500D01*
X85153092Y-19396735D01*
X85181548Y-19399225D01*
X85204998Y-19401277D01*
X85205000Y-19401277D01*
X85257992Y-19396640D01*
X85261121Y-19396500D01*
X85261155Y-19396500D01*
X85315172Y-19391638D01*
X85422977Y-19382207D01*
X85423000Y-19382200D01*
X85423475Y-19382117D01*
X85428713Y-19381419D01*
X85429188Y-19381377D01*
X85532997Y-19352726D01*
X85634330Y-19325575D01*
X85634337Y-19325571D01*
X85641254Y-19323053D01*
X85645948Y-19321554D01*
X85646170Y-19321493D01*
X85646181Y-19321487D01*
X85646183Y-19321487D01*
X85740454Y-19276088D01*
X85759079Y-19267403D01*
X85832639Y-19233102D01*
X85832644Y-19233097D01*
X85837327Y-19230395D01*
X85837400Y-19230522D01*
X85848164Y-19224218D01*
X85848973Y-19223829D01*
X85931156Y-19164118D01*
X86011877Y-19107598D01*
X86012747Y-19106727D01*
X86027550Y-19094084D01*
X86031078Y-19091522D01*
X86099131Y-19020343D01*
X86166598Y-18952877D01*
X86169285Y-18949039D01*
X86181239Y-18934465D01*
X86186629Y-18928828D01*
X86186628Y-18928828D01*
X86186632Y-18928825D01*
X86239164Y-18849241D01*
X86292102Y-18773639D01*
X86295543Y-18766259D01*
X86304432Y-18750364D01*
X86310635Y-18740968D01*
X86346889Y-18656146D01*
X86384575Y-18575330D01*
X86387570Y-18564148D01*
X86393325Y-18547505D01*
X86399103Y-18533988D01*
X86418936Y-18447092D01*
X86441207Y-18363977D01*
X86442887Y-18344766D01*
X86444206Y-18336377D01*
X86444445Y-18335325D01*
X86449191Y-18314537D01*
X86453050Y-18228602D01*
X86460277Y-18146003D01*
X88799723Y-18146003D01*
X88801688Y-18168470D01*
X88801862Y-18176660D01*
X88800709Y-18202324D01*
X88800710Y-18202328D01*
X88811641Y-18283031D01*
X88811966Y-18285949D01*
X88818792Y-18363972D01*
X88818795Y-18363987D01*
X88825482Y-18388941D01*
X88827034Y-18396670D01*
X88830924Y-18425381D01*
X88830926Y-18425392D01*
X88855075Y-18499713D01*
X88855997Y-18502825D01*
X88875423Y-18575324D01*
X88875427Y-18575336D01*
X88887736Y-18601732D01*
X88890512Y-18608779D01*
X88900483Y-18639464D01*
X88935970Y-18705411D01*
X88937558Y-18708576D01*
X88967898Y-18773639D01*
X88986288Y-18799903D01*
X88986490Y-18800191D01*
X88990303Y-18806378D01*
X89007146Y-18837678D01*
X89007152Y-18837687D01*
X89051792Y-18893663D01*
X89054106Y-18896758D01*
X89080510Y-18934465D01*
X89093402Y-18952877D01*
X89093405Y-18952880D01*
X89118646Y-18978121D01*
X89123283Y-18983309D01*
X89147492Y-19013666D01*
X89198959Y-19058632D01*
X89202008Y-19061483D01*
X89248116Y-19107592D01*
X89248122Y-19107597D01*
X89248123Y-19107598D01*
X89252129Y-19110403D01*
X89280055Y-19129957D01*
X89285290Y-19134057D01*
X89317004Y-19161765D01*
X89317013Y-19161771D01*
X89372849Y-19195131D01*
X89376613Y-19197568D01*
X89427359Y-19233101D01*
X89427364Y-19233104D01*
X89449917Y-19243620D01*
X89465677Y-19250969D01*
X89471271Y-19253935D01*
X89508349Y-19276088D01*
X89510236Y-19277215D01*
X89517055Y-19279774D01*
X89568083Y-19298925D01*
X89572503Y-19300782D01*
X89625670Y-19325575D01*
X89625674Y-19325577D01*
X89656069Y-19333720D01*
X89669677Y-19337366D01*
X89675413Y-19339207D01*
X89692264Y-19345531D01*
X89720976Y-19356307D01*
X89778545Y-19366754D01*
X89783511Y-19367868D01*
X89837023Y-19382207D01*
X89885689Y-19386464D01*
X89891306Y-19387218D01*
X89942453Y-19396500D01*
X89997691Y-19396500D01*
X90003092Y-19396735D01*
X90031548Y-19399225D01*
X90054998Y-19401277D01*
X90055000Y-19401277D01*
X90107992Y-19396640D01*
X90111121Y-19396500D01*
X90111155Y-19396500D01*
X90165172Y-19391638D01*
X90272977Y-19382207D01*
X90273000Y-19382200D01*
X90273475Y-19382117D01*
X90278713Y-19381419D01*
X90279188Y-19381377D01*
X90382997Y-19352726D01*
X90484330Y-19325575D01*
X90484337Y-19325571D01*
X90491254Y-19323053D01*
X90495948Y-19321554D01*
X90496170Y-19321493D01*
X90496181Y-19321487D01*
X90496183Y-19321487D01*
X90590454Y-19276088D01*
X90609079Y-19267403D01*
X90682639Y-19233102D01*
X90682644Y-19233097D01*
X90687327Y-19230395D01*
X90687400Y-19230522D01*
X90698164Y-19224218D01*
X90698973Y-19223829D01*
X90781156Y-19164118D01*
X90861877Y-19107598D01*
X90862747Y-19106727D01*
X90877550Y-19094084D01*
X90881078Y-19091522D01*
X90949131Y-19020343D01*
X91016598Y-18952877D01*
X91019285Y-18949039D01*
X91031239Y-18934465D01*
X91036629Y-18928828D01*
X91036628Y-18928828D01*
X91036632Y-18928825D01*
X91089164Y-18849241D01*
X91142102Y-18773639D01*
X91145543Y-18766259D01*
X91154432Y-18750364D01*
X91160635Y-18740968D01*
X91196889Y-18656146D01*
X91234575Y-18575330D01*
X91237570Y-18564148D01*
X91243325Y-18547505D01*
X91249103Y-18533988D01*
X91268936Y-18447092D01*
X91291207Y-18363977D01*
X91292887Y-18344766D01*
X91294206Y-18336377D01*
X91294445Y-18335325D01*
X91299191Y-18314537D01*
X91303050Y-18228602D01*
X91310277Y-18146000D01*
X91308310Y-18123528D01*
X91308137Y-18115334D01*
X91309290Y-18089670D01*
X91298353Y-18008939D01*
X91298034Y-18006067D01*
X91291207Y-17928023D01*
X91284515Y-17903053D01*
X91282963Y-17895322D01*
X91279076Y-17866618D01*
X91279075Y-17866616D01*
X91279075Y-17866613D01*
X91254921Y-17792276D01*
X91253998Y-17789161D01*
X91234576Y-17716673D01*
X91234574Y-17716669D01*
X91222266Y-17690274D01*
X91219488Y-17683222D01*
X91209519Y-17652541D01*
X91209517Y-17652537D01*
X91209517Y-17652536D01*
X91196988Y-17629253D01*
X91174027Y-17586583D01*
X91172432Y-17583405D01*
X91157338Y-17551036D01*
X91142102Y-17518362D01*
X91123512Y-17491813D01*
X91119698Y-17485625D01*
X91114099Y-17475220D01*
X91102852Y-17454319D01*
X91058192Y-17398318D01*
X91055896Y-17395247D01*
X91016598Y-17339123D01*
X90991353Y-17313878D01*
X90986715Y-17308689D01*
X90962508Y-17278334D01*
X90962506Y-17278332D01*
X90911039Y-17233366D01*
X90907990Y-17230515D01*
X90861878Y-17184402D01*
X90829940Y-17162039D01*
X90824705Y-17157939D01*
X90792996Y-17130235D01*
X90792994Y-17130233D01*
X90792992Y-17130232D01*
X90737149Y-17096868D01*
X90733386Y-17094431D01*
X90682641Y-17058899D01*
X90644333Y-17041035D01*
X90638735Y-17038067D01*
X90599769Y-17014787D01*
X90599767Y-17014786D01*
X90541928Y-16993079D01*
X90537515Y-16991226D01*
X90484330Y-16966425D01*
X90440321Y-16954632D01*
X90434581Y-16952790D01*
X90389025Y-16935692D01*
X90331456Y-16925245D01*
X90326480Y-16924128D01*
X90272977Y-16909793D01*
X90224327Y-16905536D01*
X90218659Y-16904775D01*
X90167551Y-16895500D01*
X90167547Y-16895500D01*
X90112309Y-16895500D01*
X90106907Y-16895264D01*
X90078451Y-16892774D01*
X90055002Y-16890723D01*
X90054997Y-16890723D01*
X90002050Y-16895355D01*
X89998862Y-16895499D01*
X89998851Y-16895500D01*
X89998845Y-16895500D01*
X89952671Y-16899655D01*
X89944826Y-16900361D01*
X89837020Y-16909793D01*
X89836468Y-16909891D01*
X89831275Y-16910581D01*
X89830812Y-16910622D01*
X89830809Y-16910623D01*
X89727002Y-16939273D01*
X89625659Y-16966428D01*
X89618739Y-16968946D01*
X89614050Y-16970444D01*
X89613849Y-16970499D01*
X89613832Y-16970505D01*
X89519528Y-17015919D01*
X89427358Y-17058899D01*
X89422670Y-17061606D01*
X89422598Y-17061481D01*
X89411871Y-17067764D01*
X89411030Y-17068168D01*
X89328831Y-17127889D01*
X89248123Y-17184401D01*
X89247241Y-17185284D01*
X89232461Y-17197906D01*
X89228928Y-17200472D01*
X89228916Y-17200483D01*
X89198669Y-17232120D01*
X89160868Y-17271656D01*
X89141938Y-17290586D01*
X89093403Y-17339120D01*
X89093402Y-17339121D01*
X89090711Y-17342965D01*
X89078773Y-17357521D01*
X89073368Y-17363174D01*
X89053546Y-17393203D01*
X89020828Y-17442768D01*
X88983568Y-17495983D01*
X88967898Y-17518362D01*
X88967891Y-17518374D01*
X88964457Y-17525738D01*
X88955572Y-17541628D01*
X88949362Y-17551035D01*
X88949362Y-17551036D01*
X88913108Y-17635859D01*
X88875425Y-17716669D01*
X88875424Y-17716671D01*
X88872425Y-17727860D01*
X88866681Y-17744475D01*
X88860899Y-17758005D01*
X88860896Y-17758016D01*
X88841063Y-17844907D01*
X88818793Y-17928022D01*
X88818793Y-17928023D01*
X88817112Y-17947226D01*
X88815793Y-17955625D01*
X88810809Y-17977459D01*
X88810809Y-17977464D01*
X88806949Y-18063397D01*
X88799723Y-18145996D01*
X88799723Y-18146003D01*
X86460277Y-18146003D01*
X86460277Y-18146000D01*
X86458310Y-18123528D01*
X86458137Y-18115334D01*
X86459290Y-18089670D01*
X86448353Y-18008939D01*
X86448034Y-18006067D01*
X86441207Y-17928023D01*
X86434515Y-17903053D01*
X86432963Y-17895322D01*
X86429076Y-17866618D01*
X86429075Y-17866616D01*
X86429075Y-17866613D01*
X86404921Y-17792276D01*
X86403998Y-17789161D01*
X86384576Y-17716673D01*
X86384574Y-17716669D01*
X86372266Y-17690274D01*
X86369488Y-17683222D01*
X86359519Y-17652541D01*
X86359517Y-17652537D01*
X86359517Y-17652536D01*
X86346988Y-17629253D01*
X86324027Y-17586583D01*
X86322432Y-17583405D01*
X86307338Y-17551036D01*
X86292102Y-17518362D01*
X86273512Y-17491813D01*
X86269698Y-17485625D01*
X86264099Y-17475220D01*
X86252852Y-17454319D01*
X86208192Y-17398318D01*
X86205896Y-17395247D01*
X86166598Y-17339123D01*
X86141353Y-17313878D01*
X86136715Y-17308689D01*
X86112508Y-17278334D01*
X86112506Y-17278332D01*
X86061039Y-17233366D01*
X86057990Y-17230515D01*
X86011878Y-17184402D01*
X85979940Y-17162039D01*
X85974705Y-17157939D01*
X85942996Y-17130235D01*
X85942994Y-17130233D01*
X85942992Y-17130232D01*
X85887149Y-17096868D01*
X85883386Y-17094431D01*
X85832641Y-17058899D01*
X85794333Y-17041035D01*
X85788735Y-17038067D01*
X85749769Y-17014787D01*
X85749767Y-17014786D01*
X85691928Y-16993079D01*
X85687515Y-16991226D01*
X85634330Y-16966425D01*
X85590321Y-16954632D01*
X85584581Y-16952790D01*
X85539025Y-16935692D01*
X85481456Y-16925245D01*
X85476480Y-16924128D01*
X85422977Y-16909793D01*
X85374327Y-16905536D01*
X85368659Y-16904775D01*
X85317551Y-16895500D01*
X85317547Y-16895500D01*
X85262309Y-16895500D01*
X85256907Y-16895264D01*
X85228451Y-16892774D01*
X85205002Y-16890723D01*
X85204997Y-16890723D01*
X85152050Y-16895355D01*
X85148862Y-16895499D01*
X85148851Y-16895500D01*
X85148845Y-16895500D01*
X85102671Y-16899655D01*
X85094826Y-16900361D01*
X84987020Y-16909793D01*
X84986468Y-16909891D01*
X84981275Y-16910581D01*
X84980812Y-16910622D01*
X84980809Y-16910623D01*
X84877002Y-16939273D01*
X84775659Y-16966428D01*
X84768739Y-16968946D01*
X84764050Y-16970444D01*
X84763849Y-16970499D01*
X84763832Y-16970505D01*
X84669528Y-17015919D01*
X84577358Y-17058899D01*
X84572670Y-17061606D01*
X84572598Y-17061481D01*
X84561871Y-17067764D01*
X84561030Y-17068168D01*
X84478831Y-17127889D01*
X84398123Y-17184401D01*
X84397241Y-17185284D01*
X84382461Y-17197906D01*
X84378928Y-17200472D01*
X84378916Y-17200483D01*
X84348669Y-17232120D01*
X84310868Y-17271656D01*
X84291938Y-17290586D01*
X84243403Y-17339120D01*
X84243402Y-17339121D01*
X84240711Y-17342965D01*
X84228773Y-17357521D01*
X84223368Y-17363174D01*
X84203546Y-17393203D01*
X84170828Y-17442768D01*
X84133568Y-17495983D01*
X84117898Y-17518362D01*
X84117891Y-17518374D01*
X84114457Y-17525738D01*
X84105572Y-17541628D01*
X84099362Y-17551035D01*
X84099362Y-17551036D01*
X84063108Y-17635859D01*
X84025425Y-17716669D01*
X84025424Y-17716671D01*
X84022425Y-17727860D01*
X84016681Y-17744475D01*
X84010899Y-17758005D01*
X84010896Y-17758016D01*
X83991063Y-17844907D01*
X83968793Y-17928022D01*
X83968793Y-17928023D01*
X83967112Y-17947226D01*
X83965793Y-17955625D01*
X83960809Y-17977459D01*
X83960809Y-17977464D01*
X83956949Y-18063397D01*
X83949723Y-18145996D01*
X83949723Y-18146003D01*
X79941000Y-18146003D01*
X80013903Y-17989663D01*
X80075063Y-17761408D01*
X80095659Y-17526000D01*
X80093033Y-17495991D01*
X80090621Y-17468420D01*
X80075063Y-17290592D01*
X80023155Y-17096868D01*
X80013905Y-17062344D01*
X80013904Y-17062343D01*
X80013903Y-17062337D01*
X79914035Y-16848171D01*
X79891064Y-16815364D01*
X79778494Y-16654597D01*
X79611402Y-16487506D01*
X79611396Y-16487501D01*
X79425842Y-16357575D01*
X79382217Y-16302998D01*
X79375023Y-16233500D01*
X79406546Y-16171145D01*
X79425842Y-16154425D01*
X79459650Y-16130752D01*
X79611401Y-16024495D01*
X79778495Y-15857401D01*
X79914035Y-15663830D01*
X80013903Y-15449663D01*
X80075063Y-15221408D01*
X80084285Y-15116000D01*
X83499700Y-15116000D01*
X83502359Y-15148097D01*
X83506955Y-15203567D01*
X83510819Y-15294523D01*
X83510820Y-15294534D01*
X83515939Y-15318284D01*
X83517120Y-15326233D01*
X83518865Y-15347301D01*
X83518865Y-15347304D01*
X83518866Y-15347305D01*
X83541205Y-15435520D01*
X83544253Y-15449663D01*
X83561046Y-15527582D01*
X83568883Y-15547084D01*
X83571458Y-15554987D01*
X83575844Y-15572303D01*
X83613655Y-15658504D01*
X83649934Y-15748787D01*
X83649935Y-15748788D01*
X83659232Y-15763888D01*
X83663218Y-15771495D01*
X83669076Y-15784850D01*
X83722275Y-15866277D01*
X83774930Y-15951794D01*
X83781543Y-15959308D01*
X83792263Y-15973402D01*
X83794738Y-15977189D01*
X83796021Y-15979153D01*
X83864027Y-16053028D01*
X83932436Y-16130755D01*
X83937564Y-16134895D01*
X83950882Y-16147377D01*
X83953216Y-16149913D01*
X84034933Y-16213515D01*
X84117920Y-16280523D01*
X84117922Y-16280524D01*
X84120678Y-16282064D01*
X84136360Y-16292460D01*
X84136367Y-16292465D01*
X84136371Y-16292467D01*
X84136374Y-16292470D01*
X84225783Y-16340855D01*
X84230162Y-16343225D01*
X84326046Y-16396790D01*
X84328849Y-16398058D01*
X84335695Y-16401097D01*
X84335794Y-16400873D01*
X84340490Y-16402932D01*
X84340497Y-16402936D01*
X84444276Y-16438563D01*
X84550829Y-16476211D01*
X84551398Y-16476308D01*
X84556129Y-16477312D01*
X84560007Y-16478294D01*
X84560019Y-16478298D01*
X84671324Y-16496871D01*
X84785791Y-16516499D01*
X84785800Y-16516500D01*
X85021044Y-16516500D01*
X85021049Y-16516500D01*
X85054073Y-16510988D01*
X85077469Y-16507085D01*
X85082407Y-16506463D01*
X85142541Y-16501346D01*
X85194615Y-16487786D01*
X85200017Y-16486634D01*
X85249981Y-16478298D01*
X85307186Y-16458658D01*
X85311663Y-16457309D01*
X85373249Y-16441275D01*
X85379249Y-16438563D01*
X85384262Y-16436296D01*
X85419297Y-16420459D01*
X85424681Y-16418322D01*
X85469503Y-16402936D01*
X85525554Y-16372601D01*
X85529527Y-16370632D01*
X85538156Y-16366730D01*
X85590486Y-16343077D01*
X85629647Y-16316608D01*
X85634820Y-16313469D01*
X85673626Y-16292470D01*
X85726532Y-16251290D01*
X85729850Y-16248881D01*
X85788003Y-16209579D01*
X85819770Y-16179131D01*
X85824548Y-16175002D01*
X85856784Y-16149913D01*
X85859109Y-16147388D01*
X85874420Y-16130755D01*
X85904389Y-16098198D01*
X85907101Y-16095432D01*
X85960118Y-16044621D01*
X85984329Y-16011883D01*
X85988540Y-16006785D01*
X86013979Y-15979153D01*
X86054206Y-15917578D01*
X86056241Y-15914652D01*
X86101879Y-15852947D01*
X86118733Y-15819517D01*
X86122170Y-15813552D01*
X86140924Y-15784849D01*
X86171805Y-15714445D01*
X86173174Y-15711538D01*
X86209207Y-15640074D01*
X86219208Y-15607413D01*
X86221701Y-15600694D01*
X86234157Y-15572300D01*
X86253827Y-15494621D01*
X86254635Y-15491732D01*
X86279016Y-15412123D01*
X86282936Y-15381508D01*
X86284330Y-15374170D01*
X86291134Y-15347305D01*
X86298132Y-15262845D01*
X86309298Y-15175654D01*
X86308126Y-15148079D01*
X86308281Y-15140355D01*
X86310300Y-15116000D01*
X88949700Y-15116000D01*
X88952359Y-15148097D01*
X88956955Y-15203567D01*
X88960819Y-15294523D01*
X88960820Y-15294534D01*
X88965939Y-15318284D01*
X88967120Y-15326233D01*
X88968865Y-15347301D01*
X88968865Y-15347304D01*
X88968866Y-15347305D01*
X88991205Y-15435520D01*
X88994253Y-15449663D01*
X89011046Y-15527582D01*
X89018883Y-15547084D01*
X89021458Y-15554987D01*
X89025844Y-15572303D01*
X89063655Y-15658504D01*
X89099934Y-15748787D01*
X89099935Y-15748788D01*
X89109232Y-15763888D01*
X89113218Y-15771495D01*
X89119076Y-15784850D01*
X89172275Y-15866277D01*
X89224930Y-15951794D01*
X89231543Y-15959308D01*
X89242263Y-15973402D01*
X89244738Y-15977189D01*
X89246021Y-15979153D01*
X89314027Y-16053028D01*
X89382436Y-16130755D01*
X89387564Y-16134895D01*
X89400882Y-16147377D01*
X89403216Y-16149913D01*
X89484933Y-16213515D01*
X89567920Y-16280523D01*
X89567922Y-16280524D01*
X89570678Y-16282064D01*
X89586360Y-16292460D01*
X89586367Y-16292465D01*
X89586371Y-16292467D01*
X89586374Y-16292470D01*
X89675783Y-16340855D01*
X89680162Y-16343225D01*
X89776046Y-16396790D01*
X89778849Y-16398058D01*
X89785695Y-16401097D01*
X89785794Y-16400873D01*
X89790490Y-16402932D01*
X89790497Y-16402936D01*
X89894276Y-16438563D01*
X90000829Y-16476211D01*
X90001398Y-16476308D01*
X90006129Y-16477312D01*
X90010007Y-16478294D01*
X90010019Y-16478298D01*
X90121324Y-16496871D01*
X90235791Y-16516499D01*
X90235800Y-16516500D01*
X90471044Y-16516500D01*
X90471049Y-16516500D01*
X90504073Y-16510988D01*
X90527469Y-16507085D01*
X90532407Y-16506463D01*
X90592541Y-16501346D01*
X90644615Y-16487786D01*
X90650017Y-16486634D01*
X90699981Y-16478298D01*
X90757186Y-16458658D01*
X90761663Y-16457309D01*
X90823249Y-16441275D01*
X90829249Y-16438563D01*
X90834262Y-16436296D01*
X90869297Y-16420459D01*
X90874681Y-16418322D01*
X90919503Y-16402936D01*
X90975554Y-16372601D01*
X90979527Y-16370632D01*
X90988156Y-16366730D01*
X91040486Y-16343077D01*
X91079647Y-16316608D01*
X91084820Y-16313469D01*
X91123626Y-16292470D01*
X91176532Y-16251290D01*
X91179850Y-16248881D01*
X91238003Y-16209579D01*
X91269770Y-16179131D01*
X91274548Y-16175002D01*
X91306784Y-16149913D01*
X91309109Y-16147388D01*
X91324420Y-16130755D01*
X91354389Y-16098198D01*
X91357101Y-16095432D01*
X91410118Y-16044621D01*
X91434329Y-16011883D01*
X91438540Y-16006785D01*
X91463979Y-15979153D01*
X91504206Y-15917578D01*
X91506241Y-15914652D01*
X91551879Y-15852947D01*
X91568733Y-15819517D01*
X91572170Y-15813552D01*
X91590924Y-15784849D01*
X91621805Y-15714445D01*
X91623174Y-15711538D01*
X91659207Y-15640074D01*
X91669208Y-15607413D01*
X91671701Y-15600694D01*
X91684157Y-15572300D01*
X91703827Y-15494621D01*
X91704635Y-15491732D01*
X91729016Y-15412123D01*
X91732936Y-15381508D01*
X91734330Y-15374170D01*
X91741134Y-15347305D01*
X91748132Y-15262845D01*
X91759298Y-15175654D01*
X91758126Y-15148079D01*
X91758281Y-15140355D01*
X91760300Y-15116000D01*
X91757962Y-15087788D01*
X91753044Y-15028432D01*
X91749180Y-14937468D01*
X91744059Y-14913709D01*
X91742879Y-14905762D01*
X91741134Y-14884695D01*
X91741133Y-14884692D01*
X91741133Y-14884688D01*
X91718794Y-14796480D01*
X91718794Y-14796479D01*
X91698954Y-14704419D01*
X91691115Y-14684912D01*
X91688541Y-14677015D01*
X91684157Y-14659700D01*
X91646344Y-14573495D01*
X91610064Y-14483210D01*
X91600768Y-14468112D01*
X91596779Y-14460500D01*
X91590924Y-14447151D01*
X91537724Y-14365721D01*
X91485071Y-14280208D01*
X91485070Y-14280207D01*
X91485069Y-14280205D01*
X91478451Y-14272686D01*
X91467727Y-14258584D01*
X91463978Y-14252845D01*
X91395972Y-14178971D01*
X91327565Y-14101246D01*
X91322439Y-14097107D01*
X91309117Y-14084621D01*
X91306785Y-14082088D01*
X91306783Y-14082086D01*
X91225066Y-14018484D01*
X91142080Y-13951477D01*
X91142073Y-13951472D01*
X91139311Y-13949929D01*
X91123643Y-13939542D01*
X91123634Y-13939535D01*
X91123628Y-13939532D01*
X91123626Y-13939530D01*
X91029837Y-13888774D01*
X90933954Y-13835210D01*
X90933953Y-13835209D01*
X90933952Y-13835209D01*
X90931381Y-13834047D01*
X90924284Y-13830898D01*
X90924188Y-13831119D01*
X90919506Y-13829065D01*
X90815723Y-13793436D01*
X90709168Y-13755788D01*
X90709160Y-13755786D01*
X90708612Y-13755692D01*
X90703889Y-13754691D01*
X90699989Y-13753703D01*
X90588675Y-13735128D01*
X90474209Y-13715500D01*
X90474200Y-13715500D01*
X90471049Y-13715500D01*
X90238951Y-13715500D01*
X90238950Y-13715500D01*
X90182533Y-13724913D01*
X90177587Y-13725535D01*
X90175099Y-13725747D01*
X90117469Y-13730652D01*
X90117461Y-13730653D01*
X90065397Y-13744208D01*
X90059981Y-13745363D01*
X90010013Y-13753703D01*
X89952840Y-13773331D01*
X89948330Y-13774690D01*
X89886749Y-13790725D01*
X89886744Y-13790727D01*
X89840711Y-13811535D01*
X89835304Y-13813680D01*
X89790503Y-13829060D01*
X89790498Y-13829063D01*
X89734448Y-13859395D01*
X89730478Y-13861363D01*
X89669514Y-13888922D01*
X89630359Y-13915385D01*
X89625149Y-13918544D01*
X89586379Y-13939526D01*
X89586367Y-13939533D01*
X89533487Y-13980692D01*
X89530124Y-13983133D01*
X89472001Y-14022417D01*
X89471994Y-14022422D01*
X89440248Y-14052847D01*
X89435430Y-14057011D01*
X89403218Y-14082085D01*
X89403209Y-14082093D01*
X89355613Y-14133795D01*
X89352900Y-14136564D01*
X89299882Y-14187378D01*
X89299880Y-14187380D01*
X89275681Y-14220098D01*
X89271448Y-14225223D01*
X89246022Y-14252845D01*
X89205797Y-14314412D01*
X89203741Y-14317367D01*
X89158124Y-14379047D01*
X89158120Y-14379054D01*
X89141268Y-14412475D01*
X89137811Y-14418472D01*
X89119076Y-14447149D01*
X89088219Y-14517496D01*
X89086803Y-14520503D01*
X89050790Y-14591931D01*
X89040792Y-14624573D01*
X89038288Y-14631323D01*
X89025845Y-14659691D01*
X89025845Y-14659692D01*
X89006178Y-14737347D01*
X89005358Y-14740279D01*
X88980984Y-14819876D01*
X88980983Y-14819879D01*
X88977063Y-14850485D01*
X88975668Y-14857830D01*
X88968867Y-14884688D01*
X88968864Y-14884705D01*
X88961867Y-14969154D01*
X88950702Y-15056344D01*
X88950701Y-15056344D01*
X88951872Y-15083900D01*
X88951716Y-15091655D01*
X88949700Y-15115995D01*
X88949700Y-15116000D01*
X86310300Y-15116000D01*
X86307962Y-15087788D01*
X86303044Y-15028432D01*
X86299180Y-14937468D01*
X86294059Y-14913709D01*
X86292879Y-14905762D01*
X86291134Y-14884695D01*
X86291133Y-14884692D01*
X86291133Y-14884688D01*
X86268794Y-14796480D01*
X86268794Y-14796479D01*
X86248954Y-14704419D01*
X86241115Y-14684912D01*
X86238541Y-14677015D01*
X86234157Y-14659700D01*
X86196344Y-14573495D01*
X86160064Y-14483210D01*
X86150768Y-14468112D01*
X86146779Y-14460500D01*
X86140924Y-14447151D01*
X86087724Y-14365721D01*
X86035071Y-14280208D01*
X86035070Y-14280207D01*
X86035069Y-14280205D01*
X86028451Y-14272686D01*
X86017727Y-14258584D01*
X86013978Y-14252845D01*
X85945972Y-14178971D01*
X85877565Y-14101246D01*
X85872439Y-14097107D01*
X85859117Y-14084621D01*
X85856785Y-14082088D01*
X85856783Y-14082086D01*
X85775066Y-14018484D01*
X85692080Y-13951477D01*
X85692073Y-13951472D01*
X85689311Y-13949929D01*
X85673643Y-13939542D01*
X85673634Y-13939535D01*
X85673628Y-13939532D01*
X85673626Y-13939530D01*
X85579837Y-13888774D01*
X85483954Y-13835210D01*
X85483953Y-13835209D01*
X85483952Y-13835209D01*
X85481381Y-13834047D01*
X85474284Y-13830898D01*
X85474188Y-13831119D01*
X85469506Y-13829065D01*
X85365723Y-13793436D01*
X85259168Y-13755788D01*
X85259160Y-13755786D01*
X85258612Y-13755692D01*
X85253889Y-13754691D01*
X85249989Y-13753703D01*
X85138675Y-13735128D01*
X85024209Y-13715500D01*
X85024200Y-13715500D01*
X85021049Y-13715500D01*
X84788951Y-13715500D01*
X84788950Y-13715500D01*
X84732533Y-13724913D01*
X84727587Y-13725535D01*
X84725099Y-13725747D01*
X84667469Y-13730652D01*
X84667461Y-13730653D01*
X84615397Y-13744208D01*
X84609981Y-13745363D01*
X84560013Y-13753703D01*
X84502840Y-13773331D01*
X84498330Y-13774690D01*
X84436749Y-13790725D01*
X84436744Y-13790727D01*
X84390711Y-13811535D01*
X84385304Y-13813680D01*
X84340503Y-13829060D01*
X84340498Y-13829063D01*
X84284448Y-13859395D01*
X84280478Y-13861363D01*
X84219514Y-13888922D01*
X84180359Y-13915385D01*
X84175149Y-13918544D01*
X84136379Y-13939526D01*
X84136367Y-13939533D01*
X84083487Y-13980692D01*
X84080124Y-13983133D01*
X84022001Y-14022417D01*
X84021994Y-14022422D01*
X83990248Y-14052847D01*
X83985430Y-14057011D01*
X83953218Y-14082085D01*
X83953209Y-14082093D01*
X83905613Y-14133795D01*
X83902900Y-14136564D01*
X83849882Y-14187378D01*
X83849880Y-14187380D01*
X83825681Y-14220098D01*
X83821448Y-14225223D01*
X83796022Y-14252845D01*
X83755797Y-14314412D01*
X83753741Y-14317367D01*
X83708124Y-14379047D01*
X83708120Y-14379054D01*
X83691268Y-14412475D01*
X83687811Y-14418472D01*
X83669076Y-14447149D01*
X83638219Y-14517496D01*
X83636803Y-14520503D01*
X83600790Y-14591931D01*
X83590792Y-14624573D01*
X83588288Y-14631323D01*
X83575845Y-14659691D01*
X83575845Y-14659692D01*
X83556178Y-14737347D01*
X83555358Y-14740279D01*
X83530984Y-14819876D01*
X83530983Y-14819879D01*
X83527063Y-14850485D01*
X83525668Y-14857830D01*
X83518867Y-14884688D01*
X83518864Y-14884705D01*
X83511867Y-14969154D01*
X83500702Y-15056344D01*
X83500701Y-15056344D01*
X83501872Y-15083900D01*
X83501716Y-15091655D01*
X83499700Y-15115995D01*
X83499700Y-15116000D01*
X80084285Y-15116000D01*
X80095659Y-14986000D01*
X80075063Y-14750592D01*
X80013903Y-14522337D01*
X79914035Y-14308171D01*
X79894456Y-14280208D01*
X79778494Y-14114597D01*
X79611402Y-13947506D01*
X79611395Y-13947501D01*
X79608297Y-13945332D01*
X79570040Y-13918544D01*
X79417834Y-13811967D01*
X79417830Y-13811965D01*
X79416908Y-13811535D01*
X79203663Y-13712097D01*
X79203659Y-13712096D01*
X79203655Y-13712094D01*
X78975413Y-13650938D01*
X78975403Y-13650936D01*
X78740001Y-13630341D01*
X78739999Y-13630341D01*
X78504596Y-13650936D01*
X78504586Y-13650938D01*
X78276344Y-13712094D01*
X78276335Y-13712098D01*
X78062171Y-13811964D01*
X78062169Y-13811965D01*
X77868597Y-13947505D01*
X77701505Y-14114597D01*
X77565965Y-14308169D01*
X77565964Y-14308171D01*
X77466098Y-14522335D01*
X77466094Y-14522344D01*
X77404938Y-14750586D01*
X77404936Y-14750596D01*
X77384341Y-14985999D01*
X77384341Y-14986000D01*
X77404936Y-15221403D01*
X77404938Y-15221413D01*
X77466094Y-15449655D01*
X77466096Y-15449659D01*
X77466097Y-15449663D01*
X77513328Y-15550949D01*
X77565965Y-15663830D01*
X77565967Y-15663834D01*
X77701501Y-15857395D01*
X77701506Y-15857402D01*
X77868597Y-16024493D01*
X77868603Y-16024498D01*
X78054158Y-16154425D01*
X78097783Y-16209002D01*
X78104977Y-16278500D01*
X78073454Y-16340855D01*
X78054158Y-16357575D01*
X77868597Y-16487505D01*
X77701505Y-16654597D01*
X77565965Y-16848169D01*
X77565964Y-16848171D01*
X77466098Y-17062335D01*
X77466094Y-17062344D01*
X77404938Y-17290586D01*
X77404936Y-17290596D01*
X77384341Y-17525999D01*
X77384341Y-17526000D01*
X77404936Y-17761403D01*
X77404938Y-17761413D01*
X77466094Y-17989655D01*
X77466096Y-17989659D01*
X77466097Y-17989663D01*
X77553295Y-18176660D01*
X77565965Y-18203830D01*
X77565967Y-18203834D01*
X77621422Y-18283031D01*
X77701501Y-18397396D01*
X77701506Y-18397402D01*
X77823818Y-18519714D01*
X77857303Y-18581037D01*
X77852319Y-18650729D01*
X77810447Y-18706662D01*
X77779471Y-18723577D01*
X77647912Y-18772646D01*
X77647906Y-18772649D01*
X77532812Y-18858809D01*
X77532809Y-18858812D01*
X77446649Y-18973906D01*
X77446645Y-18973913D01*
X77396403Y-19108620D01*
X77396401Y-19108627D01*
X77390000Y-19168155D01*
X77390000Y-19816000D01*
X78294428Y-19816000D01*
X78271318Y-19851960D01*
X78230000Y-19992673D01*
X78230000Y-20139327D01*
X78271318Y-20280040D01*
X78294428Y-20316000D01*
X77390000Y-20316000D01*
X77390000Y-20963844D01*
X77396401Y-21023372D01*
X77396403Y-21023379D01*
X77446645Y-21158086D01*
X77446649Y-21158093D01*
X77532809Y-21273187D01*
X77532812Y-21273190D01*
X77647906Y-21359350D01*
X77647913Y-21359354D01*
X77779470Y-21408421D01*
X77835403Y-21450292D01*
X77859821Y-21515756D01*
X77844970Y-21584029D01*
X77823819Y-21612284D01*
X77701503Y-21734600D01*
X77565965Y-21928169D01*
X77565964Y-21928171D01*
X77466098Y-22142335D01*
X77466094Y-22142344D01*
X77404938Y-22370586D01*
X77404936Y-22370596D01*
X77384341Y-22605999D01*
X77384341Y-22606000D01*
X77404936Y-22841403D01*
X77404938Y-22841413D01*
X77466094Y-23069655D01*
X77466096Y-23069659D01*
X77466097Y-23069663D01*
X77565965Y-23283830D01*
X77565967Y-23283834D01*
X77701501Y-23477395D01*
X77701506Y-23477402D01*
X77868597Y-23644493D01*
X77868603Y-23644498D01*
X78054158Y-23774425D01*
X78097783Y-23829002D01*
X78104977Y-23898500D01*
X78073454Y-23960855D01*
X78054158Y-23977575D01*
X77868597Y-24107505D01*
X77701505Y-24274597D01*
X77565965Y-24468169D01*
X77565964Y-24468171D01*
X77466098Y-24682335D01*
X77466094Y-24682344D01*
X77404938Y-24910586D01*
X77404936Y-24910596D01*
X77384341Y-25145999D01*
X77384341Y-25146000D01*
X77404936Y-25381403D01*
X77404938Y-25381413D01*
X77466094Y-25609655D01*
X77466096Y-25609659D01*
X77466097Y-25609663D01*
X77565965Y-25823830D01*
X77565967Y-25823834D01*
X77701501Y-26017395D01*
X77701506Y-26017402D01*
X77868597Y-26184493D01*
X77868603Y-26184498D01*
X78054158Y-26314425D01*
X78097783Y-26369002D01*
X78104977Y-26438500D01*
X78073454Y-26500855D01*
X78054158Y-26517575D01*
X77868597Y-26647505D01*
X77701505Y-26814597D01*
X77565965Y-27008169D01*
X77565964Y-27008171D01*
X77466098Y-27222335D01*
X77466094Y-27222344D01*
X77404938Y-27450586D01*
X77404936Y-27450596D01*
X77384341Y-27685999D01*
X77384341Y-27686000D01*
X77404936Y-27921403D01*
X77404938Y-27921413D01*
X77466094Y-28149655D01*
X77466096Y-28149659D01*
X77466097Y-28149663D01*
X77470057Y-28158155D01*
X77565965Y-28363830D01*
X77565967Y-28363834D01*
X77660819Y-28499295D01*
X77682295Y-28529967D01*
X77701501Y-28557395D01*
X77701506Y-28557402D01*
X77868597Y-28724493D01*
X77868603Y-28724498D01*
X78054158Y-28854425D01*
X78097783Y-28909002D01*
X78104977Y-28978500D01*
X78073454Y-29040855D01*
X78054158Y-29057575D01*
X77868597Y-29187505D01*
X77701505Y-29354597D01*
X77565965Y-29548169D01*
X77565964Y-29548171D01*
X77466098Y-29762335D01*
X77466094Y-29762344D01*
X77404938Y-29990586D01*
X77404936Y-29990596D01*
X77384341Y-30225999D01*
X77384341Y-30226000D01*
X77404936Y-30461403D01*
X77404938Y-30461413D01*
X77466094Y-30689655D01*
X77466096Y-30689659D01*
X77466097Y-30689663D01*
X77537724Y-30843267D01*
X77565965Y-30903830D01*
X77565967Y-30903834D01*
X77667966Y-31049502D01*
X77701501Y-31097396D01*
X77701506Y-31097402D01*
X77823818Y-31219714D01*
X77857303Y-31281037D01*
X77852319Y-31350729D01*
X77810447Y-31406662D01*
X77779471Y-31423577D01*
X77647912Y-31472646D01*
X77647906Y-31472649D01*
X77532812Y-31558809D01*
X77532809Y-31558812D01*
X77446649Y-31673906D01*
X77446645Y-31673913D01*
X77396403Y-31808620D01*
X77396401Y-31808627D01*
X77390000Y-31868155D01*
X77390000Y-32516000D01*
X78294428Y-32516000D01*
X78271318Y-32551960D01*
X78230000Y-32692673D01*
X78230000Y-32839327D01*
X78271318Y-32980040D01*
X78294428Y-33016000D01*
X77390000Y-33016000D01*
X77390000Y-33663844D01*
X77396401Y-33723372D01*
X77396403Y-33723379D01*
X77446645Y-33858086D01*
X77446649Y-33858093D01*
X77532809Y-33973187D01*
X77532812Y-33973190D01*
X77647906Y-34059350D01*
X77647913Y-34059354D01*
X77779470Y-34108421D01*
X77835403Y-34150292D01*
X77859821Y-34215756D01*
X77844970Y-34284029D01*
X77823819Y-34312284D01*
X77701503Y-34434600D01*
X77565965Y-34628169D01*
X77565964Y-34628171D01*
X77466098Y-34842335D01*
X77466094Y-34842344D01*
X77404938Y-35070586D01*
X77404936Y-35070596D01*
X77384341Y-35305999D01*
X77384341Y-35306000D01*
X77404936Y-35541403D01*
X77404938Y-35541413D01*
X77466094Y-35769655D01*
X77466096Y-35769659D01*
X77466097Y-35769663D01*
X77537724Y-35923267D01*
X77565965Y-35983830D01*
X77565967Y-35983834D01*
X77701501Y-36177395D01*
X77701506Y-36177402D01*
X77868597Y-36344493D01*
X77868603Y-36344498D01*
X78054158Y-36474425D01*
X78097783Y-36529002D01*
X78104977Y-36598500D01*
X78073454Y-36660855D01*
X78054158Y-36677575D01*
X77868597Y-36807505D01*
X77701505Y-36974597D01*
X77565965Y-37168169D01*
X77565964Y-37168171D01*
X77466098Y-37382335D01*
X77466094Y-37382344D01*
X77404938Y-37610586D01*
X77404936Y-37610596D01*
X77384341Y-37845999D01*
X77384341Y-37846000D01*
X77404936Y-38081403D01*
X77404938Y-38081413D01*
X77466094Y-38309655D01*
X77466096Y-38309659D01*
X77466097Y-38309663D01*
X77470057Y-38318155D01*
X77565965Y-38523830D01*
X77565967Y-38523834D01*
X77660819Y-38659295D01*
X77682295Y-38689967D01*
X77701501Y-38717395D01*
X77701506Y-38717402D01*
X77868597Y-38884493D01*
X77868603Y-38884498D01*
X78054158Y-39014425D01*
X78097783Y-39069002D01*
X78104977Y-39138500D01*
X78073454Y-39200855D01*
X78054158Y-39217575D01*
X77868597Y-39347505D01*
X77701505Y-39514597D01*
X77565965Y-39708169D01*
X77565964Y-39708171D01*
X77466098Y-39922335D01*
X77466094Y-39922344D01*
X77404938Y-40150586D01*
X77404936Y-40150596D01*
X77384341Y-40385999D01*
X77384341Y-40386000D01*
X77404936Y-40621403D01*
X77404938Y-40621413D01*
X77466094Y-40849655D01*
X77466096Y-40849659D01*
X77466097Y-40849663D01*
X77537724Y-41003267D01*
X77565965Y-41063830D01*
X77565967Y-41063834D01*
X77701501Y-41257395D01*
X77701506Y-41257402D01*
X77868597Y-41424493D01*
X77868603Y-41424498D01*
X78054158Y-41554425D01*
X78097783Y-41609002D01*
X78104977Y-41678500D01*
X78073454Y-41740855D01*
X78054158Y-41757575D01*
X77868597Y-41887505D01*
X77701505Y-42054597D01*
X77565965Y-42248169D01*
X77565964Y-42248171D01*
X77466098Y-42462335D01*
X77466094Y-42462344D01*
X77404938Y-42690586D01*
X77404936Y-42690596D01*
X77384341Y-42925999D01*
X77384341Y-42926000D01*
X77404936Y-43161403D01*
X77404938Y-43161413D01*
X77466094Y-43389655D01*
X77466096Y-43389659D01*
X77466097Y-43389663D01*
X77470057Y-43398155D01*
X77565965Y-43603830D01*
X77565967Y-43603834D01*
X77674281Y-43758521D01*
X77701501Y-43797396D01*
X77701506Y-43797402D01*
X77823818Y-43919714D01*
X77857303Y-43981037D01*
X77852319Y-44050729D01*
X77810447Y-44106662D01*
X77779471Y-44123577D01*
X77647912Y-44172646D01*
X77647906Y-44172649D01*
X77532812Y-44258809D01*
X77532809Y-44258812D01*
X77446649Y-44373906D01*
X77446645Y-44373913D01*
X77396403Y-44508620D01*
X77396401Y-44508627D01*
X77390000Y-44568155D01*
X77390000Y-45216000D01*
X78294428Y-45216000D01*
X78271318Y-45251960D01*
X78230000Y-45392673D01*
X78230000Y-45539327D01*
X78271318Y-45680040D01*
X78294428Y-45716000D01*
X77390000Y-45716000D01*
X77390000Y-46363844D01*
X77396401Y-46423372D01*
X77396403Y-46423379D01*
X77446645Y-46558086D01*
X77446649Y-46558093D01*
X77532809Y-46673187D01*
X77532812Y-46673190D01*
X77647906Y-46759350D01*
X77647913Y-46759354D01*
X77779470Y-46808421D01*
X77835403Y-46850292D01*
X77859821Y-46915756D01*
X77844970Y-46984029D01*
X77823819Y-47012284D01*
X77701503Y-47134600D01*
X77565965Y-47328169D01*
X77565964Y-47328171D01*
X77466098Y-47542335D01*
X77466094Y-47542344D01*
X77404938Y-47770586D01*
X77404936Y-47770596D01*
X77384341Y-48005999D01*
X77384341Y-48006000D01*
X77404936Y-48241403D01*
X77404938Y-48241413D01*
X77466094Y-48469655D01*
X77466096Y-48469659D01*
X77466097Y-48469663D01*
X77470057Y-48478155D01*
X77565965Y-48683830D01*
X77565967Y-48683834D01*
X77660819Y-48819295D01*
X77682295Y-48849967D01*
X77701501Y-48877395D01*
X77701506Y-48877402D01*
X77868597Y-49044493D01*
X77868603Y-49044498D01*
X78054158Y-49174425D01*
X78097783Y-49229002D01*
X78104977Y-49298500D01*
X78073454Y-49360855D01*
X78054158Y-49377575D01*
X77868597Y-49507505D01*
X77701505Y-49674597D01*
X77565965Y-49868169D01*
X77565964Y-49868171D01*
X77466098Y-50082335D01*
X77466094Y-50082344D01*
X77404938Y-50310586D01*
X77404936Y-50310596D01*
X77384341Y-50545999D01*
X77384341Y-50546000D01*
X77404936Y-50781403D01*
X77404938Y-50781413D01*
X77466094Y-51009655D01*
X77466096Y-51009659D01*
X77466097Y-51009663D01*
X77537724Y-51163267D01*
X77565965Y-51223830D01*
X77565967Y-51223834D01*
X77701501Y-51417395D01*
X77701506Y-51417402D01*
X77868597Y-51584493D01*
X77868603Y-51584498D01*
X78054158Y-51714425D01*
X78097783Y-51769002D01*
X78104977Y-51838500D01*
X78073454Y-51900855D01*
X78054158Y-51917575D01*
X77868597Y-52047505D01*
X77701505Y-52214597D01*
X77565965Y-52408169D01*
X77565964Y-52408171D01*
X77466098Y-52622335D01*
X77466094Y-52622344D01*
X77404938Y-52850586D01*
X77404936Y-52850596D01*
X77384341Y-53085999D01*
X77384341Y-53086000D01*
X77404936Y-53321403D01*
X77404938Y-53321413D01*
X77466094Y-53549655D01*
X77466096Y-53549659D01*
X77466097Y-53549663D01*
X77470057Y-53558155D01*
X77565965Y-53763830D01*
X77565967Y-53763834D01*
X77674281Y-53918521D01*
X77682295Y-53929967D01*
X77701501Y-53957395D01*
X77701506Y-53957402D01*
X77868597Y-54124493D01*
X77868603Y-54124498D01*
X78054158Y-54254425D01*
X78097783Y-54309002D01*
X78104977Y-54378500D01*
X78073454Y-54440855D01*
X78054158Y-54457575D01*
X77868597Y-54587505D01*
X77701505Y-54754597D01*
X77565965Y-54948169D01*
X77565964Y-54948171D01*
X77466098Y-55162335D01*
X77466094Y-55162344D01*
X77404938Y-55390586D01*
X77404936Y-55390596D01*
X77384341Y-55625999D01*
X77384341Y-55626000D01*
X77404936Y-55861403D01*
X77404938Y-55861413D01*
X77466094Y-56089655D01*
X77466096Y-56089659D01*
X77466097Y-56089663D01*
X77537724Y-56243267D01*
X77565965Y-56303830D01*
X77565967Y-56303834D01*
X77667966Y-56449502D01*
X77701501Y-56497396D01*
X77701506Y-56497402D01*
X77823818Y-56619714D01*
X77857303Y-56681037D01*
X77852319Y-56750729D01*
X77810447Y-56806662D01*
X77779471Y-56823577D01*
X77647912Y-56872646D01*
X77647906Y-56872649D01*
X77532812Y-56958809D01*
X77532809Y-56958812D01*
X77446649Y-57073906D01*
X77446645Y-57073913D01*
X77396403Y-57208620D01*
X77396401Y-57208627D01*
X77390000Y-57268155D01*
X77390000Y-57916000D01*
X78294428Y-57916000D01*
X78271318Y-57951960D01*
X78230000Y-58092673D01*
X78230000Y-58239327D01*
X78271318Y-58380040D01*
X78294428Y-58416000D01*
X77390000Y-58416000D01*
X77390000Y-59063844D01*
X77396401Y-59123372D01*
X77396403Y-59123379D01*
X77446645Y-59258086D01*
X77446649Y-59258093D01*
X77532809Y-59373187D01*
X77532812Y-59373190D01*
X77647906Y-59459350D01*
X77647913Y-59459354D01*
X77779470Y-59508421D01*
X77835403Y-59550292D01*
X77859821Y-59615756D01*
X77844970Y-59684029D01*
X77823819Y-59712284D01*
X77701503Y-59834600D01*
X77565965Y-60028169D01*
X77565964Y-60028171D01*
X77466098Y-60242335D01*
X77466094Y-60242344D01*
X77404938Y-60470586D01*
X77404936Y-60470596D01*
X77384341Y-60705999D01*
X77384341Y-60706000D01*
X77404936Y-60941403D01*
X77404938Y-60941413D01*
X77466094Y-61169655D01*
X77466096Y-61169659D01*
X77466097Y-61169663D01*
X77537724Y-61323267D01*
X77565965Y-61383830D01*
X77565967Y-61383834D01*
X77701501Y-61577395D01*
X77701506Y-61577402D01*
X77868597Y-61744493D01*
X77868603Y-61744498D01*
X78054158Y-61874425D01*
X78097783Y-61929002D01*
X78104977Y-61998500D01*
X78073454Y-62060855D01*
X78054158Y-62077575D01*
X77868597Y-62207505D01*
X77701505Y-62374597D01*
X77565965Y-62568169D01*
X77565964Y-62568171D01*
X77466098Y-62782335D01*
X77466094Y-62782344D01*
X77404938Y-63010586D01*
X77404936Y-63010596D01*
X77384341Y-63245999D01*
X77384341Y-63246000D01*
X71405043Y-63246000D01*
X71566496Y-63202739D01*
X71772734Y-63106568D01*
X71959139Y-62976047D01*
X72120047Y-62815139D01*
X72250568Y-62628734D01*
X72346739Y-62422496D01*
X72405635Y-62202692D01*
X72425468Y-61976000D01*
X72405635Y-61749308D01*
X72346739Y-61529504D01*
X72250568Y-61323266D01*
X72120047Y-61136861D01*
X72120045Y-61136858D01*
X71959141Y-60975954D01*
X71772734Y-60845432D01*
X71772732Y-60845431D01*
X71566497Y-60749261D01*
X71566488Y-60749258D01*
X71346697Y-60690366D01*
X71346693Y-60690365D01*
X71346692Y-60690365D01*
X71346691Y-60690364D01*
X71346686Y-60690364D01*
X71120002Y-60670532D01*
X71119998Y-60670532D01*
X70893313Y-60690364D01*
X70893302Y-60690366D01*
X70673511Y-60749258D01*
X70673502Y-60749261D01*
X70467267Y-60845431D01*
X70467265Y-60845432D01*
X70280858Y-60975954D01*
X70119954Y-61136858D01*
X69989432Y-61323265D01*
X69989431Y-61323267D01*
X69893261Y-61529502D01*
X69893258Y-61529511D01*
X69834366Y-61749302D01*
X69834364Y-61749313D01*
X69814532Y-61975998D01*
X69814532Y-61976001D01*
X62265468Y-61976001D01*
X62265468Y-61976000D01*
X62245635Y-61749308D01*
X62186739Y-61529504D01*
X62090568Y-61323266D01*
X61960047Y-61136861D01*
X61960045Y-61136858D01*
X61799141Y-60975954D01*
X61612734Y-60845432D01*
X61612732Y-60845431D01*
X61406497Y-60749261D01*
X61406488Y-60749258D01*
X61186697Y-60690366D01*
X61186693Y-60690365D01*
X61186692Y-60690365D01*
X61186691Y-60690364D01*
X61186686Y-60690364D01*
X60960002Y-60670532D01*
X60959998Y-60670532D01*
X60733313Y-60690364D01*
X60733302Y-60690366D01*
X60513511Y-60749258D01*
X60513502Y-60749261D01*
X60307267Y-60845431D01*
X60307265Y-60845432D01*
X60120858Y-60975954D01*
X59959954Y-61136858D01*
X59829432Y-61323265D01*
X59829431Y-61323267D01*
X59733261Y-61529502D01*
X59733258Y-61529511D01*
X59674366Y-61749302D01*
X59674364Y-61749313D01*
X59654532Y-61975998D01*
X59654532Y-61976001D01*
X12700500Y-61976001D01*
X12700500Y-58135996D01*
X18969500Y-58135996D01*
X18969501Y-59686000D01*
X18969501Y-59686018D01*
X18980000Y-59788796D01*
X18980001Y-59788799D01*
X19025894Y-59927294D01*
X19035186Y-59955334D01*
X19127288Y-60104656D01*
X19251344Y-60228712D01*
X19400666Y-60320814D01*
X19567203Y-60375999D01*
X19669991Y-60386500D01*
X20970008Y-60386499D01*
X21072797Y-60375999D01*
X21239334Y-60320814D01*
X21388656Y-60228712D01*
X21512712Y-60104656D01*
X21604814Y-59955334D01*
X21604814Y-59955331D01*
X21608178Y-59949879D01*
X21660126Y-59903154D01*
X21729088Y-59891931D01*
X21793170Y-59919774D01*
X21801398Y-59927294D01*
X21948599Y-60074495D01*
X21991675Y-60104657D01*
X22142165Y-60210032D01*
X22142167Y-60210033D01*
X22142170Y-60210035D01*
X22356337Y-60309903D01*
X22584592Y-60371063D01*
X22761034Y-60386500D01*
X22819999Y-60391659D01*
X22820000Y-60391659D01*
X22820001Y-60391659D01*
X22878966Y-60386500D01*
X23055408Y-60371063D01*
X23283663Y-60309903D01*
X23497829Y-60210035D01*
X23691401Y-60074495D01*
X23858495Y-59907401D01*
X23968732Y-59749965D01*
X24023306Y-59706342D01*
X24092805Y-59699148D01*
X24155159Y-59730670D01*
X24171880Y-59749967D01*
X24281886Y-59907073D01*
X24281891Y-59907079D01*
X24448917Y-60074105D01*
X24642421Y-60209600D01*
X24856507Y-60309429D01*
X24856516Y-60309433D01*
X25070000Y-60366634D01*
X25070000Y-59319018D01*
X25184801Y-59371446D01*
X25286025Y-59386000D01*
X25353975Y-59386000D01*
X25455199Y-59371446D01*
X25570000Y-59319018D01*
X25570000Y-60366634D01*
X25783483Y-60309433D01*
X25783492Y-60309429D01*
X25997577Y-60209600D01*
X25997579Y-60209599D01*
X26191073Y-60074113D01*
X26191079Y-60074108D01*
X26358108Y-59907079D01*
X26358113Y-59907073D01*
X26493599Y-59713579D01*
X26493600Y-59713577D01*
X26593429Y-59499492D01*
X26593433Y-59499483D01*
X26654567Y-59271326D01*
X26654569Y-59271316D01*
X26664221Y-59161000D01*
X25723969Y-59161000D01*
X25756519Y-59110351D01*
X25795000Y-58979295D01*
X25795000Y-58842705D01*
X25756519Y-58711649D01*
X25723969Y-58661000D01*
X26664221Y-58661000D01*
X26654569Y-58550683D01*
X26654567Y-58550673D01*
X26593433Y-58322516D01*
X26593429Y-58322507D01*
X26506458Y-58135996D01*
X36869500Y-58135996D01*
X36869501Y-59686000D01*
X36869501Y-59686018D01*
X36880000Y-59788796D01*
X36880001Y-59788799D01*
X36925894Y-59927294D01*
X36935186Y-59955334D01*
X37027288Y-60104656D01*
X37151344Y-60228712D01*
X37300666Y-60320814D01*
X37467203Y-60375999D01*
X37569991Y-60386500D01*
X38870008Y-60386499D01*
X38972797Y-60375999D01*
X39139334Y-60320814D01*
X39288656Y-60228712D01*
X39412712Y-60104656D01*
X39504814Y-59955334D01*
X39504814Y-59955331D01*
X39508178Y-59949879D01*
X39560126Y-59903154D01*
X39629088Y-59891931D01*
X39693170Y-59919774D01*
X39701398Y-59927294D01*
X39848599Y-60074495D01*
X39891675Y-60104657D01*
X40042165Y-60210032D01*
X40042167Y-60210033D01*
X40042170Y-60210035D01*
X40256337Y-60309903D01*
X40484592Y-60371063D01*
X40661034Y-60386500D01*
X40719999Y-60391659D01*
X40720000Y-60391659D01*
X40720001Y-60391659D01*
X40778966Y-60386500D01*
X40955408Y-60371063D01*
X41183663Y-60309903D01*
X41397829Y-60210035D01*
X41591401Y-60074495D01*
X41758495Y-59907401D01*
X41868426Y-59750401D01*
X41923001Y-59706778D01*
X41992500Y-59699584D01*
X42054855Y-59731106D01*
X42071571Y-59750398D01*
X42142144Y-59851187D01*
X42181506Y-59907403D01*
X42302273Y-60028169D01*
X42348599Y-60074495D01*
X42391675Y-60104657D01*
X42542165Y-60210032D01*
X42542167Y-60210033D01*
X42542170Y-60210035D01*
X42756337Y-60309903D01*
X42984592Y-60371063D01*
X43161034Y-60386500D01*
X43219999Y-60391659D01*
X43220000Y-60391659D01*
X43220001Y-60391659D01*
X43278966Y-60386500D01*
X43455408Y-60371063D01*
X43683663Y-60309903D01*
X43897829Y-60210035D01*
X44091401Y-60074495D01*
X44258495Y-59907401D01*
X44368732Y-59749965D01*
X44423306Y-59706342D01*
X44492805Y-59699148D01*
X44555159Y-59730670D01*
X44571880Y-59749967D01*
X44681886Y-59907073D01*
X44681891Y-59907079D01*
X44848917Y-60074105D01*
X45042421Y-60209600D01*
X45256507Y-60309429D01*
X45256516Y-60309433D01*
X45470000Y-60366634D01*
X45470000Y-59319018D01*
X45584801Y-59371446D01*
X45686025Y-59386000D01*
X45753975Y-59386000D01*
X45855199Y-59371446D01*
X45970000Y-59319018D01*
X45970000Y-60366633D01*
X46183483Y-60309433D01*
X46183492Y-60309429D01*
X46345585Y-60233844D01*
X53585000Y-60233844D01*
X53591401Y-60293372D01*
X53591403Y-60293379D01*
X53641645Y-60428086D01*
X53641649Y-60428093D01*
X53727809Y-60543187D01*
X53727812Y-60543190D01*
X53842906Y-60629350D01*
X53842913Y-60629354D01*
X53977620Y-60679596D01*
X53977627Y-60679598D01*
X54037155Y-60685999D01*
X54037172Y-60686000D01*
X54360000Y-60686000D01*
X54360000Y-59716617D01*
X54429052Y-59770363D01*
X54547424Y-59811000D01*
X54641073Y-59811000D01*
X54733446Y-59795586D01*
X54843514Y-59736019D01*
X54855630Y-59722856D01*
X54859701Y-59764190D01*
X54860000Y-59770270D01*
X54860000Y-60686000D01*
X55182828Y-60686000D01*
X55182844Y-60685999D01*
X55242372Y-60679598D01*
X55242376Y-60679597D01*
X55377093Y-60629350D01*
X55384876Y-60625101D01*
X55386071Y-60627289D01*
X55439109Y-60607492D01*
X55483982Y-60612513D01*
X55485653Y-60613020D01*
X55485659Y-60613023D01*
X55678967Y-60671662D01*
X55880000Y-60691462D01*
X56081033Y-60671662D01*
X56274341Y-60613023D01*
X56452494Y-60517798D01*
X56452498Y-60517794D01*
X56456546Y-60515631D01*
X56524949Y-60501389D01*
X56573454Y-60515631D01*
X56577502Y-60517794D01*
X56577506Y-60517798D01*
X56755659Y-60613023D01*
X56948967Y-60671662D01*
X57150000Y-60691462D01*
X57351033Y-60671662D01*
X57544341Y-60613023D01*
X57722494Y-60517798D01*
X57878647Y-60389647D01*
X58006798Y-60233494D01*
X58091785Y-60074495D01*
X58102021Y-60055345D01*
X58102021Y-60055344D01*
X58102023Y-60055341D01*
X58160662Y-59862033D01*
X58175500Y-59711380D01*
X58175500Y-59160620D01*
X58160662Y-59009967D01*
X58102023Y-58816659D01*
X58102021Y-58816656D01*
X58102021Y-58816654D01*
X58006801Y-58638511D01*
X58006799Y-58638509D01*
X58006798Y-58638506D01*
X57934649Y-58550592D01*
X57878647Y-58482352D01*
X57722495Y-58354203D01*
X57722488Y-58354198D01*
X57544345Y-58258978D01*
X57351031Y-58200337D01*
X57150000Y-58180538D01*
X56948968Y-58200337D01*
X56755654Y-58258978D01*
X56573453Y-58356367D01*
X56505050Y-58370609D01*
X56456547Y-58356367D01*
X56274345Y-58258978D01*
X56081031Y-58200337D01*
X55880000Y-58180538D01*
X55678968Y-58200337D01*
X55550437Y-58239327D01*
X55485659Y-58258977D01*
X55485657Y-58258977D01*
X55483982Y-58259486D01*
X55414115Y-58260109D01*
X55385414Y-58245902D01*
X55384872Y-58246897D01*
X55377086Y-58242645D01*
X55242379Y-58192403D01*
X55242372Y-58192401D01*
X55182844Y-58186000D01*
X54860000Y-58186000D01*
X54860000Y-59101728D01*
X54859701Y-59107808D01*
X54858168Y-59123379D01*
X54855370Y-59151779D01*
X54790948Y-59101637D01*
X54672576Y-59061000D01*
X54578927Y-59061000D01*
X54486554Y-59076414D01*
X54376486Y-59135981D01*
X54360000Y-59153889D01*
X54360000Y-58186000D01*
X54037155Y-58186000D01*
X53977627Y-58192401D01*
X53977620Y-58192403D01*
X53842913Y-58242645D01*
X53842906Y-58242649D01*
X53727812Y-58328809D01*
X53727809Y-58328812D01*
X53641649Y-58443906D01*
X53641645Y-58443913D01*
X53591403Y-58578620D01*
X53591401Y-58578627D01*
X53585000Y-58638155D01*
X53585000Y-59186000D01*
X54330440Y-59186000D01*
X54291722Y-59228059D01*
X54241449Y-59342670D01*
X54231114Y-59467395D01*
X54261837Y-59588719D01*
X54325394Y-59686000D01*
X53585000Y-59686000D01*
X53585000Y-60233844D01*
X46345585Y-60233844D01*
X46397577Y-60209600D01*
X46397579Y-60209599D01*
X46591073Y-60074113D01*
X46591079Y-60074108D01*
X46758108Y-59907079D01*
X46758113Y-59907073D01*
X46893599Y-59713579D01*
X46893600Y-59713577D01*
X46993429Y-59499492D01*
X46993433Y-59499483D01*
X47054567Y-59271326D01*
X47054569Y-59271316D01*
X47064221Y-59161000D01*
X46123969Y-59161000D01*
X46156519Y-59110351D01*
X46195000Y-58979295D01*
X46195000Y-58842705D01*
X46156519Y-58711649D01*
X46123969Y-58661000D01*
X47064221Y-58661000D01*
X47054569Y-58550683D01*
X47054567Y-58550673D01*
X46993433Y-58322516D01*
X46993429Y-58322507D01*
X46893600Y-58108422D01*
X46893599Y-58108420D01*
X46758113Y-57914926D01*
X46758108Y-57914920D01*
X46591082Y-57747894D01*
X46397578Y-57612399D01*
X46183492Y-57512570D01*
X46183486Y-57512567D01*
X45970000Y-57455364D01*
X45970000Y-58502981D01*
X45855199Y-58450554D01*
X45753975Y-58436000D01*
X45686025Y-58436000D01*
X45584801Y-58450554D01*
X45470000Y-58502981D01*
X45470000Y-57455364D01*
X45469999Y-57455364D01*
X45256513Y-57512567D01*
X45256507Y-57512570D01*
X45042422Y-57612399D01*
X45042420Y-57612400D01*
X44848926Y-57747886D01*
X44848920Y-57747891D01*
X44681891Y-57914920D01*
X44681890Y-57914922D01*
X44571880Y-58072032D01*
X44517303Y-58115657D01*
X44447804Y-58122849D01*
X44385450Y-58091327D01*
X44368730Y-58072031D01*
X44258494Y-57914597D01*
X44091402Y-57747506D01*
X44091395Y-57747501D01*
X44073740Y-57735139D01*
X44048324Y-57717342D01*
X43897834Y-57611967D01*
X43897830Y-57611965D01*
X43857777Y-57593288D01*
X43683663Y-57512097D01*
X43683659Y-57512096D01*
X43683655Y-57512094D01*
X43455413Y-57450938D01*
X43455403Y-57450936D01*
X43220001Y-57430341D01*
X43219999Y-57430341D01*
X42984596Y-57450936D01*
X42984586Y-57450938D01*
X42756344Y-57512094D01*
X42756335Y-57512098D01*
X42542171Y-57611964D01*
X42542169Y-57611965D01*
X42348597Y-57747505D01*
X42181505Y-57914597D01*
X42071575Y-58071595D01*
X42016998Y-58115220D01*
X41947500Y-58122414D01*
X41885145Y-58090891D01*
X41868425Y-58071595D01*
X41758494Y-57914597D01*
X41591402Y-57747506D01*
X41591395Y-57747501D01*
X41573740Y-57735139D01*
X41548324Y-57717342D01*
X41397834Y-57611967D01*
X41397830Y-57611965D01*
X41357777Y-57593288D01*
X41183663Y-57512097D01*
X41183659Y-57512096D01*
X41183655Y-57512094D01*
X40955413Y-57450938D01*
X40955403Y-57450936D01*
X40720001Y-57430341D01*
X40719999Y-57430341D01*
X40484596Y-57450936D01*
X40484586Y-57450938D01*
X40256344Y-57512094D01*
X40256335Y-57512098D01*
X40042171Y-57611964D01*
X40042169Y-57611965D01*
X39848597Y-57747505D01*
X39701398Y-57894705D01*
X39640075Y-57928190D01*
X39570383Y-57923206D01*
X39514450Y-57881334D01*
X39508178Y-57872120D01*
X39412712Y-57717344D01*
X39288657Y-57593289D01*
X39288656Y-57593288D01*
X39157786Y-57512567D01*
X39139336Y-57501187D01*
X39139331Y-57501185D01*
X39137862Y-57500698D01*
X38972797Y-57446001D01*
X38972795Y-57446000D01*
X38870010Y-57435500D01*
X37569998Y-57435500D01*
X37569981Y-57435501D01*
X37467203Y-57446000D01*
X37467200Y-57446001D01*
X37300668Y-57501185D01*
X37300663Y-57501187D01*
X37151342Y-57593289D01*
X37027289Y-57717342D01*
X36935187Y-57866663D01*
X36935185Y-57866668D01*
X36919194Y-57914926D01*
X36880001Y-58033203D01*
X36880001Y-58033204D01*
X36880000Y-58033204D01*
X36869500Y-58135983D01*
X36869500Y-58135996D01*
X26506458Y-58135996D01*
X26493600Y-58108422D01*
X26493599Y-58108420D01*
X26358113Y-57914926D01*
X26358108Y-57914920D01*
X26191082Y-57747894D01*
X25997578Y-57612399D01*
X25783492Y-57512570D01*
X25783486Y-57512567D01*
X25570000Y-57455364D01*
X25570000Y-58502981D01*
X25455199Y-58450554D01*
X25353975Y-58436000D01*
X25286025Y-58436000D01*
X25184801Y-58450554D01*
X25070000Y-58502981D01*
X25070000Y-57455364D01*
X25069999Y-57455364D01*
X24856513Y-57512567D01*
X24856507Y-57512570D01*
X24642422Y-57612399D01*
X24642420Y-57612400D01*
X24448926Y-57747886D01*
X24448920Y-57747891D01*
X24281891Y-57914920D01*
X24281890Y-57914922D01*
X24171880Y-58072032D01*
X24117303Y-58115657D01*
X24047804Y-58122849D01*
X23985450Y-58091327D01*
X23968730Y-58072031D01*
X23858494Y-57914597D01*
X23691402Y-57747506D01*
X23691395Y-57747501D01*
X23673740Y-57735139D01*
X23648324Y-57717342D01*
X23497834Y-57611967D01*
X23497830Y-57611965D01*
X23457777Y-57593288D01*
X23283663Y-57512097D01*
X23283659Y-57512096D01*
X23283655Y-57512094D01*
X23055413Y-57450938D01*
X23055403Y-57450936D01*
X22820001Y-57430341D01*
X22819999Y-57430341D01*
X22584596Y-57450936D01*
X22584586Y-57450938D01*
X22356344Y-57512094D01*
X22356335Y-57512098D01*
X22142171Y-57611964D01*
X22142169Y-57611965D01*
X21948597Y-57747505D01*
X21801398Y-57894705D01*
X21740075Y-57928190D01*
X21670383Y-57923206D01*
X21614450Y-57881334D01*
X21608178Y-57872120D01*
X21512712Y-57717344D01*
X21388657Y-57593289D01*
X21388656Y-57593288D01*
X21257786Y-57512567D01*
X21239336Y-57501187D01*
X21239331Y-57501185D01*
X21237862Y-57500698D01*
X21072797Y-57446001D01*
X21072795Y-57446000D01*
X20970010Y-57435500D01*
X19669998Y-57435500D01*
X19669981Y-57435501D01*
X19567203Y-57446000D01*
X19567200Y-57446001D01*
X19400668Y-57501185D01*
X19400663Y-57501187D01*
X19251342Y-57593289D01*
X19127289Y-57717342D01*
X19035187Y-57866663D01*
X19035185Y-57866668D01*
X19019194Y-57914926D01*
X18980001Y-58033203D01*
X18980001Y-58033204D01*
X18980000Y-58033204D01*
X18969500Y-58135983D01*
X18969500Y-58135996D01*
X12700500Y-58135996D01*
X12700500Y-56896001D01*
X59654532Y-56896001D01*
X59674364Y-57122686D01*
X59674366Y-57122697D01*
X59733258Y-57342488D01*
X59733261Y-57342497D01*
X59829431Y-57548732D01*
X59829432Y-57548734D01*
X59959954Y-57735141D01*
X60120858Y-57896045D01*
X60147823Y-57914926D01*
X60307266Y-58026568D01*
X60513504Y-58122739D01*
X60513509Y-58122740D01*
X60513511Y-58122741D01*
X60562932Y-58135983D01*
X60733308Y-58181635D01*
X60895230Y-58195801D01*
X60959998Y-58201468D01*
X60960000Y-58201468D01*
X60960002Y-58201468D01*
X61016673Y-58196509D01*
X61186692Y-58181635D01*
X61406496Y-58122739D01*
X61612734Y-58026568D01*
X61799139Y-57896047D01*
X61960047Y-57735139D01*
X62090568Y-57548734D01*
X62186739Y-57342496D01*
X62245635Y-57122692D01*
X62265468Y-56896001D01*
X69814532Y-56896001D01*
X69834364Y-57122686D01*
X69834366Y-57122697D01*
X69893258Y-57342488D01*
X69893261Y-57342497D01*
X69989431Y-57548732D01*
X69989432Y-57548734D01*
X70119954Y-57735141D01*
X70280858Y-57896045D01*
X70307823Y-57914926D01*
X70467266Y-58026568D01*
X70673504Y-58122739D01*
X70673509Y-58122740D01*
X70673511Y-58122741D01*
X70722932Y-58135983D01*
X70893308Y-58181635D01*
X71055230Y-58195801D01*
X71119998Y-58201468D01*
X71120000Y-58201468D01*
X71120002Y-58201468D01*
X71176673Y-58196509D01*
X71346692Y-58181635D01*
X71566496Y-58122739D01*
X71772734Y-58026568D01*
X71959139Y-57896047D01*
X72120047Y-57735139D01*
X72250568Y-57548734D01*
X72346739Y-57342496D01*
X72405635Y-57122692D01*
X72425468Y-56896000D01*
X72405635Y-56669308D01*
X72346739Y-56449504D01*
X72250568Y-56243266D01*
X72120047Y-56056861D01*
X72120045Y-56056858D01*
X71959141Y-55895954D01*
X71772734Y-55765432D01*
X71772732Y-55765431D01*
X71566497Y-55669261D01*
X71566488Y-55669258D01*
X71346697Y-55610366D01*
X71346693Y-55610365D01*
X71346692Y-55610365D01*
X71346691Y-55610364D01*
X71346686Y-55610364D01*
X71120002Y-55590532D01*
X71119998Y-55590532D01*
X70893313Y-55610364D01*
X70893302Y-55610366D01*
X70673511Y-55669258D01*
X70673502Y-55669261D01*
X70467267Y-55765431D01*
X70467265Y-55765432D01*
X70280858Y-55895954D01*
X70119954Y-56056858D01*
X69989432Y-56243265D01*
X69989431Y-56243267D01*
X69893261Y-56449502D01*
X69893258Y-56449511D01*
X69834366Y-56669302D01*
X69834364Y-56669313D01*
X69814532Y-56895998D01*
X69814532Y-56896001D01*
X62265468Y-56896001D01*
X62265468Y-56896000D01*
X62245635Y-56669308D01*
X62186739Y-56449504D01*
X62090568Y-56243266D01*
X61960047Y-56056861D01*
X61960045Y-56056858D01*
X61799141Y-55895954D01*
X61612734Y-55765432D01*
X61612732Y-55765431D01*
X61406497Y-55669261D01*
X61406488Y-55669258D01*
X61186697Y-55610366D01*
X61186693Y-55610365D01*
X61186692Y-55610365D01*
X61186691Y-55610364D01*
X61186686Y-55610364D01*
X60960002Y-55590532D01*
X60959998Y-55590532D01*
X60733313Y-55610364D01*
X60733302Y-55610366D01*
X60513511Y-55669258D01*
X60513502Y-55669261D01*
X60307267Y-55765431D01*
X60307265Y-55765432D01*
X60120858Y-55895954D01*
X59959954Y-56056858D01*
X59829432Y-56243265D01*
X59829431Y-56243267D01*
X59733261Y-56449502D01*
X59733258Y-56449511D01*
X59674366Y-56669302D01*
X59674364Y-56669313D01*
X59654532Y-56895998D01*
X59654532Y-56896001D01*
X12700500Y-56896001D01*
X12700500Y-55153844D01*
X53585000Y-55153844D01*
X53591401Y-55213372D01*
X53591403Y-55213379D01*
X53641645Y-55348086D01*
X53641649Y-55348093D01*
X53727809Y-55463187D01*
X53727812Y-55463190D01*
X53842906Y-55549350D01*
X53842913Y-55549354D01*
X53977620Y-55599596D01*
X53977627Y-55599598D01*
X54037155Y-55605999D01*
X54037172Y-55606000D01*
X54360000Y-55606000D01*
X54360000Y-54636617D01*
X54429052Y-54690363D01*
X54547424Y-54731000D01*
X54641073Y-54731000D01*
X54733446Y-54715586D01*
X54843514Y-54656019D01*
X54855630Y-54642856D01*
X54859701Y-54684190D01*
X54860000Y-54690270D01*
X54860000Y-55606000D01*
X55182828Y-55606000D01*
X55182844Y-55605999D01*
X55242372Y-55599598D01*
X55242376Y-55599597D01*
X55377093Y-55549350D01*
X55384876Y-55545101D01*
X55386071Y-55547289D01*
X55439109Y-55527492D01*
X55483982Y-55532513D01*
X55485653Y-55533020D01*
X55485659Y-55533023D01*
X55678967Y-55591662D01*
X55880000Y-55611462D01*
X56081033Y-55591662D01*
X56274341Y-55533023D01*
X56452494Y-55437798D01*
X56452498Y-55437794D01*
X56456546Y-55435631D01*
X56524949Y-55421389D01*
X56573454Y-55435631D01*
X56577502Y-55437794D01*
X56577506Y-55437798D01*
X56755659Y-55533023D01*
X56948967Y-55591662D01*
X57150000Y-55611462D01*
X57351033Y-55591662D01*
X57544341Y-55533023D01*
X57722494Y-55437798D01*
X57878647Y-55309647D01*
X58006798Y-55153494D01*
X58102023Y-54975341D01*
X58160662Y-54782033D01*
X58175500Y-54631380D01*
X58175500Y-54080620D01*
X58160662Y-53929967D01*
X58102023Y-53736659D01*
X58102021Y-53736656D01*
X58102021Y-53736654D01*
X58006801Y-53558511D01*
X58006799Y-53558509D01*
X58006798Y-53558506D01*
X57957651Y-53498620D01*
X57878647Y-53402352D01*
X57722495Y-53274203D01*
X57722488Y-53274198D01*
X57544345Y-53178978D01*
X57351031Y-53120337D01*
X57150000Y-53100538D01*
X56948968Y-53120337D01*
X56755654Y-53178978D01*
X56573453Y-53276367D01*
X56505050Y-53290609D01*
X56456547Y-53276367D01*
X56274345Y-53178978D01*
X56081031Y-53120337D01*
X55880000Y-53100538D01*
X55678968Y-53120337D01*
X55541371Y-53162076D01*
X55485659Y-53178977D01*
X55485657Y-53178977D01*
X55483982Y-53179486D01*
X55414115Y-53180109D01*
X55385414Y-53165902D01*
X55384872Y-53166897D01*
X55377086Y-53162645D01*
X55242379Y-53112403D01*
X55242372Y-53112401D01*
X55182844Y-53106000D01*
X54860000Y-53106000D01*
X54860000Y-54021728D01*
X54859701Y-54027808D01*
X54855370Y-54071779D01*
X54790948Y-54021637D01*
X54672576Y-53981000D01*
X54578927Y-53981000D01*
X54486554Y-53996414D01*
X54376486Y-54055981D01*
X54360000Y-54073889D01*
X54360000Y-53106000D01*
X54037155Y-53106000D01*
X53977627Y-53112401D01*
X53977620Y-53112403D01*
X53842913Y-53162645D01*
X53842906Y-53162649D01*
X53727812Y-53248809D01*
X53727809Y-53248812D01*
X53641649Y-53363906D01*
X53641645Y-53363913D01*
X53591403Y-53498620D01*
X53591401Y-53498627D01*
X53585000Y-53558155D01*
X53585000Y-54106000D01*
X54330440Y-54106000D01*
X54291722Y-54148059D01*
X54241449Y-54262670D01*
X54231114Y-54387395D01*
X54261837Y-54508719D01*
X54325394Y-54606000D01*
X53585000Y-54606000D01*
X53585000Y-55153844D01*
X12700500Y-55153844D01*
X12700500Y-51816001D01*
X59654532Y-51816001D01*
X59674364Y-52042686D01*
X59674366Y-52042697D01*
X59733258Y-52262488D01*
X59733261Y-52262497D01*
X59829431Y-52468732D01*
X59829432Y-52468734D01*
X59959954Y-52655141D01*
X60120858Y-52816045D01*
X60120861Y-52816047D01*
X60307266Y-52946568D01*
X60513504Y-53042739D01*
X60733308Y-53101635D01*
X60895230Y-53115801D01*
X60959998Y-53121468D01*
X60960000Y-53121468D01*
X60960002Y-53121468D01*
X61016673Y-53116509D01*
X61186692Y-53101635D01*
X61406496Y-53042739D01*
X61612734Y-52946568D01*
X61799139Y-52816047D01*
X61960047Y-52655139D01*
X62090568Y-52468734D01*
X62186739Y-52262496D01*
X62245635Y-52042692D01*
X62265468Y-51816001D01*
X69814532Y-51816001D01*
X69834364Y-52042686D01*
X69834366Y-52042697D01*
X69893258Y-52262488D01*
X69893261Y-52262497D01*
X69989431Y-52468732D01*
X69989432Y-52468734D01*
X70119954Y-52655141D01*
X70280858Y-52816045D01*
X70280861Y-52816047D01*
X70467266Y-52946568D01*
X70673504Y-53042739D01*
X70893308Y-53101635D01*
X71055230Y-53115801D01*
X71119998Y-53121468D01*
X71120000Y-53121468D01*
X71120002Y-53121468D01*
X71176673Y-53116509D01*
X71346692Y-53101635D01*
X71566496Y-53042739D01*
X71772734Y-52946568D01*
X71959139Y-52816047D01*
X72120047Y-52655139D01*
X72250568Y-52468734D01*
X72346739Y-52262496D01*
X72405635Y-52042692D01*
X72425468Y-51816000D01*
X72405635Y-51589308D01*
X72346739Y-51369504D01*
X72250568Y-51163266D01*
X72120047Y-50976861D01*
X72120045Y-50976858D01*
X71959141Y-50815954D01*
X71772734Y-50685432D01*
X71772732Y-50685431D01*
X71566497Y-50589261D01*
X71566488Y-50589258D01*
X71346697Y-50530366D01*
X71346693Y-50530365D01*
X71346692Y-50530365D01*
X71346691Y-50530364D01*
X71346686Y-50530364D01*
X71120002Y-50510532D01*
X71119998Y-50510532D01*
X70893313Y-50530364D01*
X70893302Y-50530366D01*
X70673511Y-50589258D01*
X70673502Y-50589261D01*
X70467267Y-50685431D01*
X70467265Y-50685432D01*
X70280858Y-50815954D01*
X70119954Y-50976858D01*
X69989432Y-51163265D01*
X69989431Y-51163267D01*
X69893261Y-51369502D01*
X69893258Y-51369511D01*
X69834366Y-51589302D01*
X69834364Y-51589313D01*
X69814532Y-51815998D01*
X69814532Y-51816001D01*
X62265468Y-51816001D01*
X62265468Y-51816000D01*
X62245635Y-51589308D01*
X62186739Y-51369504D01*
X62090568Y-51163266D01*
X61960047Y-50976861D01*
X61960045Y-50976858D01*
X61799141Y-50815954D01*
X61612734Y-50685432D01*
X61612732Y-50685431D01*
X61406497Y-50589261D01*
X61406488Y-50589258D01*
X61186697Y-50530366D01*
X61186693Y-50530365D01*
X61186692Y-50530365D01*
X61186691Y-50530364D01*
X61186686Y-50530364D01*
X60960002Y-50510532D01*
X60959998Y-50510532D01*
X60733313Y-50530364D01*
X60733302Y-50530366D01*
X60513511Y-50589258D01*
X60513502Y-50589261D01*
X60307267Y-50685431D01*
X60307265Y-50685432D01*
X60120858Y-50815954D01*
X59959954Y-50976858D01*
X59829432Y-51163265D01*
X59829431Y-51163267D01*
X59733261Y-51369502D01*
X59733258Y-51369511D01*
X59674366Y-51589302D01*
X59674364Y-51589313D01*
X59654532Y-51815998D01*
X59654532Y-51816001D01*
X12700500Y-51816001D01*
X12700500Y-47975996D01*
X16549500Y-47975996D01*
X16549501Y-49526000D01*
X16549501Y-49526018D01*
X16560000Y-49628796D01*
X16560001Y-49628799D01*
X16605894Y-49767294D01*
X16615186Y-49795334D01*
X16707288Y-49944656D01*
X16831344Y-50068712D01*
X16980666Y-50160814D01*
X17147203Y-50215999D01*
X17249991Y-50226500D01*
X18550008Y-50226499D01*
X18652797Y-50215999D01*
X18819334Y-50160814D01*
X18968656Y-50068712D01*
X19092712Y-49944656D01*
X19184814Y-49795334D01*
X19184814Y-49795331D01*
X19188178Y-49789879D01*
X19240126Y-49743154D01*
X19309088Y-49731931D01*
X19373170Y-49759774D01*
X19381398Y-49767294D01*
X19528599Y-49914495D01*
X19571675Y-49944657D01*
X19722165Y-50050032D01*
X19722167Y-50050033D01*
X19722170Y-50050035D01*
X19936337Y-50149903D01*
X20164592Y-50211063D01*
X20341034Y-50226500D01*
X20399999Y-50231659D01*
X20400000Y-50231659D01*
X20400001Y-50231659D01*
X20458966Y-50226500D01*
X20635408Y-50211063D01*
X20863663Y-50149903D01*
X21077829Y-50050035D01*
X21271401Y-49914495D01*
X21438495Y-49747401D01*
X21548426Y-49590401D01*
X21603001Y-49546778D01*
X21672500Y-49539584D01*
X21734855Y-49571106D01*
X21751571Y-49590398D01*
X21783212Y-49635586D01*
X21861506Y-49747403D01*
X21982273Y-49868169D01*
X22028599Y-49914495D01*
X22071675Y-49944657D01*
X22222165Y-50050032D01*
X22222167Y-50050033D01*
X22222170Y-50050035D01*
X22436337Y-50149903D01*
X22664592Y-50211063D01*
X22841034Y-50226500D01*
X22899999Y-50231659D01*
X22900000Y-50231659D01*
X22900001Y-50231659D01*
X22958966Y-50226500D01*
X23135408Y-50211063D01*
X23363663Y-50149903D01*
X23577829Y-50050035D01*
X23771401Y-49914495D01*
X23938495Y-49747401D01*
X24048732Y-49589965D01*
X24103306Y-49546342D01*
X24172805Y-49539148D01*
X24235159Y-49570670D01*
X24251880Y-49589967D01*
X24361886Y-49747073D01*
X24361891Y-49747079D01*
X24528917Y-49914105D01*
X24722421Y-50049600D01*
X24936507Y-50149429D01*
X24936516Y-50149433D01*
X25150000Y-50206634D01*
X25150000Y-49159018D01*
X25264801Y-49211446D01*
X25366025Y-49226000D01*
X25433975Y-49226000D01*
X25535199Y-49211446D01*
X25650000Y-49159018D01*
X25650000Y-50206633D01*
X25863483Y-50149433D01*
X25863492Y-50149429D01*
X26077577Y-50049600D01*
X26077579Y-50049599D01*
X26271073Y-49914113D01*
X26271079Y-49914108D01*
X26438108Y-49747079D01*
X26438113Y-49747073D01*
X26573599Y-49553579D01*
X26573600Y-49553577D01*
X26673429Y-49339492D01*
X26673433Y-49339483D01*
X26734567Y-49111326D01*
X26734569Y-49111316D01*
X26744221Y-49001000D01*
X25803969Y-49001000D01*
X25836519Y-48950351D01*
X25875000Y-48819295D01*
X25875000Y-48682705D01*
X25836519Y-48551649D01*
X25803969Y-48501000D01*
X26744221Y-48501000D01*
X26734569Y-48390683D01*
X26734567Y-48390673D01*
X26673433Y-48162516D01*
X26673429Y-48162507D01*
X26586458Y-47975996D01*
X36869500Y-47975996D01*
X36869501Y-49526000D01*
X36869501Y-49526018D01*
X36880000Y-49628796D01*
X36880001Y-49628799D01*
X36925894Y-49767294D01*
X36935186Y-49795334D01*
X37027288Y-49944656D01*
X37151344Y-50068712D01*
X37300666Y-50160814D01*
X37467203Y-50215999D01*
X37569991Y-50226500D01*
X38870008Y-50226499D01*
X38972797Y-50215999D01*
X39139334Y-50160814D01*
X39288656Y-50068712D01*
X39412712Y-49944656D01*
X39504814Y-49795334D01*
X39504814Y-49795331D01*
X39508178Y-49789879D01*
X39560126Y-49743154D01*
X39629088Y-49731931D01*
X39693170Y-49759774D01*
X39701398Y-49767294D01*
X39848599Y-49914495D01*
X39891675Y-49944657D01*
X40042165Y-50050032D01*
X40042167Y-50050033D01*
X40042170Y-50050035D01*
X40256337Y-50149903D01*
X40484592Y-50211063D01*
X40661034Y-50226500D01*
X40719999Y-50231659D01*
X40720000Y-50231659D01*
X40720001Y-50231659D01*
X40778966Y-50226500D01*
X40955408Y-50211063D01*
X41183663Y-50149903D01*
X41397829Y-50050035D01*
X41591401Y-49914495D01*
X41758495Y-49747401D01*
X41868426Y-49590401D01*
X41923001Y-49546778D01*
X41992500Y-49539584D01*
X42054855Y-49571106D01*
X42071571Y-49590398D01*
X42103212Y-49635586D01*
X42181506Y-49747403D01*
X42302273Y-49868169D01*
X42348599Y-49914495D01*
X42391675Y-49944657D01*
X42542165Y-50050032D01*
X42542167Y-50050033D01*
X42542170Y-50050035D01*
X42756337Y-50149903D01*
X42984592Y-50211063D01*
X43161034Y-50226500D01*
X43219999Y-50231659D01*
X43220000Y-50231659D01*
X43220001Y-50231659D01*
X43278966Y-50226500D01*
X43455408Y-50211063D01*
X43683663Y-50149903D01*
X43897829Y-50050035D01*
X44091401Y-49914495D01*
X44258495Y-49747401D01*
X44368732Y-49589965D01*
X44423306Y-49546342D01*
X44492805Y-49539148D01*
X44555159Y-49570670D01*
X44571880Y-49589967D01*
X44681886Y-49747073D01*
X44681891Y-49747079D01*
X44848917Y-49914105D01*
X45042421Y-50049600D01*
X45256507Y-50149429D01*
X45256516Y-50149433D01*
X45470000Y-50206634D01*
X45470000Y-49159018D01*
X45584801Y-49211446D01*
X45686025Y-49226000D01*
X45753975Y-49226000D01*
X45855199Y-49211446D01*
X45970000Y-49159018D01*
X45970000Y-50206633D01*
X46183483Y-50149433D01*
X46183492Y-50149429D01*
X46345585Y-50073844D01*
X53585000Y-50073844D01*
X53591401Y-50133372D01*
X53591403Y-50133379D01*
X53641645Y-50268086D01*
X53641649Y-50268093D01*
X53727809Y-50383187D01*
X53727812Y-50383190D01*
X53842906Y-50469350D01*
X53842913Y-50469354D01*
X53977620Y-50519596D01*
X53977627Y-50519598D01*
X54037155Y-50525999D01*
X54037172Y-50526000D01*
X54360000Y-50526000D01*
X54360000Y-49556617D01*
X54429052Y-49610363D01*
X54547424Y-49651000D01*
X54641073Y-49651000D01*
X54733446Y-49635586D01*
X54843514Y-49576019D01*
X54855630Y-49562856D01*
X54859701Y-49604190D01*
X54860000Y-49610270D01*
X54860000Y-50526000D01*
X55182828Y-50526000D01*
X55182844Y-50525999D01*
X55242372Y-50519598D01*
X55242376Y-50519597D01*
X55377093Y-50469350D01*
X55384876Y-50465101D01*
X55386071Y-50467289D01*
X55439109Y-50447492D01*
X55483982Y-50452513D01*
X55485653Y-50453020D01*
X55485659Y-50453023D01*
X55678967Y-50511662D01*
X55880000Y-50531462D01*
X56081033Y-50511662D01*
X56274341Y-50453023D01*
X56452494Y-50357798D01*
X56452498Y-50357794D01*
X56456546Y-50355631D01*
X56524949Y-50341389D01*
X56573454Y-50355631D01*
X56577502Y-50357794D01*
X56577506Y-50357798D01*
X56755659Y-50453023D01*
X56948967Y-50511662D01*
X57150000Y-50531462D01*
X57351033Y-50511662D01*
X57544341Y-50453023D01*
X57722494Y-50357798D01*
X57878647Y-50229647D01*
X58006798Y-50073494D01*
X58091785Y-49914495D01*
X58102021Y-49895345D01*
X58102021Y-49895344D01*
X58102023Y-49895341D01*
X58160662Y-49702033D01*
X58175500Y-49551380D01*
X58175500Y-49000620D01*
X58160662Y-48849967D01*
X58102023Y-48656659D01*
X58102021Y-48656656D01*
X58102021Y-48656654D01*
X58006801Y-48478511D01*
X58006799Y-48478509D01*
X58006798Y-48478506D01*
X57934649Y-48390592D01*
X57878647Y-48322352D01*
X57722495Y-48194203D01*
X57722488Y-48194198D01*
X57544345Y-48098978D01*
X57351031Y-48040337D01*
X57150000Y-48020538D01*
X56948968Y-48040337D01*
X56755654Y-48098978D01*
X56573453Y-48196367D01*
X56505050Y-48210609D01*
X56456547Y-48196367D01*
X56274345Y-48098978D01*
X56081031Y-48040337D01*
X55880000Y-48020538D01*
X55678968Y-48040337D01*
X55541371Y-48082076D01*
X55485659Y-48098977D01*
X55485657Y-48098977D01*
X55483982Y-48099486D01*
X55414115Y-48100109D01*
X55385414Y-48085902D01*
X55384872Y-48086897D01*
X55377086Y-48082645D01*
X55242379Y-48032403D01*
X55242372Y-48032401D01*
X55182844Y-48026000D01*
X54860000Y-48026000D01*
X54860000Y-48941728D01*
X54859701Y-48947808D01*
X54859451Y-48950351D01*
X54855370Y-48991779D01*
X54790948Y-48941637D01*
X54672576Y-48901000D01*
X54578927Y-48901000D01*
X54486554Y-48916414D01*
X54376486Y-48975981D01*
X54360000Y-48993889D01*
X54360000Y-48026000D01*
X54037155Y-48026000D01*
X53977627Y-48032401D01*
X53977620Y-48032403D01*
X53842913Y-48082645D01*
X53842906Y-48082649D01*
X53727812Y-48168809D01*
X53727809Y-48168812D01*
X53641649Y-48283906D01*
X53641645Y-48283913D01*
X53591403Y-48418620D01*
X53591401Y-48418627D01*
X53585000Y-48478155D01*
X53585000Y-49026000D01*
X54330440Y-49026000D01*
X54291722Y-49068059D01*
X54241449Y-49182670D01*
X54231114Y-49307395D01*
X54261837Y-49428719D01*
X54325394Y-49526000D01*
X53585000Y-49526000D01*
X53585000Y-50073844D01*
X46345585Y-50073844D01*
X46397577Y-50049600D01*
X46397579Y-50049599D01*
X46591073Y-49914113D01*
X46591079Y-49914108D01*
X46758108Y-49747079D01*
X46758113Y-49747073D01*
X46893599Y-49553579D01*
X46893600Y-49553577D01*
X46993429Y-49339492D01*
X46993433Y-49339483D01*
X47054567Y-49111326D01*
X47054569Y-49111316D01*
X47064221Y-49001000D01*
X46123969Y-49001000D01*
X46156519Y-48950351D01*
X46195000Y-48819295D01*
X46195000Y-48682705D01*
X46156519Y-48551649D01*
X46123969Y-48501000D01*
X47064221Y-48501000D01*
X47054569Y-48390683D01*
X47054567Y-48390673D01*
X46993433Y-48162516D01*
X46993429Y-48162507D01*
X46893600Y-47948422D01*
X46893599Y-47948420D01*
X46758113Y-47754926D01*
X46758108Y-47754920D01*
X46591082Y-47587894D01*
X46397578Y-47452399D01*
X46183492Y-47352570D01*
X46183486Y-47352567D01*
X45970000Y-47295364D01*
X45970000Y-48342981D01*
X45855199Y-48290554D01*
X45753975Y-48276000D01*
X45686025Y-48276000D01*
X45584801Y-48290554D01*
X45470000Y-48342981D01*
X45470000Y-47295364D01*
X45469999Y-47295364D01*
X45256513Y-47352567D01*
X45256507Y-47352570D01*
X45042422Y-47452399D01*
X45042420Y-47452400D01*
X44848926Y-47587886D01*
X44848920Y-47587891D01*
X44681891Y-47754920D01*
X44681890Y-47754922D01*
X44571880Y-47912032D01*
X44517303Y-47955657D01*
X44447804Y-47962849D01*
X44385450Y-47931327D01*
X44368730Y-47912031D01*
X44258494Y-47754597D01*
X44091402Y-47587506D01*
X44091395Y-47587501D01*
X44073740Y-47575139D01*
X44048324Y-47557342D01*
X43897834Y-47451967D01*
X43897830Y-47451965D01*
X43857777Y-47433288D01*
X43683663Y-47352097D01*
X43683659Y-47352096D01*
X43683655Y-47352094D01*
X43455413Y-47290938D01*
X43455403Y-47290936D01*
X43220001Y-47270341D01*
X43219999Y-47270341D01*
X42984596Y-47290936D01*
X42984586Y-47290938D01*
X42756344Y-47352094D01*
X42756335Y-47352098D01*
X42542171Y-47451964D01*
X42542169Y-47451965D01*
X42348597Y-47587505D01*
X42181505Y-47754597D01*
X42071575Y-47911595D01*
X42016998Y-47955220D01*
X41947500Y-47962414D01*
X41885145Y-47930891D01*
X41868425Y-47911595D01*
X41758494Y-47754597D01*
X41591402Y-47587506D01*
X41591395Y-47587501D01*
X41573740Y-47575139D01*
X41548324Y-47557342D01*
X41397834Y-47451967D01*
X41397830Y-47451965D01*
X41357777Y-47433288D01*
X41183663Y-47352097D01*
X41183659Y-47352096D01*
X41183655Y-47352094D01*
X40955413Y-47290938D01*
X40955403Y-47290936D01*
X40720001Y-47270341D01*
X40719999Y-47270341D01*
X40484596Y-47290936D01*
X40484586Y-47290938D01*
X40256344Y-47352094D01*
X40256335Y-47352098D01*
X40042171Y-47451964D01*
X40042169Y-47451965D01*
X39848597Y-47587505D01*
X39701398Y-47734705D01*
X39640075Y-47768190D01*
X39570383Y-47763206D01*
X39514450Y-47721334D01*
X39508178Y-47712120D01*
X39412712Y-47557344D01*
X39288657Y-47433289D01*
X39288656Y-47433288D01*
X39157786Y-47352567D01*
X39139336Y-47341187D01*
X39139331Y-47341185D01*
X39100051Y-47328169D01*
X38972797Y-47286001D01*
X38972795Y-47286000D01*
X38870010Y-47275500D01*
X37569998Y-47275500D01*
X37569981Y-47275501D01*
X37467203Y-47286000D01*
X37467200Y-47286001D01*
X37300668Y-47341185D01*
X37300663Y-47341187D01*
X37151342Y-47433289D01*
X37027289Y-47557342D01*
X36935187Y-47706663D01*
X36935185Y-47706668D01*
X36919194Y-47754926D01*
X36880001Y-47873203D01*
X36880001Y-47873204D01*
X36880000Y-47873204D01*
X36869500Y-47975983D01*
X36869500Y-47975996D01*
X26586458Y-47975996D01*
X26573600Y-47948422D01*
X26573599Y-47948420D01*
X26438113Y-47754926D01*
X26438108Y-47754920D01*
X26271082Y-47587894D01*
X26077578Y-47452399D01*
X25863492Y-47352570D01*
X25863486Y-47352567D01*
X25650000Y-47295364D01*
X25650000Y-48342981D01*
X25535199Y-48290554D01*
X25433975Y-48276000D01*
X25366025Y-48276000D01*
X25264801Y-48290554D01*
X25150000Y-48342981D01*
X25150000Y-47295364D01*
X25149999Y-47295364D01*
X24936513Y-47352567D01*
X24936507Y-47352570D01*
X24722422Y-47452399D01*
X24722420Y-47452400D01*
X24528926Y-47587886D01*
X24528920Y-47587891D01*
X24361891Y-47754920D01*
X24361890Y-47754922D01*
X24251880Y-47912032D01*
X24197303Y-47955657D01*
X24127804Y-47962849D01*
X24065450Y-47931327D01*
X24048730Y-47912031D01*
X23938494Y-47754597D01*
X23771402Y-47587506D01*
X23771395Y-47587501D01*
X23753740Y-47575139D01*
X23728324Y-47557342D01*
X23577834Y-47451967D01*
X23577830Y-47451965D01*
X23537777Y-47433288D01*
X23363663Y-47352097D01*
X23363659Y-47352096D01*
X23363655Y-47352094D01*
X23135413Y-47290938D01*
X23135403Y-47290936D01*
X22900001Y-47270341D01*
X22899999Y-47270341D01*
X22664596Y-47290936D01*
X22664586Y-47290938D01*
X22436344Y-47352094D01*
X22436335Y-47352098D01*
X22222171Y-47451964D01*
X22222169Y-47451965D01*
X22028597Y-47587505D01*
X21861505Y-47754597D01*
X21751575Y-47911595D01*
X21696998Y-47955220D01*
X21627500Y-47962414D01*
X21565145Y-47930891D01*
X21548425Y-47911595D01*
X21438494Y-47754597D01*
X21271402Y-47587506D01*
X21271395Y-47587501D01*
X21253740Y-47575139D01*
X21228324Y-47557342D01*
X21077834Y-47451967D01*
X21077830Y-47451965D01*
X21037777Y-47433288D01*
X20863663Y-47352097D01*
X20863659Y-47352096D01*
X20863655Y-47352094D01*
X20635413Y-47290938D01*
X20635403Y-47290936D01*
X20400001Y-47270341D01*
X20399999Y-47270341D01*
X20164596Y-47290936D01*
X20164586Y-47290938D01*
X19936344Y-47352094D01*
X19936335Y-47352098D01*
X19722171Y-47451964D01*
X19722169Y-47451965D01*
X19528597Y-47587505D01*
X19381398Y-47734705D01*
X19320075Y-47768190D01*
X19250383Y-47763206D01*
X19194450Y-47721334D01*
X19188178Y-47712120D01*
X19092712Y-47557344D01*
X18968657Y-47433289D01*
X18968656Y-47433288D01*
X18837786Y-47352567D01*
X18819336Y-47341187D01*
X18819331Y-47341185D01*
X18780051Y-47328169D01*
X18652797Y-47286001D01*
X18652795Y-47286000D01*
X18550010Y-47275500D01*
X17249998Y-47275500D01*
X17249981Y-47275501D01*
X17147203Y-47286000D01*
X17147200Y-47286001D01*
X16980668Y-47341185D01*
X16980663Y-47341187D01*
X16831342Y-47433289D01*
X16707289Y-47557342D01*
X16615187Y-47706663D01*
X16615185Y-47706668D01*
X16599194Y-47754926D01*
X16560001Y-47873203D01*
X16560001Y-47873204D01*
X16560000Y-47873204D01*
X16549500Y-47975983D01*
X16549500Y-47975996D01*
X12700500Y-47975996D01*
X12700500Y-46736001D01*
X59654532Y-46736001D01*
X59674364Y-46962686D01*
X59674366Y-46962697D01*
X59733258Y-47182488D01*
X59733261Y-47182497D01*
X59829431Y-47388732D01*
X59829432Y-47388734D01*
X59959954Y-47575141D01*
X60120858Y-47736045D01*
X60147823Y-47754926D01*
X60307266Y-47866568D01*
X60513504Y-47962739D01*
X60513509Y-47962740D01*
X60513511Y-47962741D01*
X60562932Y-47975983D01*
X60733308Y-48021635D01*
X60895230Y-48035801D01*
X60959998Y-48041468D01*
X60960000Y-48041468D01*
X60960002Y-48041468D01*
X61016673Y-48036509D01*
X61186692Y-48021635D01*
X61406496Y-47962739D01*
X61612734Y-47866568D01*
X61799139Y-47736047D01*
X61960047Y-47575139D01*
X62090568Y-47388734D01*
X62186739Y-47182496D01*
X62245635Y-46962692D01*
X62265468Y-46736001D01*
X69814532Y-46736001D01*
X69834364Y-46962686D01*
X69834366Y-46962697D01*
X69893258Y-47182488D01*
X69893261Y-47182497D01*
X69989431Y-47388732D01*
X69989432Y-47388734D01*
X70119954Y-47575141D01*
X70280858Y-47736045D01*
X70307823Y-47754926D01*
X70467266Y-47866568D01*
X70673504Y-47962739D01*
X70673509Y-47962740D01*
X70673511Y-47962741D01*
X70722932Y-47975983D01*
X70893308Y-48021635D01*
X71055230Y-48035801D01*
X71119998Y-48041468D01*
X71120000Y-48041468D01*
X71120002Y-48041468D01*
X71176673Y-48036509D01*
X71346692Y-48021635D01*
X71566496Y-47962739D01*
X71772734Y-47866568D01*
X71959139Y-47736047D01*
X72120047Y-47575139D01*
X72250568Y-47388734D01*
X72346739Y-47182496D01*
X72405635Y-46962692D01*
X72425468Y-46736000D01*
X72405635Y-46509308D01*
X72346739Y-46289504D01*
X72250568Y-46083266D01*
X72120047Y-45896861D01*
X72120045Y-45896858D01*
X71959141Y-45735954D01*
X71772734Y-45605432D01*
X71772732Y-45605431D01*
X71566497Y-45509261D01*
X71566488Y-45509258D01*
X71346697Y-45450366D01*
X71346693Y-45450365D01*
X71346692Y-45450365D01*
X71346691Y-45450364D01*
X71346686Y-45450364D01*
X71120002Y-45430532D01*
X71119998Y-45430532D01*
X70893313Y-45450364D01*
X70893302Y-45450366D01*
X70673511Y-45509258D01*
X70673502Y-45509261D01*
X70467267Y-45605431D01*
X70467265Y-45605432D01*
X70280858Y-45735954D01*
X70119954Y-45896858D01*
X69989432Y-46083265D01*
X69989431Y-46083267D01*
X69893261Y-46289502D01*
X69893258Y-46289511D01*
X69834366Y-46509302D01*
X69834364Y-46509313D01*
X69814532Y-46735998D01*
X69814532Y-46736001D01*
X62265468Y-46736001D01*
X62265468Y-46736000D01*
X62245635Y-46509308D01*
X62186739Y-46289504D01*
X62090568Y-46083266D01*
X61960047Y-45896861D01*
X61960045Y-45896858D01*
X61799141Y-45735954D01*
X61612734Y-45605432D01*
X61612732Y-45605431D01*
X61406497Y-45509261D01*
X61406488Y-45509258D01*
X61186697Y-45450366D01*
X61186693Y-45450365D01*
X61186692Y-45450365D01*
X61186691Y-45450364D01*
X61186686Y-45450364D01*
X60960002Y-45430532D01*
X60959998Y-45430532D01*
X60733313Y-45450364D01*
X60733302Y-45450366D01*
X60513511Y-45509258D01*
X60513502Y-45509261D01*
X60307267Y-45605431D01*
X60307265Y-45605432D01*
X60120858Y-45735954D01*
X59959954Y-45896858D01*
X59829432Y-46083265D01*
X59829431Y-46083267D01*
X59733261Y-46289502D01*
X59733258Y-46289511D01*
X59674366Y-46509302D01*
X59674364Y-46509313D01*
X59654532Y-46735998D01*
X59654532Y-46736001D01*
X12700500Y-46736001D01*
X12700500Y-44993844D01*
X53585000Y-44993844D01*
X53591401Y-45053372D01*
X53591403Y-45053379D01*
X53641645Y-45188086D01*
X53641649Y-45188093D01*
X53727809Y-45303187D01*
X53727812Y-45303190D01*
X53842906Y-45389350D01*
X53842913Y-45389354D01*
X53977620Y-45439596D01*
X53977627Y-45439598D01*
X54037155Y-45445999D01*
X54037172Y-45446000D01*
X54360000Y-45446000D01*
X54360000Y-44476617D01*
X54429052Y-44530363D01*
X54547424Y-44571000D01*
X54641073Y-44571000D01*
X54733446Y-44555586D01*
X54843514Y-44496019D01*
X54855630Y-44482856D01*
X54859701Y-44524190D01*
X54860000Y-44530270D01*
X54860000Y-45446000D01*
X55182828Y-45446000D01*
X55182844Y-45445999D01*
X55242372Y-45439598D01*
X55242376Y-45439597D01*
X55377093Y-45389350D01*
X55384876Y-45385101D01*
X55386071Y-45387289D01*
X55439109Y-45367492D01*
X55483982Y-45372513D01*
X55485653Y-45373020D01*
X55485659Y-45373023D01*
X55678967Y-45431662D01*
X55880000Y-45451462D01*
X56081033Y-45431662D01*
X56274341Y-45373023D01*
X56452494Y-45277798D01*
X56452498Y-45277794D01*
X56456546Y-45275631D01*
X56524949Y-45261389D01*
X56573454Y-45275631D01*
X56577502Y-45277794D01*
X56577506Y-45277798D01*
X56755659Y-45373023D01*
X56948967Y-45431662D01*
X57150000Y-45451462D01*
X57351033Y-45431662D01*
X57544341Y-45373023D01*
X57722494Y-45277798D01*
X57878647Y-45149647D01*
X58006798Y-44993494D01*
X58102023Y-44815341D01*
X58160662Y-44622033D01*
X58175500Y-44471380D01*
X58175500Y-43920620D01*
X58160662Y-43769967D01*
X58102023Y-43576659D01*
X58102021Y-43576656D01*
X58102021Y-43576654D01*
X58006801Y-43398511D01*
X58006799Y-43398509D01*
X58006798Y-43398506D01*
X57957651Y-43338620D01*
X57878647Y-43242352D01*
X57722495Y-43114203D01*
X57722488Y-43114198D01*
X57544345Y-43018978D01*
X57351031Y-42960337D01*
X57150000Y-42940538D01*
X56948968Y-42960337D01*
X56755654Y-43018978D01*
X56573453Y-43116367D01*
X56505050Y-43130609D01*
X56456547Y-43116367D01*
X56274345Y-43018978D01*
X56081031Y-42960337D01*
X55880000Y-42940538D01*
X55678968Y-42960337D01*
X55541371Y-43002076D01*
X55485659Y-43018977D01*
X55485657Y-43018977D01*
X55483982Y-43019486D01*
X55414115Y-43020109D01*
X55385414Y-43005902D01*
X55384872Y-43006897D01*
X55377086Y-43002645D01*
X55242379Y-42952403D01*
X55242372Y-42952401D01*
X55182844Y-42946000D01*
X54860000Y-42946000D01*
X54860000Y-43861728D01*
X54859701Y-43867808D01*
X54855370Y-43911779D01*
X54790948Y-43861637D01*
X54672576Y-43821000D01*
X54578927Y-43821000D01*
X54486554Y-43836414D01*
X54376486Y-43895981D01*
X54360000Y-43913889D01*
X54360000Y-42946000D01*
X54037155Y-42946000D01*
X53977627Y-42952401D01*
X53977620Y-42952403D01*
X53842913Y-43002645D01*
X53842906Y-43002649D01*
X53727812Y-43088809D01*
X53727809Y-43088812D01*
X53641649Y-43203906D01*
X53641645Y-43203913D01*
X53591403Y-43338620D01*
X53591401Y-43338627D01*
X53585000Y-43398155D01*
X53585000Y-43946000D01*
X54330440Y-43946000D01*
X54291722Y-43988059D01*
X54241449Y-44102670D01*
X54231114Y-44227395D01*
X54261837Y-44348719D01*
X54325394Y-44446000D01*
X53585000Y-44446000D01*
X53585000Y-44993844D01*
X12700500Y-44993844D01*
X12700500Y-41656001D01*
X59654532Y-41656001D01*
X59674364Y-41882686D01*
X59674366Y-41882697D01*
X59733258Y-42102488D01*
X59733261Y-42102497D01*
X59829431Y-42308732D01*
X59829432Y-42308734D01*
X59959954Y-42495141D01*
X60120858Y-42656045D01*
X60120861Y-42656047D01*
X60307266Y-42786568D01*
X60513504Y-42882739D01*
X60733308Y-42941635D01*
X60895230Y-42955801D01*
X60959998Y-42961468D01*
X60960000Y-42961468D01*
X60960002Y-42961468D01*
X61016673Y-42956509D01*
X61186692Y-42941635D01*
X61406496Y-42882739D01*
X61612734Y-42786568D01*
X61799139Y-42656047D01*
X61960047Y-42495139D01*
X62090568Y-42308734D01*
X62186739Y-42102496D01*
X62245635Y-41882692D01*
X62265468Y-41656001D01*
X69814532Y-41656001D01*
X69834364Y-41882686D01*
X69834366Y-41882697D01*
X69893258Y-42102488D01*
X69893261Y-42102497D01*
X69989431Y-42308732D01*
X69989432Y-42308734D01*
X70119954Y-42495141D01*
X70280858Y-42656045D01*
X70280861Y-42656047D01*
X70467266Y-42786568D01*
X70673504Y-42882739D01*
X70893308Y-42941635D01*
X71055230Y-42955801D01*
X71119998Y-42961468D01*
X71120000Y-42961468D01*
X71120002Y-42961468D01*
X71176673Y-42956509D01*
X71346692Y-42941635D01*
X71566496Y-42882739D01*
X71772734Y-42786568D01*
X71959139Y-42656047D01*
X72120047Y-42495139D01*
X72250568Y-42308734D01*
X72346739Y-42102496D01*
X72405635Y-41882692D01*
X72425468Y-41656000D01*
X72405635Y-41429308D01*
X72346739Y-41209504D01*
X72250568Y-41003266D01*
X72120047Y-40816861D01*
X72120045Y-40816858D01*
X71959141Y-40655954D01*
X71772734Y-40525432D01*
X71772732Y-40525431D01*
X71566497Y-40429261D01*
X71566488Y-40429258D01*
X71346697Y-40370366D01*
X71346693Y-40370365D01*
X71346692Y-40370365D01*
X71346691Y-40370364D01*
X71346686Y-40370364D01*
X71120002Y-40350532D01*
X71119998Y-40350532D01*
X70893313Y-40370364D01*
X70893302Y-40370366D01*
X70673511Y-40429258D01*
X70673502Y-40429261D01*
X70467267Y-40525431D01*
X70467265Y-40525432D01*
X70280858Y-40655954D01*
X70119954Y-40816858D01*
X69989432Y-41003265D01*
X69989431Y-41003267D01*
X69893261Y-41209502D01*
X69893258Y-41209511D01*
X69834366Y-41429302D01*
X69834364Y-41429313D01*
X69814532Y-41655998D01*
X69814532Y-41656001D01*
X62265468Y-41656001D01*
X62265468Y-41656000D01*
X62245635Y-41429308D01*
X62186739Y-41209504D01*
X62090568Y-41003266D01*
X61960047Y-40816861D01*
X61960045Y-40816858D01*
X61799141Y-40655954D01*
X61612734Y-40525432D01*
X61612732Y-40525431D01*
X61406497Y-40429261D01*
X61406488Y-40429258D01*
X61186697Y-40370366D01*
X61186693Y-40370365D01*
X61186692Y-40370365D01*
X61186691Y-40370364D01*
X61186686Y-40370364D01*
X60960002Y-40350532D01*
X60959998Y-40350532D01*
X60733313Y-40370364D01*
X60733302Y-40370366D01*
X60513511Y-40429258D01*
X60513502Y-40429261D01*
X60307267Y-40525431D01*
X60307265Y-40525432D01*
X60120858Y-40655954D01*
X59959954Y-40816858D01*
X59829432Y-41003265D01*
X59829431Y-41003267D01*
X59733261Y-41209502D01*
X59733258Y-41209511D01*
X59674366Y-41429302D01*
X59674364Y-41429313D01*
X59654532Y-41655998D01*
X59654532Y-41656001D01*
X12700500Y-41656001D01*
X12700500Y-37815996D01*
X16549500Y-37815996D01*
X16549501Y-39366000D01*
X16549501Y-39366018D01*
X16560000Y-39468796D01*
X16560001Y-39468799D01*
X16605894Y-39607294D01*
X16615186Y-39635334D01*
X16707288Y-39784656D01*
X16831344Y-39908712D01*
X16980666Y-40000814D01*
X17147203Y-40055999D01*
X17249991Y-40066500D01*
X18550008Y-40066499D01*
X18652797Y-40055999D01*
X18819334Y-40000814D01*
X18968656Y-39908712D01*
X19092712Y-39784656D01*
X19184814Y-39635334D01*
X19184814Y-39635331D01*
X19188178Y-39629879D01*
X19240126Y-39583154D01*
X19309088Y-39571931D01*
X19373170Y-39599774D01*
X19381398Y-39607294D01*
X19528599Y-39754495D01*
X19571675Y-39784657D01*
X19722165Y-39890032D01*
X19722167Y-39890033D01*
X19722170Y-39890035D01*
X19936337Y-39989903D01*
X20164592Y-40051063D01*
X20341034Y-40066500D01*
X20399999Y-40071659D01*
X20400000Y-40071659D01*
X20400001Y-40071659D01*
X20458966Y-40066500D01*
X20635408Y-40051063D01*
X20863663Y-39989903D01*
X21077829Y-39890035D01*
X21271401Y-39754495D01*
X21438495Y-39587401D01*
X21548426Y-39430401D01*
X21603001Y-39386778D01*
X21672500Y-39379584D01*
X21734855Y-39411106D01*
X21751571Y-39430398D01*
X21783212Y-39475586D01*
X21861506Y-39587403D01*
X21982273Y-39708169D01*
X22028599Y-39754495D01*
X22071675Y-39784657D01*
X22222165Y-39890032D01*
X22222167Y-39890033D01*
X22222170Y-39890035D01*
X22436337Y-39989903D01*
X22664592Y-40051063D01*
X22841034Y-40066500D01*
X22899999Y-40071659D01*
X22900000Y-40071659D01*
X22900001Y-40071659D01*
X22958966Y-40066500D01*
X23135408Y-40051063D01*
X23363663Y-39989903D01*
X23577829Y-39890035D01*
X23771401Y-39754495D01*
X23938495Y-39587401D01*
X24048732Y-39429965D01*
X24103306Y-39386342D01*
X24172805Y-39379148D01*
X24235159Y-39410670D01*
X24251880Y-39429967D01*
X24361886Y-39587073D01*
X24361891Y-39587079D01*
X24528917Y-39754105D01*
X24722421Y-39889600D01*
X24936507Y-39989429D01*
X24936516Y-39989433D01*
X25150000Y-40046634D01*
X25150000Y-38999018D01*
X25264801Y-39051446D01*
X25366025Y-39066000D01*
X25433975Y-39066000D01*
X25535199Y-39051446D01*
X25650000Y-38999018D01*
X25650000Y-40046633D01*
X25863483Y-39989433D01*
X25863492Y-39989429D01*
X26077577Y-39889600D01*
X26077579Y-39889599D01*
X26271073Y-39754113D01*
X26271079Y-39754108D01*
X26438108Y-39587079D01*
X26438113Y-39587073D01*
X26573599Y-39393579D01*
X26573600Y-39393577D01*
X26673429Y-39179492D01*
X26673433Y-39179483D01*
X26734567Y-38951326D01*
X26734569Y-38951316D01*
X26744221Y-38841000D01*
X25803969Y-38841000D01*
X25836519Y-38790351D01*
X25875000Y-38659295D01*
X25875000Y-38522705D01*
X25836519Y-38391649D01*
X25803969Y-38341000D01*
X26744221Y-38341000D01*
X26734569Y-38230683D01*
X26734567Y-38230673D01*
X26673433Y-38002516D01*
X26673429Y-38002507D01*
X26586458Y-37815996D01*
X36869500Y-37815996D01*
X36869501Y-39366000D01*
X36869501Y-39366018D01*
X36880000Y-39468796D01*
X36880001Y-39468799D01*
X36925894Y-39607294D01*
X36935186Y-39635334D01*
X37027288Y-39784656D01*
X37151344Y-39908712D01*
X37300666Y-40000814D01*
X37467203Y-40055999D01*
X37569991Y-40066500D01*
X38870008Y-40066499D01*
X38972797Y-40055999D01*
X39139334Y-40000814D01*
X39288656Y-39908712D01*
X39412712Y-39784656D01*
X39504814Y-39635334D01*
X39504814Y-39635331D01*
X39508178Y-39629879D01*
X39560126Y-39583154D01*
X39629088Y-39571931D01*
X39693170Y-39599774D01*
X39701398Y-39607294D01*
X39848599Y-39754495D01*
X39891675Y-39784657D01*
X40042165Y-39890032D01*
X40042167Y-39890033D01*
X40042170Y-39890035D01*
X40256337Y-39989903D01*
X40484592Y-40051063D01*
X40661034Y-40066500D01*
X40719999Y-40071659D01*
X40720000Y-40071659D01*
X40720001Y-40071659D01*
X40778966Y-40066500D01*
X40955408Y-40051063D01*
X41183663Y-39989903D01*
X41397829Y-39890035D01*
X41591401Y-39754495D01*
X41758495Y-39587401D01*
X41868426Y-39430401D01*
X41923001Y-39386778D01*
X41992500Y-39379584D01*
X42054855Y-39411106D01*
X42071571Y-39430398D01*
X42103212Y-39475586D01*
X42181506Y-39587403D01*
X42302273Y-39708169D01*
X42348599Y-39754495D01*
X42391675Y-39784657D01*
X42542165Y-39890032D01*
X42542167Y-39890033D01*
X42542170Y-39890035D01*
X42756337Y-39989903D01*
X42984592Y-40051063D01*
X43161034Y-40066500D01*
X43219999Y-40071659D01*
X43220000Y-40071659D01*
X43220001Y-40071659D01*
X43278966Y-40066500D01*
X43455408Y-40051063D01*
X43683663Y-39989903D01*
X43897829Y-39890035D01*
X44091401Y-39754495D01*
X44258495Y-39587401D01*
X44368732Y-39429965D01*
X44423306Y-39386342D01*
X44492805Y-39379148D01*
X44555159Y-39410670D01*
X44571880Y-39429967D01*
X44681886Y-39587073D01*
X44681891Y-39587079D01*
X44848917Y-39754105D01*
X45042421Y-39889600D01*
X45256507Y-39989429D01*
X45256516Y-39989433D01*
X45470000Y-40046634D01*
X45470000Y-38999018D01*
X45584801Y-39051446D01*
X45686025Y-39066000D01*
X45753975Y-39066000D01*
X45855199Y-39051446D01*
X45970000Y-38999018D01*
X45970000Y-40046633D01*
X46183483Y-39989433D01*
X46183492Y-39989429D01*
X46345585Y-39913844D01*
X53585000Y-39913844D01*
X53591401Y-39973372D01*
X53591403Y-39973379D01*
X53641645Y-40108086D01*
X53641649Y-40108093D01*
X53727809Y-40223187D01*
X53727812Y-40223190D01*
X53842906Y-40309350D01*
X53842913Y-40309354D01*
X53977620Y-40359596D01*
X53977627Y-40359598D01*
X54037155Y-40365999D01*
X54037172Y-40366000D01*
X54360000Y-40366000D01*
X54360000Y-39396617D01*
X54429052Y-39450363D01*
X54547424Y-39491000D01*
X54641073Y-39491000D01*
X54733446Y-39475586D01*
X54843514Y-39416019D01*
X54855630Y-39402856D01*
X54859701Y-39444190D01*
X54860000Y-39450270D01*
X54860000Y-40366000D01*
X55182828Y-40366000D01*
X55182844Y-40365999D01*
X55242372Y-40359598D01*
X55242376Y-40359597D01*
X55377093Y-40309350D01*
X55384876Y-40305101D01*
X55386071Y-40307289D01*
X55439109Y-40287492D01*
X55483982Y-40292513D01*
X55485653Y-40293020D01*
X55485659Y-40293023D01*
X55678967Y-40351662D01*
X55880000Y-40371462D01*
X56081033Y-40351662D01*
X56274341Y-40293023D01*
X56452494Y-40197798D01*
X56452498Y-40197794D01*
X56456546Y-40195631D01*
X56524949Y-40181389D01*
X56573454Y-40195631D01*
X56577502Y-40197794D01*
X56577506Y-40197798D01*
X56755659Y-40293023D01*
X56948967Y-40351662D01*
X57150000Y-40371462D01*
X57351033Y-40351662D01*
X57544341Y-40293023D01*
X57722494Y-40197798D01*
X57878647Y-40069647D01*
X58006798Y-39913494D01*
X58091785Y-39754495D01*
X58102021Y-39735345D01*
X58102021Y-39735344D01*
X58102023Y-39735341D01*
X58160662Y-39542033D01*
X58175500Y-39391380D01*
X58175500Y-38840620D01*
X58160662Y-38689967D01*
X58102023Y-38496659D01*
X58102021Y-38496656D01*
X58102021Y-38496654D01*
X58006801Y-38318511D01*
X58006799Y-38318509D01*
X58006798Y-38318506D01*
X57934649Y-38230592D01*
X57878647Y-38162352D01*
X57722495Y-38034203D01*
X57722488Y-38034198D01*
X57544345Y-37938978D01*
X57351031Y-37880337D01*
X57150000Y-37860538D01*
X56948968Y-37880337D01*
X56755654Y-37938978D01*
X56573453Y-38036367D01*
X56505050Y-38050609D01*
X56456547Y-38036367D01*
X56274345Y-37938978D01*
X56081031Y-37880337D01*
X55880000Y-37860538D01*
X55678968Y-37880337D01*
X55541371Y-37922076D01*
X55485659Y-37938977D01*
X55485657Y-37938977D01*
X55483982Y-37939486D01*
X55414115Y-37940109D01*
X55385414Y-37925902D01*
X55384872Y-37926897D01*
X55377086Y-37922645D01*
X55242379Y-37872403D01*
X55242372Y-37872401D01*
X55182844Y-37866000D01*
X54860000Y-37866000D01*
X54860000Y-38781728D01*
X54859701Y-38787808D01*
X54859451Y-38790351D01*
X54855370Y-38831779D01*
X54790948Y-38781637D01*
X54672576Y-38741000D01*
X54578927Y-38741000D01*
X54486554Y-38756414D01*
X54376486Y-38815981D01*
X54360000Y-38833889D01*
X54360000Y-37866000D01*
X54037155Y-37866000D01*
X53977627Y-37872401D01*
X53977620Y-37872403D01*
X53842913Y-37922645D01*
X53842906Y-37922649D01*
X53727812Y-38008809D01*
X53727809Y-38008812D01*
X53641649Y-38123906D01*
X53641645Y-38123913D01*
X53591403Y-38258620D01*
X53591401Y-38258627D01*
X53585000Y-38318155D01*
X53585000Y-38866000D01*
X54330440Y-38866000D01*
X54291722Y-38908059D01*
X54241449Y-39022670D01*
X54231114Y-39147395D01*
X54261837Y-39268719D01*
X54325394Y-39366000D01*
X53585000Y-39366000D01*
X53585000Y-39913844D01*
X46345585Y-39913844D01*
X46397577Y-39889600D01*
X46397579Y-39889599D01*
X46591073Y-39754113D01*
X46591079Y-39754108D01*
X46758108Y-39587079D01*
X46758113Y-39587073D01*
X46893599Y-39393579D01*
X46893600Y-39393577D01*
X46993429Y-39179492D01*
X46993433Y-39179483D01*
X47054567Y-38951326D01*
X47054569Y-38951316D01*
X47064221Y-38841000D01*
X46123969Y-38841000D01*
X46156519Y-38790351D01*
X46195000Y-38659295D01*
X46195000Y-38522705D01*
X46156519Y-38391649D01*
X46123969Y-38341000D01*
X47064221Y-38341000D01*
X47054569Y-38230683D01*
X47054567Y-38230673D01*
X46993433Y-38002516D01*
X46993429Y-38002507D01*
X46893600Y-37788422D01*
X46893599Y-37788420D01*
X46758113Y-37594926D01*
X46758108Y-37594920D01*
X46591082Y-37427894D01*
X46397578Y-37292399D01*
X46183492Y-37192570D01*
X46183486Y-37192567D01*
X45970000Y-37135364D01*
X45970000Y-38182981D01*
X45855199Y-38130554D01*
X45753975Y-38116000D01*
X45686025Y-38116000D01*
X45584801Y-38130554D01*
X45470000Y-38182981D01*
X45470000Y-37135364D01*
X45469999Y-37135364D01*
X45256513Y-37192567D01*
X45256507Y-37192570D01*
X45042422Y-37292399D01*
X45042420Y-37292400D01*
X44848926Y-37427886D01*
X44848920Y-37427891D01*
X44681891Y-37594920D01*
X44681890Y-37594922D01*
X44571880Y-37752032D01*
X44517303Y-37795657D01*
X44447804Y-37802849D01*
X44385450Y-37771327D01*
X44368730Y-37752031D01*
X44258494Y-37594597D01*
X44091402Y-37427506D01*
X44091395Y-37427501D01*
X44073740Y-37415139D01*
X44048324Y-37397342D01*
X43897834Y-37291967D01*
X43897830Y-37291965D01*
X43857777Y-37273288D01*
X43683663Y-37192097D01*
X43683659Y-37192096D01*
X43683655Y-37192094D01*
X43455413Y-37130938D01*
X43455403Y-37130936D01*
X43220001Y-37110341D01*
X43219999Y-37110341D01*
X42984596Y-37130936D01*
X42984586Y-37130938D01*
X42756344Y-37192094D01*
X42756335Y-37192098D01*
X42542171Y-37291964D01*
X42542169Y-37291965D01*
X42348597Y-37427505D01*
X42181505Y-37594597D01*
X42071575Y-37751595D01*
X42016998Y-37795220D01*
X41947500Y-37802414D01*
X41885145Y-37770891D01*
X41868425Y-37751595D01*
X41758494Y-37594597D01*
X41591402Y-37427506D01*
X41591395Y-37427501D01*
X41573740Y-37415139D01*
X41548324Y-37397342D01*
X41397834Y-37291967D01*
X41397830Y-37291965D01*
X41357777Y-37273288D01*
X41183663Y-37192097D01*
X41183659Y-37192096D01*
X41183655Y-37192094D01*
X40955413Y-37130938D01*
X40955403Y-37130936D01*
X40720001Y-37110341D01*
X40719999Y-37110341D01*
X40484596Y-37130936D01*
X40484586Y-37130938D01*
X40256344Y-37192094D01*
X40256335Y-37192098D01*
X40042171Y-37291964D01*
X40042169Y-37291965D01*
X39848597Y-37427505D01*
X39701398Y-37574705D01*
X39640075Y-37608190D01*
X39570383Y-37603206D01*
X39514450Y-37561334D01*
X39508178Y-37552120D01*
X39412712Y-37397344D01*
X39288657Y-37273289D01*
X39288656Y-37273288D01*
X39157786Y-37192567D01*
X39139336Y-37181187D01*
X39139331Y-37181185D01*
X39100051Y-37168169D01*
X38972797Y-37126001D01*
X38972795Y-37126000D01*
X38870010Y-37115500D01*
X37569998Y-37115500D01*
X37569981Y-37115501D01*
X37467203Y-37126000D01*
X37467200Y-37126001D01*
X37300668Y-37181185D01*
X37300663Y-37181187D01*
X37151342Y-37273289D01*
X37027289Y-37397342D01*
X36935187Y-37546663D01*
X36935185Y-37546668D01*
X36919194Y-37594926D01*
X36880001Y-37713203D01*
X36880001Y-37713204D01*
X36880000Y-37713204D01*
X36869500Y-37815983D01*
X36869500Y-37815996D01*
X26586458Y-37815996D01*
X26573600Y-37788422D01*
X26573599Y-37788420D01*
X26438113Y-37594926D01*
X26438108Y-37594920D01*
X26271082Y-37427894D01*
X26077578Y-37292399D01*
X25863492Y-37192570D01*
X25863486Y-37192567D01*
X25650000Y-37135364D01*
X25650000Y-38182981D01*
X25535199Y-38130554D01*
X25433975Y-38116000D01*
X25366025Y-38116000D01*
X25264801Y-38130554D01*
X25150000Y-38182981D01*
X25150000Y-37135364D01*
X25149999Y-37135364D01*
X24936513Y-37192567D01*
X24936507Y-37192570D01*
X24722422Y-37292399D01*
X24722420Y-37292400D01*
X24528926Y-37427886D01*
X24528920Y-37427891D01*
X24361891Y-37594920D01*
X24361890Y-37594922D01*
X24251880Y-37752032D01*
X24197303Y-37795657D01*
X24127804Y-37802849D01*
X24065450Y-37771327D01*
X24048730Y-37752031D01*
X23938494Y-37594597D01*
X23771402Y-37427506D01*
X23771395Y-37427501D01*
X23753740Y-37415139D01*
X23728324Y-37397342D01*
X23577834Y-37291967D01*
X23577830Y-37291965D01*
X23537777Y-37273288D01*
X23363663Y-37192097D01*
X23363659Y-37192096D01*
X23363655Y-37192094D01*
X23135413Y-37130938D01*
X23135403Y-37130936D01*
X22900001Y-37110341D01*
X22899999Y-37110341D01*
X22664596Y-37130936D01*
X22664586Y-37130938D01*
X22436344Y-37192094D01*
X22436335Y-37192098D01*
X22222171Y-37291964D01*
X22222169Y-37291965D01*
X22028597Y-37427505D01*
X21861505Y-37594597D01*
X21751575Y-37751595D01*
X21696998Y-37795220D01*
X21627500Y-37802414D01*
X21565145Y-37770891D01*
X21548425Y-37751595D01*
X21438494Y-37594597D01*
X21271402Y-37427506D01*
X21271395Y-37427501D01*
X21253740Y-37415139D01*
X21228324Y-37397342D01*
X21077834Y-37291967D01*
X21077830Y-37291965D01*
X21037777Y-37273288D01*
X20863663Y-37192097D01*
X20863659Y-37192096D01*
X20863655Y-37192094D01*
X20635413Y-37130938D01*
X20635403Y-37130936D01*
X20400001Y-37110341D01*
X20399999Y-37110341D01*
X20164596Y-37130936D01*
X20164586Y-37130938D01*
X19936344Y-37192094D01*
X19936335Y-37192098D01*
X19722171Y-37291964D01*
X19722169Y-37291965D01*
X19528597Y-37427505D01*
X19381398Y-37574705D01*
X19320075Y-37608190D01*
X19250383Y-37603206D01*
X19194450Y-37561334D01*
X19188178Y-37552120D01*
X19092712Y-37397344D01*
X18968657Y-37273289D01*
X18968656Y-37273288D01*
X18837786Y-37192567D01*
X18819336Y-37181187D01*
X18819331Y-37181185D01*
X18780051Y-37168169D01*
X18652797Y-37126001D01*
X18652795Y-37126000D01*
X18550010Y-37115500D01*
X17249998Y-37115500D01*
X17249981Y-37115501D01*
X17147203Y-37126000D01*
X17147200Y-37126001D01*
X16980668Y-37181185D01*
X16980663Y-37181187D01*
X16831342Y-37273289D01*
X16707289Y-37397342D01*
X16615187Y-37546663D01*
X16615185Y-37546668D01*
X16599194Y-37594926D01*
X16560001Y-37713203D01*
X16560001Y-37713204D01*
X16560000Y-37713204D01*
X16549500Y-37815983D01*
X16549500Y-37815996D01*
X12700500Y-37815996D01*
X12700500Y-36576001D01*
X59654532Y-36576001D01*
X59674364Y-36802686D01*
X59674366Y-36802697D01*
X59733258Y-37022488D01*
X59733261Y-37022497D01*
X59829431Y-37228732D01*
X59829432Y-37228734D01*
X59959954Y-37415141D01*
X60120858Y-37576045D01*
X60147823Y-37594926D01*
X60307266Y-37706568D01*
X60513504Y-37802739D01*
X60513509Y-37802740D01*
X60513511Y-37802741D01*
X60562932Y-37815983D01*
X60733308Y-37861635D01*
X60895230Y-37875801D01*
X60959998Y-37881468D01*
X60960000Y-37881468D01*
X60960002Y-37881468D01*
X61016673Y-37876509D01*
X61186692Y-37861635D01*
X61406496Y-37802739D01*
X61612734Y-37706568D01*
X61799139Y-37576047D01*
X61960047Y-37415139D01*
X62090568Y-37228734D01*
X62186739Y-37022496D01*
X62245635Y-36802692D01*
X62265468Y-36576001D01*
X69814532Y-36576001D01*
X69834364Y-36802686D01*
X69834366Y-36802697D01*
X69893258Y-37022488D01*
X69893261Y-37022497D01*
X69989431Y-37228732D01*
X69989432Y-37228734D01*
X70119954Y-37415141D01*
X70280858Y-37576045D01*
X70307823Y-37594926D01*
X70467266Y-37706568D01*
X70673504Y-37802739D01*
X70673509Y-37802740D01*
X70673511Y-37802741D01*
X70722932Y-37815983D01*
X70893308Y-37861635D01*
X71055230Y-37875801D01*
X71119998Y-37881468D01*
X71120000Y-37881468D01*
X71120002Y-37881468D01*
X71176673Y-37876509D01*
X71346692Y-37861635D01*
X71566496Y-37802739D01*
X71772734Y-37706568D01*
X71959139Y-37576047D01*
X72120047Y-37415139D01*
X72250568Y-37228734D01*
X72346739Y-37022496D01*
X72405635Y-36802692D01*
X72425468Y-36576000D01*
X72405635Y-36349308D01*
X72346739Y-36129504D01*
X72250568Y-35923266D01*
X72120047Y-35736861D01*
X72120045Y-35736858D01*
X71959141Y-35575954D01*
X71772734Y-35445432D01*
X71772732Y-35445431D01*
X71566497Y-35349261D01*
X71566488Y-35349258D01*
X71346697Y-35290366D01*
X71346693Y-35290365D01*
X71346692Y-35290365D01*
X71346691Y-35290364D01*
X71346686Y-35290364D01*
X71120002Y-35270532D01*
X71119998Y-35270532D01*
X70893313Y-35290364D01*
X70893302Y-35290366D01*
X70673511Y-35349258D01*
X70673502Y-35349261D01*
X70467267Y-35445431D01*
X70467265Y-35445432D01*
X70280858Y-35575954D01*
X70119954Y-35736858D01*
X69989432Y-35923265D01*
X69989431Y-35923267D01*
X69893261Y-36129502D01*
X69893258Y-36129511D01*
X69834366Y-36349302D01*
X69834364Y-36349313D01*
X69814532Y-36575998D01*
X69814532Y-36576001D01*
X62265468Y-36576001D01*
X62265468Y-36576000D01*
X62245635Y-36349308D01*
X62186739Y-36129504D01*
X62090568Y-35923266D01*
X61960047Y-35736861D01*
X61960045Y-35736858D01*
X61799141Y-35575954D01*
X61612734Y-35445432D01*
X61612732Y-35445431D01*
X61406497Y-35349261D01*
X61406488Y-35349258D01*
X61186697Y-35290366D01*
X61186693Y-35290365D01*
X61186692Y-35290365D01*
X61186691Y-35290364D01*
X61186686Y-35290364D01*
X60960002Y-35270532D01*
X60959998Y-35270532D01*
X60733313Y-35290364D01*
X60733302Y-35290366D01*
X60513511Y-35349258D01*
X60513502Y-35349261D01*
X60307267Y-35445431D01*
X60307265Y-35445432D01*
X60120858Y-35575954D01*
X59959954Y-35736858D01*
X59829432Y-35923265D01*
X59829431Y-35923267D01*
X59733261Y-36129502D01*
X59733258Y-36129511D01*
X59674366Y-36349302D01*
X59674364Y-36349313D01*
X59654532Y-36575998D01*
X59654532Y-36576001D01*
X12700500Y-36576001D01*
X12700500Y-34833844D01*
X53585000Y-34833844D01*
X53591401Y-34893372D01*
X53591403Y-34893379D01*
X53641645Y-35028086D01*
X53641649Y-35028093D01*
X53727809Y-35143187D01*
X53727812Y-35143190D01*
X53842906Y-35229350D01*
X53842913Y-35229354D01*
X53977620Y-35279596D01*
X53977627Y-35279598D01*
X54037155Y-35285999D01*
X54037172Y-35286000D01*
X54360000Y-35286000D01*
X54360000Y-34316617D01*
X54429052Y-34370363D01*
X54547424Y-34411000D01*
X54641073Y-34411000D01*
X54733446Y-34395586D01*
X54843514Y-34336019D01*
X54855630Y-34322857D01*
X54856927Y-34336019D01*
X54859701Y-34364190D01*
X54860000Y-34370270D01*
X54860000Y-35286000D01*
X55182828Y-35286000D01*
X55182844Y-35285999D01*
X55242372Y-35279598D01*
X55242376Y-35279597D01*
X55377093Y-35229350D01*
X55384876Y-35225101D01*
X55386071Y-35227289D01*
X55439109Y-35207492D01*
X55483982Y-35212513D01*
X55485653Y-35213020D01*
X55485659Y-35213023D01*
X55678967Y-35271662D01*
X55880000Y-35291462D01*
X56081033Y-35271662D01*
X56274341Y-35213023D01*
X56452494Y-35117798D01*
X56452498Y-35117794D01*
X56456546Y-35115631D01*
X56524949Y-35101389D01*
X56573454Y-35115631D01*
X56577502Y-35117794D01*
X56577506Y-35117798D01*
X56755659Y-35213023D01*
X56948967Y-35271662D01*
X57150000Y-35291462D01*
X57351033Y-35271662D01*
X57544341Y-35213023D01*
X57722494Y-35117798D01*
X57878647Y-34989647D01*
X58006798Y-34833494D01*
X58102023Y-34655341D01*
X58160662Y-34462033D01*
X58175500Y-34311380D01*
X58175500Y-33760620D01*
X58160662Y-33609967D01*
X58102023Y-33416659D01*
X58102021Y-33416656D01*
X58102021Y-33416654D01*
X58006801Y-33238511D01*
X58006799Y-33238509D01*
X58006798Y-33238506D01*
X57957651Y-33178620D01*
X57878647Y-33082352D01*
X57722495Y-32954203D01*
X57722488Y-32954198D01*
X57544345Y-32858978D01*
X57351031Y-32800337D01*
X57150000Y-32780538D01*
X56948968Y-32800337D01*
X56755654Y-32858978D01*
X56573453Y-32956367D01*
X56505050Y-32970609D01*
X56456547Y-32956367D01*
X56274345Y-32858978D01*
X56081031Y-32800337D01*
X55880000Y-32780538D01*
X55678968Y-32800337D01*
X55550437Y-32839327D01*
X55485659Y-32858977D01*
X55485657Y-32858977D01*
X55483982Y-32859486D01*
X55414115Y-32860109D01*
X55385414Y-32845902D01*
X55384872Y-32846897D01*
X55377086Y-32842645D01*
X55242379Y-32792403D01*
X55242372Y-32792401D01*
X55182844Y-32786000D01*
X54860000Y-32786000D01*
X54860000Y-33701728D01*
X54859701Y-33707808D01*
X54858168Y-33723379D01*
X54855370Y-33751779D01*
X54790948Y-33701637D01*
X54672576Y-33661000D01*
X54578927Y-33661000D01*
X54486554Y-33676414D01*
X54376486Y-33735981D01*
X54360000Y-33753889D01*
X54360000Y-32786000D01*
X54037155Y-32786000D01*
X53977627Y-32792401D01*
X53977620Y-32792403D01*
X53842913Y-32842645D01*
X53842906Y-32842649D01*
X53727812Y-32928809D01*
X53727809Y-32928812D01*
X53641649Y-33043906D01*
X53641645Y-33043913D01*
X53591403Y-33178620D01*
X53591401Y-33178627D01*
X53585000Y-33238155D01*
X53585000Y-33786000D01*
X54330440Y-33786000D01*
X54291722Y-33828059D01*
X54241449Y-33942670D01*
X54231114Y-34067395D01*
X54261837Y-34188719D01*
X54325394Y-34286000D01*
X53585000Y-34286000D01*
X53585000Y-34833844D01*
X12700500Y-34833844D01*
X12700500Y-31496001D01*
X59654532Y-31496001D01*
X59674364Y-31722686D01*
X59674366Y-31722697D01*
X59733258Y-31942488D01*
X59733261Y-31942497D01*
X59829431Y-32148732D01*
X59829432Y-32148734D01*
X59959954Y-32335141D01*
X60120858Y-32496045D01*
X60120861Y-32496047D01*
X60307266Y-32626568D01*
X60513504Y-32722739D01*
X60733308Y-32781635D01*
X60895230Y-32795801D01*
X60959998Y-32801468D01*
X60960000Y-32801468D01*
X60960002Y-32801468D01*
X61016673Y-32796509D01*
X61186692Y-32781635D01*
X61406496Y-32722739D01*
X61612734Y-32626568D01*
X61799139Y-32496047D01*
X61960047Y-32335139D01*
X62090568Y-32148734D01*
X62186739Y-31942496D01*
X62245635Y-31722692D01*
X62265468Y-31496001D01*
X69814532Y-31496001D01*
X69834364Y-31722686D01*
X69834366Y-31722697D01*
X69893258Y-31942488D01*
X69893261Y-31942497D01*
X69989431Y-32148732D01*
X69989432Y-32148734D01*
X70119954Y-32335141D01*
X70280858Y-32496045D01*
X70280861Y-32496047D01*
X70467266Y-32626568D01*
X70673504Y-32722739D01*
X70893308Y-32781635D01*
X71055230Y-32795801D01*
X71119998Y-32801468D01*
X71120000Y-32801468D01*
X71120002Y-32801468D01*
X71176673Y-32796509D01*
X71346692Y-32781635D01*
X71566496Y-32722739D01*
X71772734Y-32626568D01*
X71959139Y-32496047D01*
X72120047Y-32335139D01*
X72250568Y-32148734D01*
X72346739Y-31942496D01*
X72405635Y-31722692D01*
X72425468Y-31496000D01*
X72405635Y-31269308D01*
X72346739Y-31049504D01*
X72250568Y-30843266D01*
X72120047Y-30656861D01*
X72120045Y-30656858D01*
X71959141Y-30495954D01*
X71772734Y-30365432D01*
X71772732Y-30365431D01*
X71566497Y-30269261D01*
X71566488Y-30269258D01*
X71346697Y-30210366D01*
X71346693Y-30210365D01*
X71346692Y-30210365D01*
X71346691Y-30210364D01*
X71346686Y-30210364D01*
X71120002Y-30190532D01*
X71119998Y-30190532D01*
X70893313Y-30210364D01*
X70893302Y-30210366D01*
X70673511Y-30269258D01*
X70673502Y-30269261D01*
X70467267Y-30365431D01*
X70467265Y-30365432D01*
X70280858Y-30495954D01*
X70119954Y-30656858D01*
X69989432Y-30843265D01*
X69989431Y-30843267D01*
X69893261Y-31049502D01*
X69893258Y-31049511D01*
X69834366Y-31269302D01*
X69834364Y-31269313D01*
X69814532Y-31495998D01*
X69814532Y-31496001D01*
X62265468Y-31496001D01*
X62265468Y-31496000D01*
X62245635Y-31269308D01*
X62186739Y-31049504D01*
X62090568Y-30843266D01*
X61960047Y-30656861D01*
X61960045Y-30656858D01*
X61799141Y-30495954D01*
X61612734Y-30365432D01*
X61612732Y-30365431D01*
X61406497Y-30269261D01*
X61406488Y-30269258D01*
X61186697Y-30210366D01*
X61186693Y-30210365D01*
X61186692Y-30210365D01*
X61186691Y-30210364D01*
X61186686Y-30210364D01*
X60960002Y-30190532D01*
X60959998Y-30190532D01*
X60733313Y-30210364D01*
X60733302Y-30210366D01*
X60513511Y-30269258D01*
X60513502Y-30269261D01*
X60307267Y-30365431D01*
X60307265Y-30365432D01*
X60120858Y-30495954D01*
X59959954Y-30656858D01*
X59829432Y-30843265D01*
X59829431Y-30843267D01*
X59733261Y-31049502D01*
X59733258Y-31049511D01*
X59674366Y-31269302D01*
X59674364Y-31269313D01*
X59654532Y-31495998D01*
X59654532Y-31496001D01*
X12700500Y-31496001D01*
X12700500Y-27655996D01*
X16549500Y-27655996D01*
X16549501Y-29206000D01*
X16549501Y-29206018D01*
X16560000Y-29308796D01*
X16560001Y-29308799D01*
X16605894Y-29447294D01*
X16615186Y-29475334D01*
X16707288Y-29624656D01*
X16831344Y-29748712D01*
X16980666Y-29840814D01*
X17147203Y-29895999D01*
X17249991Y-29906500D01*
X18550008Y-29906499D01*
X18652797Y-29895999D01*
X18819334Y-29840814D01*
X18968656Y-29748712D01*
X19092712Y-29624656D01*
X19184814Y-29475334D01*
X19184814Y-29475331D01*
X19188178Y-29469879D01*
X19240126Y-29423154D01*
X19309088Y-29411931D01*
X19373170Y-29439774D01*
X19381398Y-29447294D01*
X19528599Y-29594495D01*
X19571675Y-29624657D01*
X19722165Y-29730032D01*
X19722167Y-29730033D01*
X19722170Y-29730035D01*
X19936337Y-29829903D01*
X20164592Y-29891063D01*
X20341034Y-29906500D01*
X20399999Y-29911659D01*
X20400000Y-29911659D01*
X20400001Y-29911659D01*
X20458966Y-29906500D01*
X20635408Y-29891063D01*
X20863663Y-29829903D01*
X21077829Y-29730035D01*
X21271401Y-29594495D01*
X21438495Y-29427401D01*
X21548426Y-29270401D01*
X21603001Y-29226778D01*
X21672500Y-29219584D01*
X21734855Y-29251106D01*
X21751571Y-29270398D01*
X21783212Y-29315586D01*
X21861506Y-29427403D01*
X21982273Y-29548169D01*
X22028599Y-29594495D01*
X22071675Y-29624657D01*
X22222165Y-29730032D01*
X22222167Y-29730033D01*
X22222170Y-29730035D01*
X22436337Y-29829903D01*
X22664592Y-29891063D01*
X22841034Y-29906500D01*
X22899999Y-29911659D01*
X22900000Y-29911659D01*
X22900001Y-29911659D01*
X22958966Y-29906500D01*
X23135408Y-29891063D01*
X23363663Y-29829903D01*
X23577829Y-29730035D01*
X23771401Y-29594495D01*
X23938495Y-29427401D01*
X24048732Y-29269965D01*
X24103306Y-29226342D01*
X24172805Y-29219148D01*
X24235159Y-29250670D01*
X24251880Y-29269967D01*
X24361886Y-29427073D01*
X24361891Y-29427079D01*
X24528917Y-29594105D01*
X24722421Y-29729600D01*
X24936507Y-29829429D01*
X24936516Y-29829433D01*
X25150000Y-29886634D01*
X25150000Y-28839018D01*
X25264801Y-28891446D01*
X25366025Y-28906000D01*
X25433975Y-28906000D01*
X25535199Y-28891446D01*
X25650000Y-28839018D01*
X25650000Y-29886633D01*
X25863483Y-29829433D01*
X25863492Y-29829429D01*
X26077577Y-29729600D01*
X26077579Y-29729599D01*
X26271073Y-29594113D01*
X26271079Y-29594108D01*
X26438108Y-29427079D01*
X26438113Y-29427073D01*
X26573599Y-29233579D01*
X26573600Y-29233577D01*
X26673429Y-29019492D01*
X26673433Y-29019483D01*
X26734567Y-28791326D01*
X26734569Y-28791316D01*
X26744221Y-28681000D01*
X25803969Y-28681000D01*
X25836519Y-28630351D01*
X25875000Y-28499295D01*
X25875000Y-28362705D01*
X25836519Y-28231649D01*
X25803969Y-28181000D01*
X26744221Y-28181000D01*
X26734569Y-28070683D01*
X26734567Y-28070673D01*
X26673433Y-27842516D01*
X26673429Y-27842507D01*
X26586458Y-27655996D01*
X36869500Y-27655996D01*
X36869501Y-29206000D01*
X36869501Y-29206018D01*
X36880000Y-29308796D01*
X36880001Y-29308799D01*
X36925894Y-29447294D01*
X36935186Y-29475334D01*
X37027288Y-29624656D01*
X37151344Y-29748712D01*
X37300666Y-29840814D01*
X37467203Y-29895999D01*
X37569991Y-29906500D01*
X38870008Y-29906499D01*
X38972797Y-29895999D01*
X39139334Y-29840814D01*
X39288656Y-29748712D01*
X39412712Y-29624656D01*
X39504814Y-29475334D01*
X39504814Y-29475331D01*
X39508178Y-29469879D01*
X39560126Y-29423154D01*
X39629088Y-29411931D01*
X39693170Y-29439774D01*
X39701398Y-29447294D01*
X39848599Y-29594495D01*
X39891675Y-29624657D01*
X40042165Y-29730032D01*
X40042167Y-29730033D01*
X40042170Y-29730035D01*
X40256337Y-29829903D01*
X40484592Y-29891063D01*
X40661034Y-29906500D01*
X40719999Y-29911659D01*
X40720000Y-29911659D01*
X40720001Y-29911659D01*
X40778966Y-29906500D01*
X40955408Y-29891063D01*
X41183663Y-29829903D01*
X41397829Y-29730035D01*
X41591401Y-29594495D01*
X41758495Y-29427401D01*
X41868426Y-29270401D01*
X41923001Y-29226778D01*
X41992500Y-29219584D01*
X42054855Y-29251106D01*
X42071571Y-29270398D01*
X42103212Y-29315586D01*
X42181506Y-29427403D01*
X42302273Y-29548169D01*
X42348599Y-29594495D01*
X42391675Y-29624657D01*
X42542165Y-29730032D01*
X42542167Y-29730033D01*
X42542170Y-29730035D01*
X42756337Y-29829903D01*
X42984592Y-29891063D01*
X43161034Y-29906500D01*
X43219999Y-29911659D01*
X43220000Y-29911659D01*
X43220001Y-29911659D01*
X43278966Y-29906500D01*
X43455408Y-29891063D01*
X43683663Y-29829903D01*
X43897829Y-29730035D01*
X44091401Y-29594495D01*
X44258495Y-29427401D01*
X44368732Y-29269965D01*
X44423306Y-29226342D01*
X44492805Y-29219148D01*
X44555159Y-29250670D01*
X44571880Y-29269967D01*
X44681886Y-29427073D01*
X44681891Y-29427079D01*
X44848917Y-29594105D01*
X45042421Y-29729600D01*
X45256507Y-29829429D01*
X45256516Y-29829433D01*
X45470000Y-29886634D01*
X45470000Y-28839018D01*
X45584801Y-28891446D01*
X45686025Y-28906000D01*
X45753975Y-28906000D01*
X45855199Y-28891446D01*
X45970000Y-28839018D01*
X45970000Y-29886633D01*
X46183483Y-29829433D01*
X46183492Y-29829429D01*
X46345585Y-29753844D01*
X53585000Y-29753844D01*
X53591401Y-29813372D01*
X53591403Y-29813379D01*
X53641645Y-29948086D01*
X53641649Y-29948093D01*
X53727809Y-30063187D01*
X53727812Y-30063190D01*
X53842906Y-30149350D01*
X53842913Y-30149354D01*
X53977620Y-30199596D01*
X53977627Y-30199598D01*
X54037155Y-30205999D01*
X54037172Y-30206000D01*
X54360000Y-30206000D01*
X54360000Y-29236617D01*
X54429052Y-29290363D01*
X54547424Y-29331000D01*
X54641073Y-29331000D01*
X54733446Y-29315586D01*
X54843514Y-29256019D01*
X54855630Y-29242856D01*
X54859701Y-29284190D01*
X54860000Y-29290270D01*
X54860000Y-30206000D01*
X55182828Y-30206000D01*
X55182844Y-30205999D01*
X55242372Y-30199598D01*
X55242376Y-30199597D01*
X55377093Y-30149350D01*
X55384876Y-30145101D01*
X55386071Y-30147289D01*
X55439109Y-30127492D01*
X55483982Y-30132513D01*
X55485653Y-30133020D01*
X55485659Y-30133023D01*
X55678967Y-30191662D01*
X55880000Y-30211462D01*
X56081033Y-30191662D01*
X56274341Y-30133023D01*
X56452494Y-30037798D01*
X56452498Y-30037794D01*
X56456546Y-30035631D01*
X56524949Y-30021389D01*
X56573454Y-30035631D01*
X56577502Y-30037794D01*
X56577506Y-30037798D01*
X56755659Y-30133023D01*
X56948967Y-30191662D01*
X57150000Y-30211462D01*
X57351033Y-30191662D01*
X57544341Y-30133023D01*
X57722494Y-30037798D01*
X57878647Y-29909647D01*
X58006798Y-29753494D01*
X58091785Y-29594495D01*
X58102021Y-29575345D01*
X58102021Y-29575344D01*
X58102023Y-29575341D01*
X58160662Y-29382033D01*
X58175500Y-29231380D01*
X58175500Y-28680620D01*
X58160662Y-28529967D01*
X58102023Y-28336659D01*
X58102021Y-28336656D01*
X58102021Y-28336654D01*
X58006801Y-28158511D01*
X58006799Y-28158509D01*
X58006798Y-28158506D01*
X57934649Y-28070592D01*
X57878647Y-28002352D01*
X57722495Y-27874203D01*
X57722488Y-27874198D01*
X57544345Y-27778978D01*
X57351031Y-27720337D01*
X57150000Y-27700538D01*
X56948968Y-27720337D01*
X56755654Y-27778978D01*
X56573453Y-27876367D01*
X56505050Y-27890609D01*
X56456547Y-27876367D01*
X56274345Y-27778978D01*
X56081031Y-27720337D01*
X55880000Y-27700538D01*
X55678968Y-27720337D01*
X55541371Y-27762076D01*
X55485659Y-27778977D01*
X55485657Y-27778977D01*
X55483982Y-27779486D01*
X55414115Y-27780109D01*
X55385414Y-27765902D01*
X55384872Y-27766897D01*
X55377086Y-27762645D01*
X55242379Y-27712403D01*
X55242372Y-27712401D01*
X55182844Y-27706000D01*
X54860000Y-27706000D01*
X54860000Y-28621728D01*
X54859701Y-28627808D01*
X54859451Y-28630351D01*
X54855370Y-28671779D01*
X54790948Y-28621637D01*
X54672576Y-28581000D01*
X54578927Y-28581000D01*
X54486554Y-28596414D01*
X54376486Y-28655981D01*
X54360000Y-28673889D01*
X54360000Y-27706000D01*
X54037155Y-27706000D01*
X53977627Y-27712401D01*
X53977620Y-27712403D01*
X53842913Y-27762645D01*
X53842906Y-27762649D01*
X53727812Y-27848809D01*
X53727809Y-27848812D01*
X53641649Y-27963906D01*
X53641645Y-27963913D01*
X53591403Y-28098620D01*
X53591401Y-28098627D01*
X53585000Y-28158155D01*
X53585000Y-28706000D01*
X54330440Y-28706000D01*
X54291722Y-28748059D01*
X54241449Y-28862670D01*
X54231114Y-28987395D01*
X54261837Y-29108719D01*
X54325394Y-29206000D01*
X53585000Y-29206000D01*
X53585000Y-29753844D01*
X46345585Y-29753844D01*
X46397577Y-29729600D01*
X46397579Y-29729599D01*
X46591073Y-29594113D01*
X46591079Y-29594108D01*
X46758108Y-29427079D01*
X46758113Y-29427073D01*
X46893599Y-29233579D01*
X46893600Y-29233577D01*
X46993429Y-29019492D01*
X46993433Y-29019483D01*
X47054567Y-28791326D01*
X47054569Y-28791316D01*
X47064221Y-28681000D01*
X46123969Y-28681000D01*
X46156519Y-28630351D01*
X46195000Y-28499295D01*
X46195000Y-28362705D01*
X46156519Y-28231649D01*
X46123969Y-28181000D01*
X47064221Y-28181000D01*
X47054569Y-28070683D01*
X47054567Y-28070673D01*
X46993433Y-27842516D01*
X46993429Y-27842507D01*
X46893600Y-27628422D01*
X46893599Y-27628420D01*
X46758113Y-27434926D01*
X46758108Y-27434920D01*
X46591082Y-27267894D01*
X46397578Y-27132399D01*
X46183492Y-27032570D01*
X46183486Y-27032567D01*
X45970000Y-26975364D01*
X45970000Y-28022981D01*
X45855199Y-27970554D01*
X45753975Y-27956000D01*
X45686025Y-27956000D01*
X45584801Y-27970554D01*
X45470000Y-28022981D01*
X45470000Y-26975364D01*
X45469999Y-26975364D01*
X45256513Y-27032567D01*
X45256507Y-27032570D01*
X45042422Y-27132399D01*
X45042420Y-27132400D01*
X44848926Y-27267886D01*
X44848920Y-27267891D01*
X44681891Y-27434920D01*
X44681890Y-27434922D01*
X44571880Y-27592032D01*
X44517303Y-27635657D01*
X44447804Y-27642849D01*
X44385450Y-27611327D01*
X44368730Y-27592031D01*
X44258494Y-27434597D01*
X44091402Y-27267506D01*
X44091395Y-27267501D01*
X43897834Y-27131967D01*
X43897830Y-27131965D01*
X43857777Y-27113288D01*
X43683663Y-27032097D01*
X43683659Y-27032096D01*
X43683655Y-27032094D01*
X43455413Y-26970938D01*
X43455403Y-26970936D01*
X43220001Y-26950341D01*
X43219999Y-26950341D01*
X42984596Y-26970936D01*
X42984586Y-26970938D01*
X42756344Y-27032094D01*
X42756335Y-27032098D01*
X42542171Y-27131964D01*
X42542169Y-27131965D01*
X42348597Y-27267505D01*
X42181505Y-27434597D01*
X42071575Y-27591595D01*
X42016998Y-27635220D01*
X41947500Y-27642414D01*
X41885145Y-27610891D01*
X41868425Y-27591595D01*
X41758494Y-27434597D01*
X41591402Y-27267506D01*
X41591395Y-27267501D01*
X41397834Y-27131967D01*
X41397830Y-27131965D01*
X41357777Y-27113288D01*
X41183663Y-27032097D01*
X41183659Y-27032096D01*
X41183655Y-27032094D01*
X40955413Y-26970938D01*
X40955403Y-26970936D01*
X40720001Y-26950341D01*
X40719999Y-26950341D01*
X40484596Y-26970936D01*
X40484586Y-26970938D01*
X40256344Y-27032094D01*
X40256335Y-27032098D01*
X40042171Y-27131964D01*
X40042169Y-27131965D01*
X39848597Y-27267505D01*
X39701398Y-27414705D01*
X39640075Y-27448190D01*
X39570383Y-27443206D01*
X39514450Y-27401334D01*
X39508178Y-27392120D01*
X39412712Y-27237344D01*
X39288657Y-27113289D01*
X39288656Y-27113288D01*
X39157786Y-27032567D01*
X39139336Y-27021187D01*
X39139331Y-27021185D01*
X39100051Y-27008169D01*
X38972797Y-26966001D01*
X38972795Y-26966000D01*
X38870010Y-26955500D01*
X37569998Y-26955500D01*
X37569981Y-26955501D01*
X37467203Y-26966000D01*
X37467200Y-26966001D01*
X37300668Y-27021185D01*
X37300663Y-27021187D01*
X37151342Y-27113289D01*
X37027289Y-27237342D01*
X36935187Y-27386663D01*
X36935185Y-27386668D01*
X36919194Y-27434926D01*
X36880001Y-27553203D01*
X36880001Y-27553204D01*
X36880000Y-27553204D01*
X36869500Y-27655983D01*
X36869500Y-27655996D01*
X26586458Y-27655996D01*
X26573600Y-27628422D01*
X26573599Y-27628420D01*
X26438113Y-27434926D01*
X26438108Y-27434920D01*
X26271082Y-27267894D01*
X26077578Y-27132399D01*
X25863492Y-27032570D01*
X25863486Y-27032567D01*
X25650000Y-26975364D01*
X25650000Y-28022981D01*
X25535199Y-27970554D01*
X25433975Y-27956000D01*
X25366025Y-27956000D01*
X25264801Y-27970554D01*
X25150000Y-28022981D01*
X25150000Y-26975364D01*
X25149999Y-26975364D01*
X24936513Y-27032567D01*
X24936507Y-27032570D01*
X24722422Y-27132399D01*
X24722420Y-27132400D01*
X24528926Y-27267886D01*
X24528920Y-27267891D01*
X24361891Y-27434920D01*
X24361890Y-27434922D01*
X24251880Y-27592032D01*
X24197303Y-27635657D01*
X24127804Y-27642849D01*
X24065450Y-27611327D01*
X24048730Y-27592031D01*
X23938494Y-27434597D01*
X23771402Y-27267506D01*
X23771395Y-27267501D01*
X23577834Y-27131967D01*
X23577830Y-27131965D01*
X23537777Y-27113288D01*
X23363663Y-27032097D01*
X23363659Y-27032096D01*
X23363655Y-27032094D01*
X23135413Y-26970938D01*
X23135403Y-26970936D01*
X22900001Y-26950341D01*
X22899999Y-26950341D01*
X22664596Y-26970936D01*
X22664586Y-26970938D01*
X22436344Y-27032094D01*
X22436335Y-27032098D01*
X22222171Y-27131964D01*
X22222169Y-27131965D01*
X22028597Y-27267505D01*
X21861505Y-27434597D01*
X21751575Y-27591595D01*
X21696998Y-27635220D01*
X21627500Y-27642414D01*
X21565145Y-27610891D01*
X21548425Y-27591595D01*
X21438494Y-27434597D01*
X21271402Y-27267506D01*
X21271395Y-27267501D01*
X21077834Y-27131967D01*
X21077830Y-27131965D01*
X21037777Y-27113288D01*
X20863663Y-27032097D01*
X20863659Y-27032096D01*
X20863655Y-27032094D01*
X20635413Y-26970938D01*
X20635403Y-26970936D01*
X20400001Y-26950341D01*
X20399999Y-26950341D01*
X20164596Y-26970936D01*
X20164586Y-26970938D01*
X19936344Y-27032094D01*
X19936335Y-27032098D01*
X19722171Y-27131964D01*
X19722169Y-27131965D01*
X19528597Y-27267505D01*
X19381398Y-27414705D01*
X19320075Y-27448190D01*
X19250383Y-27443206D01*
X19194450Y-27401334D01*
X19188178Y-27392120D01*
X19092712Y-27237344D01*
X18968657Y-27113289D01*
X18968656Y-27113288D01*
X18837786Y-27032567D01*
X18819336Y-27021187D01*
X18819331Y-27021185D01*
X18780051Y-27008169D01*
X18652797Y-26966001D01*
X18652795Y-26966000D01*
X18550010Y-26955500D01*
X17249998Y-26955500D01*
X17249981Y-26955501D01*
X17147203Y-26966000D01*
X17147200Y-26966001D01*
X16980668Y-27021185D01*
X16980663Y-27021187D01*
X16831342Y-27113289D01*
X16707289Y-27237342D01*
X16615187Y-27386663D01*
X16615185Y-27386668D01*
X16599194Y-27434926D01*
X16560001Y-27553203D01*
X16560001Y-27553204D01*
X16560000Y-27553204D01*
X16549500Y-27655983D01*
X16549500Y-27655996D01*
X12700500Y-27655996D01*
X12700500Y-19046001D01*
X16549500Y-19046001D01*
X16549501Y-19046018D01*
X16560000Y-19148796D01*
X16560001Y-19148799D01*
X16615185Y-19315331D01*
X16615187Y-19315336D01*
X16621504Y-19325577D01*
X16707288Y-19464656D01*
X16831344Y-19588712D01*
X16980666Y-19680814D01*
X17147203Y-19735999D01*
X17249991Y-19746500D01*
X18550008Y-19746499D01*
X18652797Y-19735999D01*
X18819334Y-19680814D01*
X18968656Y-19588712D01*
X19092712Y-19464656D01*
X19184814Y-19315334D01*
X19184814Y-19315331D01*
X19188178Y-19309879D01*
X19240126Y-19263154D01*
X19309088Y-19251931D01*
X19373170Y-19279774D01*
X19381398Y-19287294D01*
X19528599Y-19434495D01*
X19571675Y-19464657D01*
X19722165Y-19570032D01*
X19722167Y-19570033D01*
X19722170Y-19570035D01*
X19936337Y-19669903D01*
X20164592Y-19731063D01*
X20341034Y-19746500D01*
X20399999Y-19751659D01*
X20400000Y-19751659D01*
X20400001Y-19751659D01*
X20458966Y-19746500D01*
X20635408Y-19731063D01*
X20863663Y-19669903D01*
X21077829Y-19570035D01*
X21271401Y-19434495D01*
X21438495Y-19267401D01*
X21548426Y-19110401D01*
X21603001Y-19066778D01*
X21672500Y-19059584D01*
X21734855Y-19091106D01*
X21751571Y-19110398D01*
X21810901Y-19195131D01*
X21861506Y-19267403D01*
X21946830Y-19352726D01*
X22028599Y-19434495D01*
X22071675Y-19464657D01*
X22222165Y-19570032D01*
X22222167Y-19570033D01*
X22222170Y-19570035D01*
X22436337Y-19669903D01*
X22664592Y-19731063D01*
X22841034Y-19746500D01*
X22899999Y-19751659D01*
X22900000Y-19751659D01*
X22900001Y-19751659D01*
X22958966Y-19746500D01*
X23135408Y-19731063D01*
X23363663Y-19669903D01*
X23577829Y-19570035D01*
X23771401Y-19434495D01*
X23938495Y-19267401D01*
X24048732Y-19109965D01*
X24103306Y-19066342D01*
X24172805Y-19059148D01*
X24235159Y-19090670D01*
X24251880Y-19109967D01*
X24361886Y-19267073D01*
X24361891Y-19267079D01*
X24528917Y-19434105D01*
X24722421Y-19569600D01*
X24936507Y-19669429D01*
X24936516Y-19669433D01*
X25150000Y-19726634D01*
X25150000Y-18679018D01*
X25264801Y-18731446D01*
X25366025Y-18746000D01*
X25433975Y-18746000D01*
X25535199Y-18731446D01*
X25650000Y-18679018D01*
X25650000Y-19726633D01*
X25863483Y-19669433D01*
X25863492Y-19669429D01*
X26077577Y-19569600D01*
X26077579Y-19569599D01*
X26271073Y-19434113D01*
X26271079Y-19434108D01*
X26438108Y-19267079D01*
X26438113Y-19267073D01*
X26573599Y-19073579D01*
X26573600Y-19073577D01*
X26586459Y-19046001D01*
X36869500Y-19046001D01*
X36869501Y-19046018D01*
X36880000Y-19148796D01*
X36880001Y-19148799D01*
X36935185Y-19315331D01*
X36935187Y-19315336D01*
X36941504Y-19325577D01*
X37027288Y-19464656D01*
X37151344Y-19588712D01*
X37300666Y-19680814D01*
X37467203Y-19735999D01*
X37569991Y-19746500D01*
X38870008Y-19746499D01*
X38972797Y-19735999D01*
X39139334Y-19680814D01*
X39288656Y-19588712D01*
X39412712Y-19464656D01*
X39504814Y-19315334D01*
X39504814Y-19315331D01*
X39508178Y-19309879D01*
X39560126Y-19263154D01*
X39629088Y-19251931D01*
X39693170Y-19279774D01*
X39701398Y-19287294D01*
X39848599Y-19434495D01*
X39891675Y-19464657D01*
X40042165Y-19570032D01*
X40042167Y-19570033D01*
X40042170Y-19570035D01*
X40256337Y-19669903D01*
X40484592Y-19731063D01*
X40661034Y-19746500D01*
X40719999Y-19751659D01*
X40720000Y-19751659D01*
X40720001Y-19751659D01*
X40778966Y-19746500D01*
X40955408Y-19731063D01*
X41183663Y-19669903D01*
X41397829Y-19570035D01*
X41591401Y-19434495D01*
X41758495Y-19267401D01*
X41868426Y-19110401D01*
X41923001Y-19066778D01*
X41992500Y-19059584D01*
X42054855Y-19091106D01*
X42071571Y-19110398D01*
X42130901Y-19195131D01*
X42181506Y-19267403D01*
X42266830Y-19352726D01*
X42348599Y-19434495D01*
X42391675Y-19464657D01*
X42542165Y-19570032D01*
X42542167Y-19570033D01*
X42542170Y-19570035D01*
X42756337Y-19669903D01*
X42984592Y-19731063D01*
X43161034Y-19746500D01*
X43219999Y-19751659D01*
X43220000Y-19751659D01*
X43220001Y-19751659D01*
X43278966Y-19746500D01*
X43455408Y-19731063D01*
X43683663Y-19669903D01*
X43897829Y-19570035D01*
X44091401Y-19434495D01*
X44258495Y-19267401D01*
X44368732Y-19109965D01*
X44423306Y-19066342D01*
X44492805Y-19059148D01*
X44555159Y-19090670D01*
X44571880Y-19109967D01*
X44681886Y-19267073D01*
X44681891Y-19267079D01*
X44848917Y-19434105D01*
X45042421Y-19569600D01*
X45256507Y-19669429D01*
X45256516Y-19669433D01*
X45470000Y-19726634D01*
X45470000Y-18679018D01*
X45584801Y-18731446D01*
X45686025Y-18746000D01*
X45753975Y-18746000D01*
X45855199Y-18731446D01*
X45970000Y-18679018D01*
X45970000Y-19726633D01*
X46183483Y-19669433D01*
X46183492Y-19669429D01*
X46397577Y-19569600D01*
X46397579Y-19569599D01*
X46591073Y-19434113D01*
X46591079Y-19434108D01*
X46758108Y-19267079D01*
X46758113Y-19267073D01*
X46893599Y-19073579D01*
X46893600Y-19073577D01*
X46993429Y-18859492D01*
X46993433Y-18859483D01*
X47054567Y-18631326D01*
X47054569Y-18631316D01*
X47064221Y-18521000D01*
X46123969Y-18521000D01*
X46156519Y-18470351D01*
X46195000Y-18339295D01*
X46195000Y-18202705D01*
X46156519Y-18071649D01*
X46123969Y-18021000D01*
X47064221Y-18021000D01*
X47054569Y-17910683D01*
X47054567Y-17910673D01*
X46993433Y-17682516D01*
X46993429Y-17682507D01*
X46893600Y-17468422D01*
X46893599Y-17468420D01*
X46758113Y-17274926D01*
X46758108Y-17274920D01*
X46591082Y-17107894D01*
X46397578Y-16972399D01*
X46183492Y-16872570D01*
X46183486Y-16872567D01*
X45970000Y-16815364D01*
X45970000Y-17862981D01*
X45855199Y-17810554D01*
X45753975Y-17796000D01*
X45686025Y-17796000D01*
X45584801Y-17810554D01*
X45470000Y-17862981D01*
X45470000Y-16815364D01*
X45469999Y-16815364D01*
X45256513Y-16872567D01*
X45256507Y-16872570D01*
X45042422Y-16972399D01*
X45042420Y-16972400D01*
X44848926Y-17107886D01*
X44848920Y-17107891D01*
X44681891Y-17274920D01*
X44681890Y-17274922D01*
X44571880Y-17432032D01*
X44517303Y-17475657D01*
X44447804Y-17482849D01*
X44385450Y-17451327D01*
X44368730Y-17432031D01*
X44258494Y-17274597D01*
X44091402Y-17107506D01*
X44091395Y-17107501D01*
X43897834Y-16971967D01*
X43897830Y-16971965D01*
X43827722Y-16939273D01*
X43683663Y-16872097D01*
X43683659Y-16872096D01*
X43683655Y-16872094D01*
X43455413Y-16810938D01*
X43455403Y-16810936D01*
X43220001Y-16790341D01*
X43219999Y-16790341D01*
X42984596Y-16810936D01*
X42984586Y-16810938D01*
X42756344Y-16872094D01*
X42756335Y-16872098D01*
X42542171Y-16971964D01*
X42542169Y-16971965D01*
X42348597Y-17107505D01*
X42181505Y-17274597D01*
X42071575Y-17431595D01*
X42016998Y-17475220D01*
X41947500Y-17482414D01*
X41885145Y-17450891D01*
X41868425Y-17431595D01*
X41758494Y-17274597D01*
X41591402Y-17107506D01*
X41591395Y-17107501D01*
X41397834Y-16971967D01*
X41397830Y-16971965D01*
X41327722Y-16939273D01*
X41183663Y-16872097D01*
X41183659Y-16872096D01*
X41183655Y-16872094D01*
X40955413Y-16810938D01*
X40955403Y-16810936D01*
X40720001Y-16790341D01*
X40719999Y-16790341D01*
X40484596Y-16810936D01*
X40484586Y-16810938D01*
X40256344Y-16872094D01*
X40256335Y-16872098D01*
X40042171Y-16971964D01*
X40042169Y-16971965D01*
X39848597Y-17107505D01*
X39701398Y-17254705D01*
X39640075Y-17288190D01*
X39570383Y-17283206D01*
X39514450Y-17241334D01*
X39508178Y-17232120D01*
X39488657Y-17200472D01*
X39412712Y-17077344D01*
X39288656Y-16953288D01*
X39157786Y-16872567D01*
X39139336Y-16861187D01*
X39139331Y-16861185D01*
X39100051Y-16848169D01*
X38972797Y-16806001D01*
X38972795Y-16806000D01*
X38870010Y-16795500D01*
X37569998Y-16795500D01*
X37569981Y-16795501D01*
X37467203Y-16806000D01*
X37467200Y-16806001D01*
X37300668Y-16861185D01*
X37300663Y-16861187D01*
X37151342Y-16953289D01*
X37027289Y-17077342D01*
X36935187Y-17226663D01*
X36935185Y-17226668D01*
X36918065Y-17278334D01*
X36880001Y-17393203D01*
X36880001Y-17393204D01*
X36880000Y-17393204D01*
X36869500Y-17495983D01*
X36869500Y-19046001D01*
X26586459Y-19046001D01*
X26673429Y-18859492D01*
X26673433Y-18859483D01*
X26734567Y-18631326D01*
X26734569Y-18631316D01*
X26744221Y-18521000D01*
X25803969Y-18521000D01*
X25836519Y-18470351D01*
X25875000Y-18339295D01*
X25875000Y-18202705D01*
X25836519Y-18071649D01*
X25803969Y-18021000D01*
X26744221Y-18021000D01*
X26734569Y-17910683D01*
X26734567Y-17910673D01*
X26673433Y-17682516D01*
X26673429Y-17682507D01*
X26573600Y-17468422D01*
X26573599Y-17468420D01*
X26438113Y-17274926D01*
X26438108Y-17274920D01*
X26271082Y-17107894D01*
X26077578Y-16972399D01*
X25863492Y-16872570D01*
X25863486Y-16872567D01*
X25650000Y-16815364D01*
X25650000Y-17862981D01*
X25535199Y-17810554D01*
X25433975Y-17796000D01*
X25366025Y-17796000D01*
X25264801Y-17810554D01*
X25150000Y-17862981D01*
X25150000Y-16815364D01*
X25149999Y-16815364D01*
X24936513Y-16872567D01*
X24936507Y-16872570D01*
X24722422Y-16972399D01*
X24722420Y-16972400D01*
X24528926Y-17107886D01*
X24528920Y-17107891D01*
X24361891Y-17274920D01*
X24361890Y-17274922D01*
X24251880Y-17432032D01*
X24197303Y-17475657D01*
X24127804Y-17482849D01*
X24065450Y-17451327D01*
X24048730Y-17432031D01*
X23938494Y-17274597D01*
X23771402Y-17107506D01*
X23771395Y-17107501D01*
X23577834Y-16971967D01*
X23577830Y-16971965D01*
X23507722Y-16939273D01*
X23363663Y-16872097D01*
X23363659Y-16872096D01*
X23363655Y-16872094D01*
X23135413Y-16810938D01*
X23135403Y-16810936D01*
X22900001Y-16790341D01*
X22899999Y-16790341D01*
X22664596Y-16810936D01*
X22664586Y-16810938D01*
X22436344Y-16872094D01*
X22436335Y-16872098D01*
X22222171Y-16971964D01*
X22222169Y-16971965D01*
X22028597Y-17107505D01*
X21861505Y-17274597D01*
X21751575Y-17431595D01*
X21696998Y-17475220D01*
X21627500Y-17482414D01*
X21565145Y-17450891D01*
X21548425Y-17431595D01*
X21438494Y-17274597D01*
X21271402Y-17107506D01*
X21271395Y-17107501D01*
X21077834Y-16971967D01*
X21077830Y-16971965D01*
X21007722Y-16939273D01*
X20863663Y-16872097D01*
X20863659Y-16872096D01*
X20863655Y-16872094D01*
X20635413Y-16810938D01*
X20635403Y-16810936D01*
X20400001Y-16790341D01*
X20399999Y-16790341D01*
X20164596Y-16810936D01*
X20164586Y-16810938D01*
X19936344Y-16872094D01*
X19936335Y-16872098D01*
X19722171Y-16971964D01*
X19722169Y-16971965D01*
X19528597Y-17107505D01*
X19381398Y-17254705D01*
X19320075Y-17288190D01*
X19250383Y-17283206D01*
X19194450Y-17241334D01*
X19188178Y-17232120D01*
X19168657Y-17200472D01*
X19092712Y-17077344D01*
X18968656Y-16953288D01*
X18837786Y-16872567D01*
X18819336Y-16861187D01*
X18819331Y-16861185D01*
X18780051Y-16848169D01*
X18652797Y-16806001D01*
X18652795Y-16806000D01*
X18550010Y-16795500D01*
X17249998Y-16795500D01*
X17249981Y-16795501D01*
X17147203Y-16806000D01*
X17147200Y-16806001D01*
X16980668Y-16861185D01*
X16980663Y-16861187D01*
X16831342Y-16953289D01*
X16707289Y-17077342D01*
X16615187Y-17226663D01*
X16615185Y-17226668D01*
X16598065Y-17278334D01*
X16560001Y-17393203D01*
X16560001Y-17393204D01*
X16560000Y-17393204D01*
X16549500Y-17495983D01*
X16549500Y-19046001D01*
X12700500Y-19046001D01*
X12700500Y-12824500D01*
X12720185Y-12757461D01*
X12772989Y-12711706D01*
X12824500Y-12700500D01*
X104015500Y-12700500D01*
X104082539Y-12720185D01*
G37*
%TD.AperFunction*%
%TD*%
M02*
